<svg width="39" height="40" viewBox="0 0 39 40" fill="none" xmlns="http://www.w3.org/2000/svg">
<path d="M27.5 18C22.966 18 20.2302 18.184 18.6435 18.3623C17.3925 18.5029 16.4752 19.4066 16.3196 20.6558C16.1569 21.9616 16 23.999 16 27C16 30.001 16.1569 32.0383 16.3196 33.3442C16.4752 34.5934 17.3954 35.4975 18.6464 35.638C19.8038 35.768 21.5718 35.9009 24.2017 35.9633C24.917 35.9803 25.6077 36.2447 26.1443 36.7179L29.0414 39.2727C29.9096 40.0384 31.2812 39.5737 31.5052 38.4379L31.8466 36.7061C31.9365 36.2504 32.3302 35.9171 32.7943 35.8966C34.3636 35.8273 35.519 35.7318 36.3552 35.6378C37.6062 35.4973 38.5248 34.5934 38.6804 33.3442C38.8431 32.0384 39 30.001 39 27C39 23.999 38.8431 21.9616 38.6804 20.6558C38.5248 19.4066 37.6075 18.5029 36.3565 18.3623C34.7698 18.184 32.034 18 27.5 18Z" fill="#33C0CB"/>
<path d="M17 0C10.6095 0 6.6354 0.24165 4.24637 0.48737C2.20573 0.69726 0.72045 2.21098 0.48557 4.24889C0.24047 6.3755 0 9.5866 0 14C0 18.4134 0.24047 21.6245 0.48557 23.7511C0.72045 25.789 2.20731 27.303 4.24795 27.5128C5.25005 27.6158 6.5309 27.7181 8.1518 27.8022C8.6394 27.8275 9.0435 28.198 9.1029 28.6827L9.3706 30.8657C9.625 32.9414 12.1637 33.8059 13.632 32.3169L17.014 28.8874C17.5751 28.3184 18.3429 27.9978 19.142 27.9905C24.2977 27.9435 27.644 27.7296 29.754 27.5126C31.7946 27.3027 33.2796 25.789 33.5144 23.7511C33.7595 21.6245 34 18.4134 34 14C34 9.5866 33.7595 6.3755 33.5144 4.24889C33.2796 2.21098 31.7943 0.69726 29.7536 0.48737C27.3646 0.24165 23.3905 0 17 0Z" fill="#C5EDF0"/>
<path d="M8 10C8 8.8954 8.8954 8 10 8H24C25.1046 8 26 8.8954 26 10C26 11.1046 25.1046 12 24 12H10C8.8954 12 8 11.1046 8 10Z" fill="#33C0CB"/>
<path d="M8 19C8 17.8954 8.8954 17 10 17H18C19.1046 17 20 17.8954 20 19C20 20.1046 19.1046 21 18 21H10C8.8954 21 8 20.1046 8 19Z" fill="#33C0CB"/>
</svg>
