<svg width="205" height="36" viewBox="0 0 205 36" fill="none" xmlns="http://www.w3.org/2000/svg">
<g clip-path="url(#clip0_557_10286)">
<path d="M41 4.5075C41 3.465 41.8364 2.64 42.8594 2.64H64.321C65.359 2.64 66.1805 3.48 66.1805 4.5075V26.0625C66.1805 27.105 65.3441 27.93 64.321 27.93H42.8594C41.8214 27.93 41 27.09 41 26.0625V4.5075Z" fill="#0B63CE"/>
<path d="M44.7339 6.8625C44.7339 6.5925 44.9355 6.39 45.2043 6.39H47.9972C48.266 6.39 48.4676 6.5925 48.4676 6.8625V9.6675C48.4676 9.9375 48.266 10.14 47.9972 10.14H45.2043C44.9355 10.14 44.7339 9.9375 44.7339 9.6675V6.8625V6.8625Z" fill="white"/>
<path d="M49.8567 6.39C49.5879 6.39 49.3862 6.5925 49.3862 6.8625V9.6675C49.3862 9.9375 49.5879 10.14 49.8567 10.14H52.6495C52.9184 10.14 53.12 9.9375 53.12 9.6675V6.8625C53.12 6.5925 52.9184 6.39 52.6495 6.39H49.8567Z" fill="white"/>
<path d="M54.0532 6.8625C54.0532 6.5925 54.2548 6.39 54.5237 6.39H57.3165C57.5854 6.39 57.787 6.5925 57.787 6.8625V9.6675C57.787 9.9375 57.5854 10.14 57.3165 10.14H54.5237C54.2548 10.14 54.0532 9.9375 54.0532 9.6675V6.8625Z" fill="white"/>
<path d="M45.2043 11.085C44.9355 11.085 44.7339 11.2875 44.7339 11.5575V14.3625C44.7339 14.6325 44.9355 14.835 45.2043 14.835H47.9972C48.266 14.835 48.4676 14.6325 48.4676 14.3625V11.5575C48.4676 11.2875 48.266 11.085 47.9972 11.085H45.2043V11.085Z" fill="white"/>
<path d="M49.3862 11.535C49.3862 11.265 49.5879 11.0625 49.8567 11.0625H52.6495C52.9184 11.0625 53.12 11.265 53.12 11.535V14.3625C53.12 14.6325 52.9184 14.835 52.6495 14.835H49.8567C49.5879 14.835 49.3862 14.6325 49.3862 14.3625V11.535V11.535Z" fill="white"/>
<path d="M59.1985 11.085C58.9297 11.085 58.728 11.2875 58.728 11.5575V14.3625C58.728 14.6325 58.9297 14.835 59.1985 14.835H61.9913C62.2602 14.835 62.4618 14.6325 62.4618 14.3625V11.5575C62.4618 11.2875 62.2602 11.085 61.9913 11.085H59.1985V11.085Z" fill="white"/>
<path d="M44.7339 16.23C44.7339 15.96 44.9355 15.7575 45.2043 15.7575H47.9972C48.266 15.7575 48.4676 15.96 48.4676 16.23V19.035C48.4676 19.305 48.266 19.5075 47.9972 19.5075H45.2043C44.9355 19.5075 44.7339 19.305 44.7339 19.035V16.23V16.23Z" fill="white"/>
<path d="M54.5237 15.7575C54.2548 15.7575 54.0532 15.96 54.0532 16.23V19.035C54.0532 19.305 54.2548 19.5075 54.5237 19.5075H57.3165C57.5854 19.5075 57.787 19.305 57.787 19.035V16.23C57.787 15.96 57.5854 15.7575 57.3165 15.7575H54.5237Z" fill="white"/>
<path d="M58.728 16.23C58.728 15.96 58.9297 15.7575 59.1985 15.7575H61.9913C62.2602 15.7575 62.4618 15.96 62.4618 16.23V19.035C62.4618 19.305 62.2602 19.5075 61.9913 19.5075H59.1985C58.9297 19.5075 58.728 19.305 58.728 19.035V16.23Z" fill="white"/>
<path d="M49.8567 20.445C49.5879 20.445 49.3862 20.6475 49.3862 20.9175V23.7225C49.3862 23.9925 49.5879 24.195 49.8567 24.195H52.6495C52.9184 24.195 53.12 23.9925 53.12 23.7225V20.9175C53.12 20.6475 52.9184 20.445 52.6495 20.445H49.8567V20.445Z" fill="white"/>
<path d="M54.0532 20.9175C54.0532 20.6475 54.2548 20.445 54.5237 20.445H57.3165C57.5854 20.445 57.787 20.6475 57.787 20.9175V23.7225C57.787 23.9925 57.5854 24.195 57.3165 24.195H54.5237C54.2548 24.195 54.0532 23.9925 54.0532 23.7225V20.9175V20.9175Z" fill="white"/>
<path d="M59.1985 20.445C58.9297 20.445 58.728 20.6475 58.728 20.9175V23.7225C58.728 23.9925 58.9297 24.195 59.1985 24.195H61.9913C62.2602 24.195 62.4618 23.9925 62.4618 23.7225V20.9175C62.4618 20.6475 62.2602 20.445 61.9913 20.445H59.1985V20.445Z" fill="white"/>
<path d="M86.903 25.9425H75.8436V2.97C75.8436 2.8275 75.7391 2.745 75.6196 2.745H73.8871C73.7452 2.745 73.6631 2.85 73.6631 2.97V27.6225C73.6631 27.765 73.7676 27.8475 73.8871 27.8475H86.903C87.0449 27.8475 87.127 27.7425 87.127 27.6225V26.13C87.1494 26.025 87.0449 25.9425 86.903 25.9425V25.9425ZM103.287 9.4275H99.3663V5.775C99.3663 3.195 100.203 1.92 101.935 1.92C102.63 1.92 103.346 2.1075 103.996 2.3925C104.033 2.43 104.138 2.43 104.183 2.3925L104.325 2.25L104.795 0.9C104.832 0.795 104.795 0.675 104.653 0.615C103.78 0.2475 102.794 0 101.943 0C98.963 0 97.2679 2.01 97.2679 5.6175V9.405L95.0202 9.5475C94.8783 9.5475 94.7961 9.6525 94.7961 9.7725V11.04C94.7961 11.1825 94.9007 11.265 95.0202 11.265H97.2679V27.5775C97.2679 27.72 97.3724 27.8025 97.4919 27.8025H99.1273C99.2692 27.8025 99.3513 27.6975 99.3513 27.5775V11.2725H103.272C103.414 11.2725 103.496 11.1675 103.496 11.0475V9.5925C103.518 9.5325 103.436 9.4275 103.294 9.4275H103.287ZM111.77 8.9775C107.894 8.9775 103.75 12.3975 103.75 18.6675C103.75 24.345 107.259 28.32 112.233 28.32C114.884 28.32 116.519 27.4425 118.028 26.535C118.132 26.4975 118.169 26.3475 118.132 26.205L117.438 24.9375C117.4 24.9 117.333 24.8325 117.296 24.8325C117.258 24.8325 117.154 24.8325 117.109 24.87C115.623 25.9575 114.13 26.4075 112.434 26.4075C108.663 26.4075 106.087 23.46 105.945 19.095H118.595C118.7 19.095 118.782 18.99 118.819 18.9075C118.924 18.435 118.924 17.925 118.924 17.49C118.819 12.1425 116.213 8.97 111.762 8.97L111.77 8.9775ZM105.893 17.2575C106.319 13.47 108.686 10.845 111.77 10.845C114.854 10.845 116.766 13.14 116.81 17.2575H105.893ZM130.76 9.39C130.207 9.105 129.64 9.0225 128.9 9.0225C127.041 9.0225 125.271 10.1925 123.905 12.405L123.763 9.6825C123.763 9.54 123.658 9.4575 123.539 9.4575H122.127C121.985 9.4575 121.903 9.5625 121.903 9.6825V27.675C121.903 27.8175 122.008 27.9 122.127 27.9H123.763C123.905 27.9 123.987 27.795 123.987 27.675V15.4725C125.107 12.6675 126.839 11.025 128.661 11.025C129.311 11.025 129.602 11.13 130.192 11.31H130.379C130.416 11.2725 130.483 11.205 130.483 11.1675L130.849 9.675C130.909 9.5325 130.872 9.4275 130.767 9.39H130.76ZM145.508 9.4275H144.059C143.917 9.4275 143.835 9.5325 143.835 9.6525L143.731 11.0025C142.2 9.795 140.691 8.9925 138.548 8.9925C133.791 8.9925 130.386 13.0725 130.386 18.6825C130.386 24.7275 133.239 28.335 138.033 28.335C139.99 28.335 141.953 27.4575 143.768 25.755L143.91 27.6825C143.91 27.825 144.015 27.9075 144.134 27.9075H145.545C145.687 27.9075 145.769 27.8025 145.769 27.6825V9.63C145.732 9.525 145.65 9.4275 145.501 9.4275H145.508ZM143.634 13.095V23.5425C141.715 25.5075 140.042 26.3475 138.272 26.3475C134.725 26.3475 132.582 23.4375 132.582 18.6225C132.582 14.2575 135.233 10.8375 138.638 10.8375C140.43 10.875 141.924 11.535 143.634 13.095V13.095ZM163.318 9.5325C163.281 9.495 163.213 9.4275 163.131 9.4275H161.459C161.354 9.4275 161.272 9.465 161.235 9.57L157.396 20.8575C157.21 21.4725 156.971 22.125 156.784 22.785C156.5 23.73 156.172 24.6525 155.91 25.5075C155.544 24.5625 155.156 23.5425 154.79 22.56C154.566 21.945 154.32 21.39 154.14 20.82L149.854 9.5325C149.817 9.4275 149.712 9.39 149.63 9.39H147.853C147.748 9.39 147.711 9.4275 147.666 9.495C147.629 9.5325 147.629 9.6375 147.666 9.72L154.992 27.9525L154.521 29.445C153.827 31.5525 152.52 34.035 150.138 34.035C149.667 34.035 149.115 33.8925 148.727 33.75H148.54L148.398 33.8925L148.032 35.3475C147.995 35.4525 148.069 35.5725 148.174 35.6325C148.682 35.8575 149.436 36 150.093 36C152.849 36 154.992 33.8925 156.336 29.9175L163.378 9.675C163.415 9.675 163.378 9.57 163.318 9.5325V9.5325ZM91.5702 5.3475C91.8539 5.3475 92.078 5.1225 92.078 4.8375V3.1575C92.078 2.8725 91.8539 2.6475 91.5702 2.6475H89.8975C89.6137 2.6475 89.3897 2.8725 89.3897 3.1575V4.8375C89.3897 5.1225 89.6137 5.3475 89.8975 5.3475H91.5702ZM89.8975 9.4275H91.5328C91.6747 9.4275 91.7569 9.5325 91.7569 9.6525V27.645C91.7569 27.7875 91.6523 27.87 91.5328 27.87H89.8975C89.7556 27.87 89.6734 27.765 89.6734 27.645V9.6525C89.651 9.5325 89.7556 9.4275 89.8975 9.4275V9.4275Z" fill="#061618"/>
</g>
<defs>
<clipPath id="clip0_557_10286">
<rect width="122.4" height="36" fill="white" transform="translate(41)"/>
</clipPath>
</defs>
</svg>
