<svg width="362" height="241" viewBox="0 0 362 241" fill="none" xmlns="http://www.w3.org/2000/svg">
<rect width="362" height="241" rx="16" fill="url(#paint0_linear_557_10369)"/>
<g clip-path="url(#clip0_557_10369)">
<path d="M99.6047 46.01C99.6047 44.62 100.72 43.52 102.084 43.52H130.699C132.083 43.52 133.179 44.64 133.179 46.01V74.75C133.179 76.14 132.063 77.24 130.699 77.24H102.084C100.7 77.24 99.6047 76.12 99.6047 74.75V46.01Z" fill="#0B63CE"/>
<path d="M104.583 49.15C104.583 48.79 104.852 48.52 105.21 48.52H108.934C109.293 48.52 109.561 48.79 109.561 49.15V52.89C109.561 53.25 109.293 53.52 108.934 53.52H105.21C104.852 53.52 104.583 53.25 104.583 52.89V49.15V49.15Z" fill="white"/>
<path d="M111.413 48.52C111.055 48.52 110.786 48.79 110.786 49.15V52.89C110.786 53.25 111.055 53.52 111.413 53.52H115.137C115.496 53.52 115.764 53.25 115.764 52.89V49.15C115.764 48.79 115.496 48.52 115.137 48.52H111.413Z" fill="white"/>
<path d="M117.009 49.15C117.009 48.79 117.278 48.52 117.636 48.52H121.36C121.718 48.52 121.987 48.79 121.987 49.15V52.89C121.987 53.25 121.718 53.52 121.36 53.52H117.636C117.278 53.52 117.009 53.25 117.009 52.89V49.15Z" fill="white"/>
<path d="M105.21 54.78C104.852 54.78 104.583 55.05 104.583 55.41V59.15C104.583 59.51 104.852 59.78 105.21 59.78H108.934C109.293 59.78 109.561 59.51 109.561 59.15V55.41C109.561 55.05 109.293 54.78 108.934 54.78H105.21V54.78Z" fill="white"/>
<path d="M110.786 55.38C110.786 55.02 111.055 54.75 111.413 54.75H115.137C115.496 54.75 115.764 55.02 115.764 55.38V59.15C115.764 59.51 115.496 59.78 115.137 59.78H111.413C111.055 59.78 110.786 59.51 110.786 59.15V55.38V55.38Z" fill="white"/>
<path d="M123.869 54.78C123.511 54.78 123.242 55.05 123.242 55.41V59.15C123.242 59.51 123.511 59.78 123.869 59.78H127.593C127.951 59.78 128.22 59.51 128.22 59.15V55.41C128.22 55.05 127.951 54.78 127.593 54.78H123.869V54.78Z" fill="white"/>
<path d="M104.583 61.64C104.583 61.28 104.852 61.01 105.21 61.01H108.934C109.293 61.01 109.561 61.28 109.561 61.64V65.38C109.561 65.74 109.293 66.01 108.934 66.01H105.21C104.852 66.01 104.583 65.74 104.583 65.38V61.64V61.64Z" fill="white"/>
<path d="M117.636 61.01C117.278 61.01 117.009 61.28 117.009 61.64V65.38C117.009 65.74 117.278 66.01 117.636 66.01H121.36C121.718 66.01 121.987 65.74 121.987 65.38V61.64C121.987 61.28 121.718 61.01 121.36 61.01H117.636Z" fill="white"/>
<path d="M123.242 61.64C123.242 61.28 123.511 61.01 123.869 61.01H127.593C127.951 61.01 128.22 61.28 128.22 61.64V65.38C128.22 65.74 127.951 66.01 127.593 66.01H123.869C123.511 66.01 123.242 65.74 123.242 65.38V61.64Z" fill="white"/>
<path d="M111.413 67.26C111.055 67.26 110.786 67.53 110.786 67.89V71.63C110.786 71.99 111.055 72.26 111.413 72.26H115.137C115.496 72.26 115.764 71.99 115.764 71.63V67.89C115.764 67.53 115.496 67.26 115.137 67.26H111.413V67.26Z" fill="white"/>
<path d="M117.009 67.89C117.009 67.53 117.278 67.26 117.636 67.26H121.36C121.718 67.26 121.987 67.53 121.987 67.89V71.63C121.987 71.99 121.718 72.26 121.36 72.26H117.636C117.278 72.26 117.009 71.99 117.009 71.63V67.89V67.89Z" fill="white"/>
<path d="M123.869 67.26C123.511 67.26 123.242 67.53 123.242 67.89V71.63C123.242 71.99 123.511 72.26 123.869 72.26H127.593C127.951 72.26 128.22 71.99 128.22 71.63V67.89C128.22 67.53 127.951 67.26 127.593 67.26H123.869V67.26Z" fill="white"/>
<path d="M160.808 74.59H146.063V43.96C146.063 43.77 145.923 43.66 145.764 43.66H143.454C143.265 43.66 143.155 43.8 143.155 43.96V76.83C143.155 77.02 143.295 77.13 143.454 77.13H160.808C160.998 77.13 161.107 76.99 161.107 76.83V74.84C161.137 74.7 160.998 74.59 160.808 74.59V74.59ZM182.653 52.57H177.426V47.7C177.426 44.26 178.541 42.56 180.851 42.56C181.777 42.56 182.733 42.81 183.599 43.19C183.649 43.24 183.788 43.24 183.848 43.19L184.037 43L184.665 41.2C184.714 41.06 184.665 40.9 184.475 40.82C183.311 40.33 181.996 40 180.861 40C176.888 40 174.628 42.68 174.628 47.49V52.54L171.631 52.73C171.442 52.73 171.333 52.87 171.333 53.03V54.72C171.333 54.91 171.472 55.02 171.631 55.02H174.628V76.77C174.628 76.96 174.768 77.07 174.927 77.07H177.108C177.297 77.07 177.406 76.93 177.406 76.77V55.03H182.633C182.823 55.03 182.932 54.89 182.932 54.73V52.79C182.962 52.71 182.853 52.57 182.663 52.57H182.653ZM193.964 51.97C188.797 51.97 183.271 56.53 183.271 64.89C183.271 72.46 187.95 77.76 194.581 77.76C198.116 77.76 200.297 76.59 202.308 75.38C202.447 75.33 202.497 75.13 202.447 74.94L201.521 73.25C201.472 73.2 201.382 73.11 201.332 73.11C201.282 73.11 201.143 73.11 201.083 73.16C199.102 74.61 197.11 75.21 194.85 75.21C189.822 75.21 186.387 71.28 186.198 65.46H203.065C203.204 65.46 203.313 65.32 203.363 65.21C203.503 64.58 203.503 63.9 203.503 63.32C203.363 56.19 199.888 51.96 193.954 51.96L193.964 51.97ZM186.128 63.01C186.696 57.96 189.852 54.46 193.964 54.46C198.076 54.46 200.625 57.52 200.685 63.01H186.128ZM219.284 52.52C218.547 52.14 217.791 52.03 216.805 52.03C214.326 52.03 211.966 53.59 210.144 56.54L209.955 52.91C209.955 52.72 209.815 52.61 209.656 52.61H207.774C207.585 52.61 207.475 52.75 207.475 52.91V76.9C207.475 77.09 207.615 77.2 207.774 77.2H209.955C210.144 77.2 210.253 77.06 210.253 76.9V60.63C211.747 56.89 214.057 54.7 216.486 54.7C217.352 54.7 217.741 54.84 218.527 55.08H218.776C218.826 55.03 218.916 54.94 218.916 54.89L219.404 52.9C219.483 52.71 219.433 52.57 219.294 52.52H219.284ZM238.948 52.57H237.017C236.828 52.57 236.718 52.71 236.718 52.87L236.579 54.67C234.538 53.06 232.526 51.99 229.669 51.99C223.326 51.99 218.786 57.43 218.786 64.91C218.786 72.97 222.59 77.78 228.982 77.78C231.59 77.78 234.209 76.61 236.629 74.34L236.818 76.91C236.818 77.1 236.957 77.21 237.116 77.21H238.998C239.187 77.21 239.297 77.07 239.297 76.91V52.84C239.247 52.7 239.138 52.57 238.939 52.57H238.948ZM236.449 57.46V71.39C233.89 74.01 231.66 75.13 229.3 75.13C224.571 75.13 221.713 71.25 221.713 64.83C221.713 59.01 225.248 54.45 229.788 54.45C232.178 54.5 234.169 55.38 236.449 57.46V57.46ZM262.695 52.71C262.645 52.66 262.556 52.57 262.446 52.57H260.216C260.077 52.57 259.967 52.62 259.917 52.76L254.8 67.81C254.551 68.63 254.232 69.5 253.983 70.38C253.605 71.64 253.167 72.87 252.818 74.01C252.33 72.75 251.813 71.39 251.325 70.08C251.026 69.26 250.697 68.52 250.458 67.76L244.743 52.71C244.693 52.57 244.554 52.52 244.445 52.52H242.075C241.935 52.52 241.886 52.57 241.826 52.66C241.776 52.71 241.776 52.85 241.826 52.96L251.593 77.27L250.966 79.26C250.04 82.07 248.298 85.38 245.122 85.38C244.494 85.38 243.758 85.19 243.24 85H242.991L242.802 85.19L242.314 87.13C242.264 87.27 242.364 87.43 242.503 87.51C243.18 87.81 244.186 88 245.062 88C248.736 88 251.593 85.19 253.386 79.89L262.775 52.9C262.825 52.9 262.775 52.76 262.695 52.71V52.71ZM167.031 47.13C167.41 47.13 167.708 46.83 167.708 46.45V44.21C167.708 43.83 167.41 43.53 167.031 43.53H164.801C164.423 43.53 164.124 43.83 164.124 44.21V46.45C164.124 46.83 164.423 47.13 164.801 47.13H167.031ZM164.801 52.57H166.982C167.171 52.57 167.28 52.71 167.28 52.87V76.86C167.28 77.05 167.141 77.16 166.982 77.16H164.801C164.612 77.16 164.502 77.02 164.502 76.86V52.87C164.472 52.71 164.612 52.57 164.801 52.57V52.57Z" fill="white"/>
</g>
<line x1="131.705" y1="119.5" x2="230.705" y2="119.5" stroke="#E2E8F0"/>
<path d="M109.158 187.556H106.491L94 152.468H99.5205L107.895 177.216L116.737 152.468H119.404L128.246 177.216L136.62 152.468H142.187L129.696 187.556H127.029L118.094 162.901L109.158 187.556ZM156.082 168C152.105 168 148.877 171.322 148.877 176.047C148.877 180.725 152.105 184.094 156.082 184.094C160.058 184.094 163.287 180.725 163.287 176.047C163.287 171.322 160.058 168 156.082 168V168ZM156.082 164.023C162.725 164.023 168.105 169.17 168.105 176.047C168.105 182.924 162.725 188.023 156.082 188.023C149.439 188.023 144.058 182.924 144.058 176.047C144.058 169.17 149.439 164.023 156.082 164.023V164.023ZM187.146 164.725L186.117 168.515C185.789 168.327 184.76 168 183.918 168C179.942 168 178.07 171.789 178.07 176.468V187.556H173.251V164.444H178.07V167.719C178.632 165.567 181.111 164.023 183.871 164.023C185.135 164.023 186.491 164.351 187.146 164.725ZM189.018 176.047C189.018 169.17 193.93 164.023 200.573 164.023C202.866 164.023 205.673 165.006 207.216 166.269V152.468H212.082V187.556H207.216V185.825C205.392 187.181 202.866 188.023 200.573 188.023C193.93 188.023 189.018 182.924 189.018 176.047V176.047ZM193.883 176.047C193.883 180.725 197.111 184.094 201.041 184.094C203.661 184.094 206 182.877 207.216 180.398C207.871 179.135 208.246 177.637 208.246 176.047C208.246 174.456 207.871 172.959 207.216 171.649C206 169.17 203.661 168 201.041 168C197.111 168 193.883 171.322 193.883 176.047V176.047ZM224.152 164.444V187.556H219.333V164.444H224.152ZM224.386 155.977C224.386 157.474 223.216 158.643 221.719 158.643C220.269 158.643 219.099 157.474 219.099 155.977C219.099 154.526 220.269 153.357 221.719 153.357C223.216 153.357 224.386 154.526 224.386 155.977ZM244.129 156.444C243.427 156.117 242.257 155.696 240.76 156.304C238.468 157.333 238.094 158.269 238.094 162.105V164.444H244.129V168.374H238.094V187.556H233.275V168.374H230.468V164.444H233.275V162.105C233.275 158.456 233.275 157.614 234.678 155.322C236.175 152.842 238.608 152 241.368 152C242.632 152 243.52 152.327 244.129 152.702V156.444V156.444ZM268.409 164.444C268.409 164.444 262.561 178.292 258.678 187.556C255.404 195.322 252.83 200 248.48 200C247.123 200 245.392 199.345 244.129 198.596L245.579 194.386C245.953 194.713 246.795 195.181 247.357 195.322C250.959 196.351 253.205 188.819 254.749 185.123L246 164.444H250.866L257.228 179.602L263.544 164.444H268.409V164.444Z" fill="white"/>
<defs>
<linearGradient id="paint0_linear_557_10369" x1="366.666" y1="241" x2="118.371" y2="-118.647" gradientUnits="userSpaceOnUse">
<stop offset="0.489583" stop-color="#061618"/>
<stop offset="0.967248" stop-color="#1C6B71"/>
</linearGradient>
<clipPath id="clip0_557_10369">
<rect width="163.2" height="48" fill="white" transform="translate(99.6047 40)"/>
</clipPath>
</defs>
</svg>
