<svg width="205" height="36" viewBox="0 0 205 36" fill="none" xmlns="http://www.w3.org/2000/svg">
<path d="M66.0693 6.84608C66.0468 6.66612 65.8894 6.56863 65.7619 6.56113C65.6345 6.55364 62.935 6.35118 62.935 6.35118C62.935 6.35118 61.0604 4.49157 60.8504 4.28161C60.648 4.07916 60.2431 4.13914 60.0856 4.18413C60.0631 4.18413 59.6732 4.3116 59.0358 4.50656C58.406 2.70693 57.3037 1.04978 55.3541 1.04978C55.3016 1.04978 55.2416 1.04978 55.1891 1.04978C54.6342 0.31493 53.9519 0 53.3595 0C48.8304 0 46.6634 5.66882 45.981 8.54822C44.2189 9.0956 42.9667 9.47803 42.8092 9.53052C41.8269 9.83796 41.7969 9.86794 41.6694 10.7977C41.572 11.5026 39 31.3885 39 31.3885L59.0433 35.1452L69.9011 32.7982C69.9011 32.7982 66.0919 7.02604 66.0619 6.84608H66.0693ZM57.9261 4.85149C57.4237 5.00896 56.8538 5.18142 56.2314 5.37638C56.2314 5.2564 56.2314 5.13643 56.2314 5.00895C56.2314 3.89168 56.0739 2.98438 55.8265 2.27203C56.8313 2.3995 57.4986 3.53926 57.9261 4.85149V4.85149ZM54.5818 2.49698C54.8592 3.19434 55.0391 4.19912 55.0391 5.54884C55.0391 5.61633 55.0391 5.68382 55.0391 5.74381C53.9369 6.08874 52.7371 6.45616 51.5374 6.83108C52.2122 4.22912 53.4795 2.96938 54.5818 2.49698V2.49698ZM53.232 1.22225C53.427 1.22225 53.6219 1.28973 53.8169 1.4172C52.3622 2.09956 50.81 3.8242 50.1502 7.25848C49.1904 7.55842 48.2531 7.84337 47.3832 8.11332C48.1556 5.48886 49.9852 1.21474 53.2395 1.21474L53.232 1.22225Z" fill="#95BF47"/>
<path d="M65.7621 6.55366C65.6346 6.54616 62.9351 6.3437 62.9351 6.3437C62.9351 6.3437 61.0605 4.48408 60.8506 4.27413C60.7756 4.19914 60.6706 4.16166 60.5582 4.13916L59.0435 35.1377L69.9012 32.7907C69.9012 32.7907 66.092 7.01855 66.062 6.83859C66.0395 6.65863 65.882 6.56116 65.7546 6.55366H65.7621Z" fill="#5E8E3E"/>
<path d="M55.3617 12.56L54.0195 16.5416C54.0195 16.5416 52.8497 15.9118 51.41 15.9118C49.3029 15.9118 49.1979 17.2315 49.1979 17.5689C49.1979 19.391 53.937 20.0884 53.937 24.3475C53.937 27.6993 51.8074 29.8589 48.943 29.8589C45.5012 29.8589 43.7466 27.7143 43.7466 27.7143L44.6689 24.6699C44.6689 24.6699 46.476 26.2221 48.0057 26.2221C49.003 26.2221 49.4079 25.4348 49.4079 24.8649C49.4079 22.4954 45.5162 22.3829 45.5162 18.4837C45.5162 15.1994 47.8707 12.0276 52.6247 12.0276C54.4544 12.0276 55.3617 12.5525 55.3617 12.5525V12.56Z" fill="white"/>
<path d="M82.566 20.0283C81.4862 19.4434 80.9239 18.9485 80.9239 18.2662C80.9239 17.3964 81.6962 16.8415 82.9034 16.8415C84.3057 16.8415 85.5654 17.4264 85.5654 17.4264L86.5552 14.397C86.5552 14.397 85.6479 13.6846 82.9634 13.6846C79.2367 13.6846 76.6498 15.8217 76.6498 18.8211C76.6498 20.5232 77.857 21.8204 79.4692 22.7502C80.7664 23.4926 81.2313 24.0175 81.2313 24.7898C81.2313 25.5622 80.5789 26.2445 79.3717 26.2445C77.5721 26.2445 75.8774 25.3147 75.8774 25.3147L74.8276 28.3441C74.8276 28.3441 76.3948 29.3939 79.0342 29.3939C82.8735 29.3939 85.6254 27.5043 85.6254 24.1C85.6254 22.2778 84.2307 20.9731 82.5585 20.0133L82.566 20.0283Z" fill="#061618"/>
<path d="M97.8477 13.6472C95.9581 13.6472 94.4734 14.547 93.3262 15.9042L93.2662 15.8742L94.9084 7.3035H90.6418L86.4951 29.1165H90.7617L92.1864 21.6555C92.7413 18.8361 94.196 17.104 95.5607 17.104C96.5205 17.104 96.8879 17.7563 96.8879 18.6786C96.8879 19.2635 96.828 19.9758 96.7005 20.5682L95.0883 29.109H99.3624L101.035 20.2908C101.222 19.361 101.342 18.2512 101.342 17.5089C101.342 15.0944 100.075 13.6397 97.8477 13.6397V13.6472Z" fill="#061618"/>
<path d="M111 13.6472C105.863 13.6472 102.459 18.2887 102.459 23.4551C102.459 26.7694 104.499 29.4239 108.338 29.4239C113.384 29.4239 116.789 24.9023 116.789 19.6159C116.789 16.5491 114.996 13.6472 111 13.6472V13.6472ZM108.893 26.1471C107.438 26.1471 106.816 24.9098 106.816 23.3651C106.816 20.9206 108.083 16.9315 110.407 16.9315C111.922 16.9315 112.417 18.2287 112.417 19.5034C112.417 22.1354 111.15 26.1546 108.893 26.1546V26.1471Z" fill="#061618"/>
<path d="M127.714 13.6472C124.835 13.6472 123.193 16.1816 123.193 16.1816H123.133L123.38 13.8946H119.608C119.421 15.4393 119.083 17.7938 118.738 19.5559L115.769 35.1827H120.043L121.22 28.869H121.31C121.31 28.869 122.188 29.4239 123.815 29.4239C128.831 29.4239 132.108 24.2874 132.108 19.091C132.108 16.2116 130.841 13.6472 127.714 13.6472V13.6472ZM123.627 26.207C122.518 26.207 121.865 25.5847 121.865 25.5847L122.578 21.5955C123.073 18.9336 124.467 17.1714 125.952 17.1714C127.249 17.1714 127.654 18.3787 127.654 19.5259C127.654 22.2779 126.012 26.207 123.635 26.207H123.627Z" fill="#061618"/>
<path d="M138.204 7.52097C136.84 7.52097 135.76 8.60074 135.76 9.99545C135.76 11.2627 136.562 12.1325 137.769 12.1325H137.829C139.157 12.1325 140.304 11.2327 140.334 9.65803C140.334 8.42078 139.501 7.52097 138.197 7.52097H138.204Z" fill="#061618"/>
<path d="M132.228 29.124H136.502L139.412 13.9921H135.107L132.228 29.124Z" fill="#061618"/>
<path d="M150.269 13.9621H147.3L147.458 13.2497C147.705 11.795 148.575 10.4978 149.992 10.4978C150.749 10.4978 151.357 10.7153 151.357 10.7153L152.189 7.37095C152.189 7.37095 151.447 6.99603 149.865 6.99603C148.282 6.99603 146.835 7.43094 145.688 8.42073C144.233 9.65797 143.551 11.4501 143.213 13.2497L143.086 13.9621H141.106L140.484 17.1789H142.464L140.207 29.1239H144.481L146.738 17.1789H149.677L150.262 13.9621H150.269Z" fill="#061618"/>
<path d="M160.542 13.9921C160.542 13.9921 157.873 20.7182 156.673 24.3925H156.613C156.531 23.2077 155.563 13.9921 155.563 13.9921H151.079L153.651 27.8867C153.711 28.1942 153.681 28.3816 153.561 28.5991C153.066 29.5589 152.234 30.4887 151.237 31.1711C150.434 31.7559 149.535 32.1308 148.822 32.3783L150 36C150.869 35.8126 152.661 35.1002 154.176 33.6755C156.126 31.8534 157.918 29.034 159.777 25.1948L165.004 13.9921H160.55H160.542Z" fill="#061618"/>
</svg>
