<svg width="290" height="242" viewBox="0 0 290 242" fill="none" xmlns="http://www.w3.org/2000/svg">
<g filter="url(#filter0_b_557_10142)">
<rect width="290" height="242" rx="16" fill="white" fill-opacity="0.16"/>
<path d="M99.2946 54.1281C99.2646 53.8882 99.0547 53.7582 98.8847 53.7482C98.7148 53.7382 95.1155 53.4682 95.1155 53.4682C95.1155 53.4682 92.616 50.9888 92.3361 50.7088C92.0661 50.4389 91.5262 50.5189 91.3163 50.5788C91.2863 50.5788 90.7664 50.7488 89.9166 51.0087C89.0768 48.6092 87.6071 46.3997 85.0076 46.3997C84.9376 46.3997 84.8576 46.3997 84.7876 46.3997C84.0478 45.4199 83.138 45 82.3482 45C76.3094 45 73.42 52.5584 72.5102 56.3976C70.1607 57.1275 68.491 57.6374 68.2811 57.7074C66.9713 58.1173 66.9314 58.1573 66.7614 59.397C66.6314 60.3368 63.2021 86.8513 63.2021 86.8513L89.9266 91.8602L104.404 88.7309C104.404 88.7309 99.3246 54.3681 99.2846 54.1281H99.2946ZM88.4369 51.4687C87.767 51.6786 87.0072 51.9086 86.1773 52.1685C86.1773 52.0085 86.1773 51.8486 86.1773 51.6786C86.1773 50.1889 85.9674 48.9792 85.6375 48.0294C86.9772 48.1993 87.867 49.719 88.4369 51.4687V51.4687ZM83.9778 48.3293C84.3477 49.2591 84.5877 50.5988 84.5877 52.3985C84.5877 52.4884 84.5877 52.5784 84.5877 52.6584C83.118 53.1183 81.5183 53.6082 79.9187 54.1081C80.8185 50.6388 82.5081 48.9592 83.9778 48.3293V48.3293ZM82.1782 46.6297C82.4381 46.6297 82.6981 46.7196 82.958 46.8896C81.0184 47.7994 78.9489 50.0989 78.069 54.678C76.7893 55.0779 75.5396 55.4578 74.3798 55.8178C75.4096 52.3185 77.8491 46.6197 82.1882 46.6197L82.1782 46.6297Z" fill="#95BF47"/>
<path d="M98.8849 53.7382C98.7149 53.7282 95.1157 53.4583 95.1157 53.4583C95.1157 53.4583 92.6162 50.9788 92.3363 50.6988C92.2363 50.5989 92.0963 50.5489 91.9464 50.5189L89.9268 91.8503L104.404 88.7209C104.404 88.7209 99.3248 54.3581 99.2848 54.1181C99.2548 53.8782 99.0449 53.7482 98.8749 53.7382H98.8849Z" fill="#5E8E3E"/>
<path d="M85.0175 61.7466L83.2279 67.0555C83.2279 67.0555 81.6682 66.2157 79.7486 66.2157C76.9392 66.2157 76.7992 67.9753 76.7992 68.4252C76.7992 70.8547 83.1179 71.7845 83.1179 77.4633C83.1179 81.9324 80.2785 84.8118 76.4593 84.8118C71.8703 84.8118 69.5308 81.9524 69.5308 81.9524L70.7605 77.8932C70.7605 77.8932 73.17 79.9628 75.2096 79.9628C76.5393 79.9628 77.0792 78.913 77.0792 78.1532C77.0792 74.9938 71.8903 74.8439 71.8903 69.645C71.8903 65.2659 75.0296 61.0367 81.3683 61.0367C83.8078 61.0367 85.0175 61.7366 85.0175 61.7366V61.7466Z" fill="white"/>
<path d="M121.29 71.7044C119.85 70.9246 119.1 70.2647 119.1 69.3549C119.1 68.1952 120.13 67.4553 121.74 67.4553C123.61 67.4553 125.289 68.2352 125.289 68.2352L126.609 64.196C126.609 64.196 125.399 63.2462 121.82 63.2462C116.851 63.2462 113.402 66.0956 113.402 70.0948C113.402 72.3643 115.011 74.0939 117.161 75.3337C118.891 76.3235 119.51 77.0233 119.51 78.0531C119.51 79.0829 118.641 79.9927 117.031 79.9927C114.631 79.9927 112.372 78.753 112.372 78.753L110.972 82.7921C110.972 82.7921 113.062 84.1918 116.581 84.1918C121.7 84.1918 125.369 81.6723 125.369 77.1333C125.369 74.7038 123.51 72.9642 121.28 71.6844L121.29 71.7044Z" fill="white"/>
<path d="M141.666 63.1962C139.146 63.1962 137.167 64.396 135.637 66.2056L135.557 66.1656L137.746 54.738H132.058L126.529 83.8219H132.218L134.117 73.874C134.857 70.1148 136.797 67.8053 138.616 67.8053C139.896 67.8053 140.386 68.6751 140.386 69.9048C140.386 70.6847 140.306 71.6345 140.136 72.4243L137.986 83.812H143.685L145.915 72.0544C146.165 70.8147 146.325 69.335 146.325 68.3452C146.325 65.1258 144.635 63.1862 141.666 63.1862V63.1962Z" fill="white"/>
<path d="M159.202 63.1962C152.354 63.1962 147.814 69.3849 147.814 76.2735C147.814 80.6926 150.534 84.2318 155.653 84.2318C162.381 84.2318 166.92 78.2031 166.92 71.1545C166.92 67.0654 164.531 63.1962 159.202 63.1962V63.1962ZM156.393 79.8627C154.453 79.8627 153.623 78.2131 153.623 76.1535C153.623 72.8942 155.313 67.5753 158.412 67.5753C160.432 67.5753 161.092 69.3049 161.092 71.0046C161.092 74.5138 159.402 79.8727 156.393 79.8727V79.8627Z" fill="white"/>
<path d="M181.487 63.1962C177.648 63.1962 175.459 66.5755 175.459 66.5755H175.379L175.708 63.5261H170.68C170.43 65.5857 169.98 68.7251 169.52 71.0746L165.561 91.9102H171.259L172.829 83.492H172.949C172.949 83.492 174.119 84.2318 176.288 84.2318C182.977 84.2318 187.346 77.3833 187.346 70.4547C187.346 66.6155 185.656 63.1962 181.487 63.1962V63.1962ZM176.038 79.9427C174.559 79.9427 173.689 79.1129 173.689 79.1129L174.639 73.794C175.299 70.2447 177.158 67.8952 179.138 67.8952C180.867 67.8952 181.407 69.5049 181.407 71.0346C181.407 74.7038 179.218 79.9427 176.048 79.9427H176.038Z" fill="white"/>
<path d="M195.475 55.028C193.655 55.028 192.215 56.4677 192.215 58.3273C192.215 60.0169 193.285 61.1767 194.895 61.1767H194.975C196.744 61.1767 198.274 59.9769 198.314 57.8774C198.314 56.2277 197.204 55.028 195.465 55.028H195.475Z" fill="white"/>
<path d="M187.506 83.8319H193.205L197.084 63.6562H191.346L187.506 83.8319Z" fill="white"/>
<path d="M211.561 63.6161H207.602L207.812 62.6663C208.142 60.7267 209.302 58.9971 211.191 58.9971C212.201 58.9971 213.011 59.287 213.011 59.287L214.121 54.8279C214.121 54.8279 213.131 54.328 211.021 54.328C208.912 54.328 206.982 54.9079 205.453 56.2276C203.513 57.8773 202.603 60.2668 202.153 62.6663L201.983 63.6161H199.344L198.514 67.9052H201.153L198.144 83.8319H203.843L206.852 67.9052H210.771L211.551 63.6161H211.561Z" fill="white"/>
<path d="M225.259 63.6562C225.259 63.6562 221.699 72.6243 220.1 77.5233H220.02C219.91 75.9436 218.62 63.6562 218.62 63.6562H212.641L216.07 82.1823C216.15 82.5922 216.11 82.8422 215.951 83.1321C215.291 84.4118 214.181 85.6516 212.851 86.5614C211.781 87.3412 210.582 87.8411 209.632 88.171L211.202 93C212.361 92.7501 214.751 91.8003 216.77 89.9007C219.37 87.4712 221.759 83.712 224.239 78.5931L231.207 63.6562H225.269H225.259Z" fill="white"/>
<line x1="97.2046" y1="124.5" x2="197.205" y2="124.5" stroke="#F1F5F9"/>
<path d="M75.1579 192.556H72.4912L60 157.468H65.5205L73.8947 182.216L82.7368 157.468H85.4035L94.2456 182.216L102.62 157.468H108.187L95.6959 192.556H93.0292L84.0936 167.901L75.1579 192.556ZM122.082 173C118.105 173 114.877 176.322 114.877 181.047C114.877 185.725 118.105 189.094 122.082 189.094C126.058 189.094 129.287 185.725 129.287 181.047C129.287 176.322 126.058 173 122.082 173V173ZM122.082 169.023C128.725 169.023 134.105 174.17 134.105 181.047C134.105 187.924 128.725 193.023 122.082 193.023C115.439 193.023 110.058 187.924 110.058 181.047C110.058 174.17 115.439 169.023 122.082 169.023V169.023ZM153.146 169.725L152.117 173.515C151.789 173.327 150.76 173 149.918 173C145.942 173 144.07 176.789 144.07 181.468V192.556H139.251V169.444H144.07V172.719C144.632 170.567 147.111 169.023 149.871 169.023C151.135 169.023 152.491 169.351 153.146 169.725ZM155.018 181.047C155.018 174.17 159.93 169.023 166.573 169.023C168.866 169.023 171.673 170.006 173.216 171.269V157.468H178.082V192.556H173.216V190.825C171.392 192.181 168.866 193.023 166.573 193.023C159.93 193.023 155.018 187.924 155.018 181.047V181.047ZM159.883 181.047C159.883 185.725 163.111 189.094 167.041 189.094C169.661 189.094 172 187.877 173.216 185.398C173.871 184.135 174.246 182.637 174.246 181.047C174.246 179.456 173.871 177.959 173.216 176.649C172 174.17 169.661 173 167.041 173C163.111 173 159.883 176.322 159.883 181.047V181.047ZM190.152 169.444V192.556H185.333V169.444H190.152ZM190.386 160.977C190.386 162.474 189.216 163.643 187.719 163.643C186.269 163.643 185.099 162.474 185.099 160.977C185.099 159.526 186.269 158.357 187.719 158.357C189.216 158.357 190.386 159.526 190.386 160.977ZM210.129 161.444C209.427 161.117 208.257 160.696 206.76 161.304C204.468 162.333 204.094 163.269 204.094 167.105V169.444H210.129V173.374H204.094V192.556H199.275V173.374H196.468V169.444H199.275V167.105C199.275 163.456 199.275 162.614 200.678 160.322C202.175 157.842 204.608 157 207.368 157C208.632 157 209.52 157.327 210.129 157.702V161.444V161.444ZM234.409 169.444C234.409 169.444 228.561 183.292 224.678 192.556C221.404 200.322 218.83 205 214.48 205C213.123 205 211.392 204.345 210.129 203.596L211.579 199.386C211.953 199.713 212.795 200.181 213.357 200.322C216.959 201.351 219.205 193.819 220.749 190.123L212 169.444H216.866L223.228 184.602L229.544 169.444H234.409V169.444Z" fill="#33C0CB"/>
</g>
<defs>
<filter id="filter0_b_557_10142" x="-16" y="-16" width="322" height="274" filterUnits="userSpaceOnUse" color-interpolation-filters="sRGB">
<feFlood flood-opacity="0" result="BackgroundImageFix"/>
<feGaussianBlur in="BackgroundImage" stdDeviation="8"/>
<feComposite in2="SourceAlpha" operator="in" result="effect1_backgroundBlur_557_10142"/>
<feBlend mode="normal" in="SourceGraphic" in2="effect1_backgroundBlur_557_10142" result="shape"/>
</filter>
</defs>
</svg>
