<svg width="290" height="242" viewBox="0 0 290 242" fill="none" xmlns="http://www.w3.org/2000/svg">
<g filter="url(#filter0_b_557_10157)">
<rect width="290" height="242" rx="16" fill="white" fill-opacity="0.16"/>
<g clip-path="url(#clip0_557_10157)">
<path d="M65.6045 51.01C65.6045 49.62 66.7196 48.52 68.0837 48.52H96.6992C98.0832 48.52 99.1784 49.64 99.1784 51.01V79.75C99.1784 81.14 98.0633 82.24 96.6992 82.24H68.0837C66.6997 82.24 65.6045 81.12 65.6045 79.75V51.01Z" fill="#0B63CE"/>
<path d="M70.583 54.15C70.583 53.79 70.8518 53.52 71.2103 53.52H74.9341C75.2925 53.52 75.5613 53.79 75.5613 54.15V57.89C75.5613 58.25 75.2925 58.52 74.9341 58.52H71.2103C70.8518 58.52 70.583 58.25 70.583 57.89V54.15V54.15Z" fill="white"/>
<path d="M77.4129 53.52C77.0545 53.52 76.7856 53.79 76.7856 54.15V57.89C76.7856 58.25 77.0545 58.52 77.4129 58.52H81.1367C81.4952 58.52 81.764 58.25 81.764 57.89V54.15C81.764 53.79 81.4952 53.52 81.1367 53.52H77.4129Z" fill="white"/>
<path d="M83.0088 54.15C83.0088 53.79 83.2776 53.52 83.6361 53.52H87.3599C87.7183 53.52 87.9871 53.79 87.9871 54.15V57.89C87.9871 58.25 87.7183 58.52 87.3599 58.52H83.6361C83.2776 58.52 83.0088 58.25 83.0088 57.89V54.15Z" fill="white"/>
<path d="M71.2103 59.78C70.8518 59.78 70.583 60.05 70.583 60.41V64.15C70.583 64.51 70.8518 64.78 71.2103 64.78H74.9341C75.2925 64.78 75.5613 64.51 75.5613 64.15V60.41C75.5613 60.05 75.2925 59.78 74.9341 59.78H71.2103V59.78Z" fill="white"/>
<path d="M76.7856 60.38C76.7856 60.02 77.0545 59.75 77.4129 59.75H81.1367C81.4952 59.75 81.764 60.02 81.764 60.38V64.15C81.764 64.51 81.4952 64.78 81.1367 64.78H77.4129C77.0545 64.78 76.7856 64.51 76.7856 64.15V60.38V60.38Z" fill="white"/>
<path d="M89.869 59.78C89.5105 59.78 89.2417 60.05 89.2417 60.41V64.15C89.2417 64.51 89.5105 64.78 89.869 64.78H93.5928C93.9512 64.78 94.22 64.51 94.22 64.15V60.41C94.22 60.05 93.9512 59.78 93.5928 59.78H89.869V59.78Z" fill="white"/>
<path d="M70.583 66.64C70.583 66.28 70.8518 66.01 71.2103 66.01H74.9341C75.2925 66.01 75.5613 66.28 75.5613 66.64V70.38C75.5613 70.74 75.2925 71.01 74.9341 71.01H71.2103C70.8518 71.01 70.583 70.74 70.583 70.38V66.64V66.64Z" fill="white"/>
<path d="M83.6361 66.01C83.2776 66.01 83.0088 66.28 83.0088 66.64V70.38C83.0088 70.74 83.2776 71.01 83.6361 71.01H87.3599C87.7183 71.01 87.9871 70.74 87.9871 70.38V66.64C87.9871 66.28 87.7183 66.01 87.3599 66.01H83.6361Z" fill="white"/>
<path d="M89.2417 66.64C89.2417 66.28 89.5105 66.01 89.869 66.01H93.5928C93.9512 66.01 94.22 66.28 94.22 66.64V70.38C94.22 70.74 93.9512 71.01 93.5928 71.01H89.869C89.5105 71.01 89.2417 70.74 89.2417 70.38V66.64Z" fill="white"/>
<path d="M77.4129 72.26C77.0545 72.26 76.7856 72.53 76.7856 72.89V76.63C76.7856 76.99 77.0545 77.26 77.4129 77.26H81.1367C81.4952 77.26 81.764 76.99 81.764 76.63V72.89C81.764 72.53 81.4952 72.26 81.1367 72.26H77.4129V72.26Z" fill="white"/>
<path d="M83.0088 72.89C83.0088 72.53 83.2776 72.26 83.6361 72.26H87.3599C87.7183 72.26 87.9871 72.53 87.9871 72.89V76.63C87.9871 76.99 87.7183 77.26 87.3599 77.26H83.6361C83.2776 77.26 83.0088 76.99 83.0088 76.63V72.89V72.89Z" fill="white"/>
<path d="M89.869 72.26C89.5105 72.26 89.2417 72.53 89.2417 72.89V76.63C89.2417 76.99 89.5105 77.26 89.869 77.26H93.5928C93.9512 77.26 94.22 76.99 94.22 76.63V72.89C94.22 72.53 93.9512 72.26 93.5928 72.26H89.869V72.26Z" fill="white"/>
<path d="M126.808 79.59H112.063V48.96C112.063 48.77 111.923 48.66 111.764 48.66H109.454C109.265 48.66 109.155 48.8 109.155 48.96V81.83C109.155 82.02 109.295 82.13 109.454 82.13H126.808C126.998 82.13 127.107 81.99 127.107 81.83V79.84C127.137 79.7 126.998 79.59 126.808 79.59V79.59ZM148.653 57.57H143.426V52.7C143.426 49.26 144.541 47.56 146.851 47.56C147.777 47.56 148.733 47.81 149.599 48.19C149.649 48.24 149.788 48.24 149.848 48.19L150.037 48L150.665 46.2C150.714 46.06 150.665 45.9 150.476 45.82C149.311 45.33 147.996 45 146.861 45C142.889 45 140.628 47.68 140.628 52.49V57.54L137.631 57.73C137.442 57.73 137.333 57.87 137.333 58.03V59.72C137.333 59.91 137.472 60.02 137.631 60.02H140.628V81.77C140.628 81.96 140.768 82.07 140.927 82.07H143.108C143.297 82.07 143.406 81.93 143.406 81.77V60.03H148.634C148.823 60.03 148.932 59.89 148.932 59.73V57.79C148.962 57.71 148.853 57.57 148.663 57.57H148.653ZM159.964 56.97C154.797 56.97 149.271 61.53 149.271 69.89C149.271 77.46 153.95 82.76 160.582 82.76C164.116 82.76 166.297 81.59 168.308 80.38C168.447 80.33 168.497 80.13 168.447 79.94L167.521 78.25C167.472 78.2 167.382 78.11 167.332 78.11C167.282 78.11 167.143 78.11 167.083 78.16C165.102 79.61 163.111 80.21 160.85 80.21C155.822 80.21 152.387 76.28 152.198 70.46H169.065C169.204 70.46 169.314 70.32 169.363 70.21C169.503 69.58 169.503 68.9 169.503 68.32C169.363 61.19 165.888 56.96 159.954 56.96L159.964 56.97ZM152.128 68.01C152.696 62.96 155.852 59.46 159.964 59.46C164.076 59.46 166.625 62.52 166.685 68.01H152.128ZM185.284 57.52C184.547 57.14 183.791 57.03 182.805 57.03C180.326 57.03 177.966 58.59 176.144 61.54L175.955 57.91C175.955 57.72 175.815 57.61 175.656 57.61H173.774C173.585 57.61 173.475 57.75 173.475 57.91V81.9C173.475 82.09 173.615 82.2 173.774 82.2H175.955C176.144 82.2 176.253 82.06 176.253 81.9V65.63C177.747 61.89 180.057 59.7 182.486 59.7C183.352 59.7 183.741 59.84 184.527 60.08H184.776C184.826 60.03 184.916 59.94 184.916 59.89L185.404 57.9C185.483 57.71 185.433 57.57 185.294 57.52H185.284ZM204.949 57.57H203.017C202.828 57.57 202.718 57.71 202.718 57.87L202.579 59.67C200.538 58.06 198.526 56.99 195.669 56.99C189.326 56.99 184.786 62.43 184.786 69.91C184.786 77.97 188.59 82.78 194.982 82.78C197.591 82.78 200.209 81.61 202.629 79.34L202.818 81.91C202.818 82.1 202.957 82.21 203.116 82.21H204.998C205.187 82.21 205.297 82.07 205.297 81.91V57.84C205.247 57.7 205.138 57.57 204.939 57.57H204.949ZM202.449 62.46V76.39C199.891 79.01 197.66 80.13 195.3 80.13C190.571 80.13 187.714 76.25 187.714 69.83C187.714 64.01 191.248 59.45 195.788 59.45C198.178 59.5 200.169 60.38 202.449 62.46V62.46ZM228.695 57.71C228.645 57.66 228.556 57.57 228.446 57.57H226.216C226.077 57.57 225.967 57.62 225.917 57.76L220.8 72.81C220.551 73.63 220.232 74.5 219.983 75.38C219.605 76.64 219.167 77.87 218.818 79.01C218.33 77.75 217.813 76.39 217.325 75.08C217.026 74.26 216.697 73.52 216.458 72.76L210.743 57.71C210.694 57.57 210.554 57.52 210.445 57.52H208.075C207.936 57.52 207.886 57.57 207.826 57.66C207.776 57.71 207.776 57.85 207.826 57.96L217.594 82.27L216.966 84.26C216.04 87.07 214.298 90.38 211.122 90.38C210.494 90.38 209.758 90.19 209.24 90H208.991L208.802 90.19L208.314 92.13C208.264 92.27 208.364 92.43 208.503 92.51C209.18 92.81 210.186 93 211.062 93C214.736 93 217.594 90.19 219.386 84.89L228.775 57.9C228.825 57.9 228.775 57.76 228.695 57.71V57.71ZM133.031 52.13C133.41 52.13 133.708 51.83 133.708 51.45V49.21C133.708 48.83 133.41 48.53 133.031 48.53H130.801C130.423 48.53 130.124 48.83 130.124 49.21V51.45C130.124 51.83 130.423 52.13 130.801 52.13H133.031ZM130.801 57.57H132.982C133.171 57.57 133.28 57.71 133.28 57.87V81.86C133.28 82.05 133.141 82.16 132.982 82.16H130.801C130.612 82.16 130.502 82.02 130.502 81.86V57.87C130.473 57.71 130.612 57.57 130.801 57.57V57.57Z" fill="white"/>
</g>
<line x1="97.2046" y1="124.5" x2="197.205" y2="124.5" stroke="#F1F5F9"/>
<path d="M75.1579 192.556H72.4912L60 157.468H65.5205L73.8947 182.216L82.7368 157.468H85.4035L94.2456 182.216L102.62 157.468H108.187L95.6959 192.556H93.0292L84.0936 167.901L75.1579 192.556ZM122.082 173C118.105 173 114.877 176.322 114.877 181.047C114.877 185.725 118.105 189.094 122.082 189.094C126.058 189.094 129.287 185.725 129.287 181.047C129.287 176.322 126.058 173 122.082 173V173ZM122.082 169.023C128.725 169.023 134.105 174.17 134.105 181.047C134.105 187.924 128.725 193.023 122.082 193.023C115.439 193.023 110.058 187.924 110.058 181.047C110.058 174.17 115.439 169.023 122.082 169.023V169.023ZM153.146 169.725L152.117 173.515C151.789 173.327 150.76 173 149.918 173C145.942 173 144.07 176.789 144.07 181.468V192.556H139.251V169.444H144.07V172.719C144.632 170.567 147.111 169.023 149.871 169.023C151.135 169.023 152.491 169.351 153.146 169.725ZM155.018 181.047C155.018 174.17 159.93 169.023 166.573 169.023C168.866 169.023 171.673 170.006 173.216 171.269V157.468H178.082V192.556H173.216V190.825C171.392 192.181 168.866 193.023 166.573 193.023C159.93 193.023 155.018 187.924 155.018 181.047V181.047ZM159.883 181.047C159.883 185.725 163.111 189.094 167.041 189.094C169.661 189.094 172 187.877 173.216 185.398C173.871 184.135 174.246 182.637 174.246 181.047C174.246 179.456 173.871 177.959 173.216 176.649C172 174.17 169.661 173 167.041 173C163.111 173 159.883 176.322 159.883 181.047V181.047ZM190.152 169.444V192.556H185.333V169.444H190.152ZM190.386 160.977C190.386 162.474 189.216 163.643 187.719 163.643C186.269 163.643 185.099 162.474 185.099 160.977C185.099 159.526 186.269 158.357 187.719 158.357C189.216 158.357 190.386 159.526 190.386 160.977ZM210.129 161.444C209.427 161.117 208.257 160.696 206.76 161.304C204.468 162.333 204.094 163.269 204.094 167.105V169.444H210.129V173.374H204.094V192.556H199.275V173.374H196.468V169.444H199.275V167.105C199.275 163.456 199.275 162.614 200.678 160.322C202.175 157.842 204.608 157 207.368 157C208.632 157 209.52 157.327 210.129 157.702V161.444V161.444ZM234.409 169.444C234.409 169.444 228.561 183.292 224.678 192.556C221.404 200.322 218.83 205 214.48 205C213.123 205 211.392 204.345 210.129 203.596L211.579 199.386C211.953 199.713 212.795 200.181 213.357 200.322C216.959 201.351 219.205 193.819 220.749 190.123L212 169.444H216.866L223.228 184.602L229.544 169.444H234.409V169.444Z" fill="#33C0CB"/>
</g>
<defs>
<filter id="filter0_b_557_10157" x="-16" y="-16" width="322" height="274" filterUnits="userSpaceOnUse" color-interpolation-filters="sRGB">
<feFlood flood-opacity="0" result="BackgroundImageFix"/>
<feGaussianBlur in="BackgroundImage" stdDeviation="8"/>
<feComposite in2="SourceAlpha" operator="in" result="effect1_backgroundBlur_557_10157"/>
<feBlend mode="normal" in="SourceGraphic" in2="effect1_backgroundBlur_557_10157" result="shape"/>
</filter>
<clipPath id="clip0_557_10157">
<rect width="163.2" height="48" fill="white" transform="translate(65.6045 45)"/>
</clipPath>
</defs>
</svg>
