<svg width="290" height="242" viewBox="0 0 290 242" fill="none" xmlns="http://www.w3.org/2000/svg">
<g filter="url(#filter0_b_557_10172)">
<rect width="290" height="242" rx="16" fill="white" fill-opacity="0.16"/>
<g clip-path="url(#clip0_557_10172)">
<path d="M98.5017 55.03C92.1289 55.03 87.0306 60.26 87.0306 66.55C87.0306 72.84 92.2384 78.07 98.5017 78.07C104.765 78.07 109.973 72.84 109.973 66.55C110.082 60.26 104.875 55.03 98.5017 55.03V55.03ZM98.5017 71.67C95.7435 71.67 93.513 69.43 93.513 66.66C93.513 63.89 95.7435 61.65 98.5017 61.65C101.26 61.65 103.491 63.89 103.491 66.66C103.491 69.43 101.26 71.67 98.5017 71.67ZM85.5469 93C82.7886 93 80.5581 90.76 80.5581 87.99C80.5581 85.22 82.7886 82.98 85.5469 82.98C88.3051 82.98 90.5356 85.22 90.5356 87.99C90.5356 90.76 88.3051 93 85.5469 93Z" fill="#EE1D3E"/>
<path d="M83.207 74.33C81.086 76.78 77.8996 78.17 74.4941 78.17C68.3303 78.17 62.5947 73.69 62.5947 66.54C62.5947 60.35 67.3744 55.02 73.9564 55.02C77.6706 55.02 80.4388 56.51 82.3507 58.43L80.6479 60.46C79.0547 58.86 76.8242 57.69 73.9564 57.69C69.2863 57.69 65.2435 61.53 65.2435 66.65C65.2435 71.77 69.0672 75.61 74.275 75.61C76.8242 75.61 79.1642 74.54 81.0761 72.52L83.1971 74.33H83.207Z" fill="white"/>
<path d="M125.806 57.69H124.531C121.554 57.69 118.795 59.72 117.63 62.6V77.75H114.872V55.56H117.63V58.44C118.696 56.84 121.135 55.03 124.641 55.03C125.069 55.03 126.025 55.03 126.234 55.14L125.806 57.7V57.69Z" fill="white"/>
<path d="M148.529 74.12C146.936 76.25 143.75 78.17 139.498 78.17C133.334 78.17 128.455 73.48 128.455 66.65C128.455 60.25 132.806 55.13 138.97 55.13C145.134 55.13 149.276 59.82 149.276 66.01V66.97H131.223C131.432 71.66 134.519 75.72 139.508 75.72C142.375 75.72 144.815 74.55 146.518 72.41L148.539 74.12H148.529ZM131.432 64.31H146.518C145.99 60.47 142.903 57.7 139.079 57.7C135.146 57.7 132.179 60.47 131.432 64.31Z" fill="white"/>
<path d="M162.868 76.04C160 74.01 158.198 70.6 158.198 66.55C158.198 62.82 159.791 59.62 162.34 57.48C164.142 55.99 166.692 55.03 169.35 55.03C172.427 55.03 175.295 56.2 177.316 58.44V45H180.075V77.64H177.416V74.33C175.823 76.57 172.955 78.06 169.45 78.06C167.329 78.17 165.098 77.63 162.868 76.03V76.04ZM177.316 62.17C176.36 60.57 173.493 57.69 169.35 57.69C167.548 57.69 165.527 58.33 164.043 59.61C162.131 61.21 160.966 63.77 160.966 66.65C160.966 69.74 162.35 72.41 164.471 73.9C165.855 74.86 167.548 75.5 169.46 75.5C172.756 75.5 175.624 73.69 177.316 70.59V62.16V62.17Z" fill="white"/>
<path d="M188.041 58.65C189.843 56.3 192.711 55.02 195.798 55.02C198.885 55.02 201.852 56.3 203.654 58.75C204.819 60.35 205.566 62.16 205.566 65.79V77.63H202.808V66C202.808 63.12 202.28 61.63 201.533 60.56C200.259 58.75 198.237 57.57 195.798 57.57C192.611 57.57 189.853 59.28 188.15 62.16V77.52H185.392V55.56H188.051V58.65H188.041Z" fill="white"/>
<path d="M229.146 77.64V74.33C227.553 76.57 224.685 78.06 221.18 78.06C219.059 78.06 216.828 77.53 214.598 75.93C211.73 73.9 209.928 70.49 209.928 66.44C209.928 62.71 211.521 59.51 214.07 57.37C215.872 55.88 218.422 54.92 221.08 54.92C224.267 54.92 227.135 56.2 229.156 58.44V55.56H231.815V77.75H229.156V77.64H229.146ZM229.036 62.17C228.081 60.57 225.213 57.69 221.07 57.69C219.268 57.69 217.247 58.33 215.763 59.61C213.851 61.21 212.686 63.77 212.686 66.65C212.686 69.74 214.07 72.41 216.191 73.9C217.575 74.86 219.268 75.5 221.18 75.5C224.476 75.5 227.344 73.69 229.036 70.59V62.16V62.17Z" fill="white"/>
</g>
<line x1="97.2046" y1="124.5" x2="197.205" y2="124.5" stroke="#F1F5F9"/>
<path d="M75.1579 192.556H72.4912L60 157.468H65.5205L73.8947 182.216L82.7368 157.468H85.4035L94.2456 182.216L102.62 157.468H108.187L95.6959 192.556H93.0292L84.0936 167.901L75.1579 192.556ZM122.082 173C118.105 173 114.877 176.322 114.877 181.047C114.877 185.725 118.105 189.094 122.082 189.094C126.058 189.094 129.287 185.725 129.287 181.047C129.287 176.322 126.058 173 122.082 173V173ZM122.082 169.023C128.725 169.023 134.105 174.17 134.105 181.047C134.105 187.924 128.725 193.023 122.082 193.023C115.439 193.023 110.058 187.924 110.058 181.047C110.058 174.17 115.439 169.023 122.082 169.023V169.023ZM153.146 169.725L152.117 173.515C151.789 173.327 150.76 173 149.918 173C145.942 173 144.07 176.789 144.07 181.468V192.556H139.251V169.444H144.07V172.719C144.632 170.567 147.111 169.023 149.871 169.023C151.135 169.023 152.491 169.351 153.146 169.725ZM155.018 181.047C155.018 174.17 159.93 169.023 166.573 169.023C168.866 169.023 171.673 170.006 173.216 171.269V157.468H178.082V192.556H173.216V190.825C171.392 192.181 168.866 193.023 166.573 193.023C159.93 193.023 155.018 187.924 155.018 181.047V181.047ZM159.883 181.047C159.883 185.725 163.111 189.094 167.041 189.094C169.661 189.094 172 187.877 173.216 185.398C173.871 184.135 174.246 182.637 174.246 181.047C174.246 179.456 173.871 177.959 173.216 176.649C172 174.17 169.661 173 167.041 173C163.111 173 159.883 176.322 159.883 181.047V181.047ZM190.152 169.444V192.556H185.333V169.444H190.152ZM190.386 160.977C190.386 162.474 189.216 163.643 187.719 163.643C186.269 163.643 185.099 162.474 185.099 160.977C185.099 159.526 186.269 158.357 187.719 158.357C189.216 158.357 190.386 159.526 190.386 160.977ZM210.129 161.444C209.427 161.117 208.257 160.696 206.76 161.304C204.468 162.333 204.094 163.269 204.094 167.105V169.444H210.129V173.374H204.094V192.556H199.275V173.374H196.468V169.444H199.275V167.105C199.275 163.456 199.275 162.614 200.678 160.322C202.175 157.842 204.608 157 207.368 157C208.632 157 209.52 157.327 210.129 157.702V161.444V161.444ZM234.409 169.444C234.409 169.444 228.561 183.292 224.678 192.556C221.404 200.322 218.83 205 214.48 205C213.123 205 211.392 204.345 210.129 203.596L211.579 199.386C211.953 199.713 212.795 200.181 213.357 200.322C216.959 201.351 219.205 193.819 220.749 190.123L212 169.444H216.866L223.228 184.602L229.544 169.444H234.409V169.444Z" fill="#33C0CB"/>
</g>
<defs>
<filter id="filter0_b_557_10172" x="-16" y="-16" width="322" height="274" filterUnits="userSpaceOnUse" color-interpolation-filters="sRGB">
<feFlood flood-opacity="0" result="BackgroundImageFix"/>
<feGaussianBlur in="BackgroundImage" stdDeviation="8"/>
<feComposite in2="SourceAlpha" operator="in" result="effect1_backgroundBlur_557_10172"/>
<feBlend mode="normal" in="SourceGraphic" in2="effect1_backgroundBlur_557_10172" result="shape"/>
</filter>
<clipPath id="clip0_557_10172">
<rect width="169.2" height="48" fill="white" transform="translate(62.6045 45)"/>
</clipPath>
</defs>
</svg>
