<svg width="510" height="425" viewBox="0 0 510 425" fill="none" xmlns="http://www.w3.org/2000/svg">
<g clip-path="url(#clip0_540_9885)">
<path d="M28.4343 178.56L29.068 177.787L28.3982 177.238L27.7593 177.823L28.4343 178.56ZM35.3838 184.253L34.7502 185.027L35.4609 185.609L36.1011 184.95L35.3838 184.253ZM57.9999 161.985C57.9919 161.433 57.5377 160.992 56.9855 161L47.9864 161.131C47.4342 161.139 46.993 161.593 47.0011 162.145C47.0091 162.697 47.4632 163.139 48.0155 163.131L56.0146 163.014L56.1307 171.014C56.1387 171.566 56.5929 172.007 57.1451 171.999C57.6974 171.991 58.1385 171.537 58.1305 170.985L57.9999 161.985ZM5.67501 200.738L29.1094 179.298L27.7593 177.823L4.32499 199.262L5.67501 200.738ZM27.8007 179.334L34.7502 185.027L36.0175 183.479L29.068 177.787L27.8007 179.334ZM36.1011 184.95L57.7173 162.697L56.2827 161.303L34.6665 183.556L36.1011 184.95Z" fill="url(#paint0_linear_540_9885)"/>
<path d="M462.434 150.56L463.068 149.787L462.398 149.238L461.759 149.823L462.434 150.56ZM469.384 156.253L468.75 157.027L469.461 157.609L470.101 156.95L469.384 156.253ZM492 133.985C491.992 133.433 491.538 132.992 490.985 133L481.986 133.131C481.434 133.139 480.993 133.593 481.001 134.145C481.009 134.697 481.463 135.139 482.015 135.131L490.015 135.014L490.131 143.014C490.139 143.566 490.593 144.007 491.145 143.999C491.697 143.991 492.139 143.537 492.131 142.985L492 133.985ZM439.675 172.738L463.109 151.298L461.759 149.823L438.325 171.262L439.675 172.738ZM461.801 151.334L468.75 157.027L470.018 155.479L463.068 149.787L461.801 151.334ZM470.101 156.95L491.717 134.697L490.283 133.303L468.667 155.556L470.101 156.95Z" fill="url(#paint1_linear_540_9885)"/>
<path d="M48.7141 75.9416L49.9827 74.3955L48.6417 73.2952L47.3628 74.4671L48.7141 75.9416ZM61.6775 86.5778L60.4089 88.124L61.8319 89.2915L63.1133 87.9702L61.6775 86.5778ZM104 44.9693C103.983 43.8649 103.074 42.9833 101.969 43.0002L83.9715 43.2761C82.867 43.293 81.9854 44.2021 82.0023 45.3065C82.0193 46.411 82.9283 47.2926 84.0328 47.2756L100.031 47.0304L100.276 63.0285C100.293 64.133 101.202 65.0146 102.307 64.9977C103.411 64.9807 104.293 64.0717 104.276 62.9672L104 44.9693ZM6.35121 117.475L50.0653 77.4162L47.3628 74.4671L3.64879 114.525L6.35121 117.475ZM47.4455 77.4878L60.4089 88.124L62.9461 85.0316L49.9827 74.3955L47.4455 77.4878ZM63.1133 87.9702L103.436 46.3924L100.564 43.6076L60.2418 85.1854L63.1133 87.9702Z" fill="url(#paint2_linear_540_9885)"/>
<path d="M258.714 45.9416L259.983 44.3955L258.642 43.2952L257.363 44.4671L258.714 45.9416ZM271.678 56.5778L270.409 58.124L271.832 59.2915L273.113 57.9702L271.678 56.5778ZM314 14.9693C313.983 13.8649 313.074 12.9833 311.969 13.0002L293.971 13.2761C292.867 13.293 291.985 14.2021 292.002 15.3065C292.019 16.411 292.928 17.2926 294.033 17.2756L310.031 17.0304L310.276 33.0285C310.293 34.133 311.202 35.0146 312.307 34.9977C313.411 34.9807 314.293 34.0717 314.276 32.9672L314 14.9693ZM216.351 87.4745L260.065 47.4162L257.363 44.4671L213.649 84.5255L216.351 87.4745ZM257.445 47.4878L270.409 58.124L272.946 55.0316L259.983 44.3955L257.445 47.4878ZM273.113 57.9702L313.436 16.3924L310.564 13.6076L270.242 55.1854L273.113 57.9702Z" fill="url(#paint3_linear_540_9885)"/>
<path d="M202.31 47.1491L57.2631 74.3345C55.3711 74.6891 54 76.3411 54 78.2661V374.091C54 376.625 56.326 378.52 58.8077 378.009L202.234 348.439C202.808 348.321 203.401 348.33 203.971 348.466L330.799 378.774C331.421 378.922 332.069 378.92 332.69 378.766L452.961 349.011C454.746 348.569 456 346.967 456 345.128V51.9996C456 49.4364 453.623 47.5346 451.122 48.097L332.608 74.7521C332.04 74.8799 331.451 74.8821 330.881 74.7584L203.896 47.1718C203.374 47.0584 202.835 47.0507 202.31 47.1491Z" fill="url(#paint4_linear_540_9885)" stroke="#33C0CB" stroke-width="2"/>
<path opacity="0.2" d="M332 75V379" stroke="#33C0CB" stroke-width="2"/>
<path opacity="0.2" d="M203 47V348.5" stroke="#33C0CB" stroke-width="2"/>
<path fill-rule="evenodd" clip-rule="evenodd" d="M122.997 290.556C123.921 289.18 125.785 288.814 127.16 289.738C128.535 290.662 128.901 292.526 127.978 293.901L116.76 310.601L133.745 321.382C135.144 322.27 135.558 324.124 134.67 325.522C133.783 326.921 131.929 327.336 130.53 326.448L113.413 315.584L102.108 332.413C101.184 333.788 99.3199 334.154 97.9446 333.23C96.5692 332.306 96.2032 330.443 97.1271 329.067L108.345 312.367L91.3596 301.587C89.9607 300.699 89.5464 298.845 90.4343 297.446C91.3221 296.047 93.1759 295.633 94.5748 296.521L111.692 307.385L122.997 290.556Z" fill="#33C0CB"/>
<path fill-rule="evenodd" clip-rule="evenodd" d="M341.179 214.851C342.366 213.695 344.265 213.72 345.421 214.906C346.578 216.093 346.553 217.992 345.366 219.149L336.935 227.364L345.366 235.579C346.553 236.735 346.578 238.634 345.421 239.821C344.265 241.008 342.366 241.032 341.179 239.876L332.636 231.552L324.094 239.876C322.907 241.032 321.008 241.008 319.851 239.821C318.695 238.634 318.72 236.735 319.906 235.579L328.338 227.364L319.906 219.149C318.72 217.992 318.695 216.093 319.851 214.906C321.008 213.72 322.907 213.695 324.094 214.851L332.636 223.175L341.179 214.851Z" fill="#33C0CB"/>
<path d="M434 85C428.477 85 424 80.523 424 75C424 69.477 428.477 65 434 65C439.523 65 444 69.477 444 75C444 80.523 439.523 85 434 85ZM429.013 81.256C430.429 82.3877 432.188 83.0029 434 83C435.97 83 437.773 82.288 439.167 81.108C438.516 80.4397 437.737 79.9089 436.877 79.5468C436.017 79.1847 435.093 78.9988 434.16 79C433.193 78.9989 432.236 79.1989 431.349 79.5872C430.463 79.9756 429.668 80.5439 429.013 81.256V81.256ZM427.616 79.82C428.456 78.9281 429.471 78.2177 430.596 77.7327C431.722 77.2477 432.934 76.9984 434.16 77C435.342 76.9985 436.512 77.2304 437.604 77.6824C438.696 78.1344 439.687 78.7976 440.522 79.634C441.378 78.4291 441.884 77.0106 441.983 75.5359C442.082 74.0612 441.77 72.5879 441.082 71.2795C440.395 69.971 439.359 68.8786 438.088 68.1234C436.817 67.3683 435.362 66.9798 433.885 67.0013C432.407 67.0227 430.964 67.4531 429.716 68.2448C428.467 69.0364 427.463 70.1584 426.814 71.4862C426.164 72.814 425.896 74.2957 426.037 75.7669C426.179 77.2382 426.725 78.6414 427.616 79.821V79.82ZM434 76C432.939 76 431.922 75.5786 431.172 74.8284C430.421 74.0783 430 73.0609 430 72C430 70.9391 430.421 69.9217 431.172 69.1716C431.922 68.4214 432.939 68 434 68C435.061 68 436.078 68.4214 436.828 69.1716C437.579 69.9217 438 70.9391 438 72C438 73.0609 437.579 74.0783 436.828 74.8284C436.078 75.5786 435.061 76 434 76ZM434 74C434.53 74 435.039 73.7893 435.414 73.4142C435.789 73.0391 436 72.5304 436 72C436 71.4696 435.789 70.9609 435.414 70.5858C435.039 70.2107 434.53 70 434 70C433.47 70 432.961 70.2107 432.586 70.5858C432.211 70.9609 432 71.4696 432 72C432 72.5304 432.211 73.0391 432.586 73.4142C432.961 73.7893 433.47 74 434 74Z" fill="#E2E8F0"/>
<path d="M354 109C348.477 109 344 104.523 344 99C344 93.477 348.477 89 354 89C359.523 89 364 93.477 364 99C364 104.523 359.523 109 354 109ZM349.013 105.256C350.429 106.388 352.188 107.003 354 107C355.97 107 357.773 106.288 359.167 105.108C358.516 104.44 357.737 103.909 356.877 103.547C356.017 103.185 355.093 102.999 354.16 103C353.193 102.999 352.236 103.199 351.349 103.587C350.463 103.976 349.668 104.544 349.013 105.256V105.256ZM347.616 103.82C348.456 102.928 349.471 102.218 350.596 101.733C351.722 101.248 352.934 100.998 354.16 101C355.342 100.998 356.512 101.23 357.604 101.682C358.696 102.134 359.687 102.798 360.522 103.634C361.378 102.429 361.884 101.011 361.983 99.5359C362.082 98.0612 361.77 96.5879 361.082 95.2795C360.395 93.971 359.359 92.8786 358.088 92.1234C356.817 91.3683 355.362 90.9798 353.885 91.0013C352.407 91.0227 350.964 91.4531 349.716 92.2448C348.467 93.0364 347.463 94.1584 346.814 95.4862C346.164 96.814 345.896 98.2957 346.037 99.7669C346.179 101.238 346.725 102.641 347.616 103.821V103.82ZM354 100C352.939 100 351.922 99.5786 351.172 98.8284C350.421 98.0783 350 97.0609 350 96C350 94.9391 350.421 93.9217 351.172 93.1716C351.922 92.4214 352.939 92 354 92C355.061 92 356.078 92.4214 356.828 93.1716C357.579 93.9217 358 94.9391 358 96C358 97.0609 357.579 98.0783 356.828 98.8284C356.078 99.5786 355.061 100 354 100ZM354 98C354.53 98 355.039 97.7893 355.414 97.4142C355.789 97.0391 356 96.5304 356 96C356 95.4696 355.789 94.9609 355.414 94.5858C355.039 94.2107 354.53 94 354 94C353.47 94 352.961 94.2107 352.586 94.5858C352.211 94.9609 352 95.4696 352 96C352 96.5304 352.211 97.0391 352.586 97.4142C352.961 97.7893 353.47 98 354 98Z" fill="#E2E8F0"/>
<path d="M394 97C388.477 97 384 92.523 384 87C384 81.477 388.477 77 394 77C399.523 77 404 81.477 404 87C404 92.523 399.523 97 394 97ZM389.013 93.256C390.429 94.3877 392.188 95.0029 394 95C395.97 95 397.773 94.288 399.167 93.108C398.516 92.4397 397.737 91.9089 396.877 91.5468C396.017 91.1847 395.093 90.9988 394.16 91C393.193 90.9989 392.236 91.1989 391.349 91.5872C390.463 91.9756 389.668 92.5439 389.013 93.256V93.256ZM387.616 91.82C388.456 90.9281 389.471 90.2177 390.596 89.7327C391.722 89.2477 392.934 88.9984 394.16 89C395.342 88.9985 396.512 89.2304 397.604 89.6824C398.696 90.1344 399.687 90.7976 400.522 91.634C401.378 90.4291 401.884 89.0106 401.983 87.5359C402.082 86.0612 401.77 84.5879 401.082 83.2795C400.395 81.971 399.359 80.8786 398.088 80.1234C396.817 79.3683 395.362 78.9798 393.885 79.0013C392.407 79.0227 390.964 79.4531 389.716 80.2448C388.467 81.0364 387.463 82.1584 386.814 83.4862C386.164 84.814 385.896 86.2957 386.037 87.7669C386.179 89.2382 386.725 90.6414 387.616 91.821V91.82ZM394 88C392.939 88 391.922 87.5786 391.172 86.8284C390.421 86.0783 390 85.0609 390 84C390 82.9391 390.421 81.9217 391.172 81.1716C391.922 80.4214 392.939 80 394 80C395.061 80 396.078 80.4214 396.828 81.1716C397.579 81.9217 398 82.9391 398 84C398 85.0609 397.579 86.0783 396.828 86.8284C396.078 87.5786 395.061 88 394 88ZM394 86C394.53 86 395.039 85.7893 395.414 85.4142C395.789 85.0391 396 84.5304 396 84C396 83.4696 395.789 82.9609 395.414 82.5858C395.039 82.2107 394.53 82 394 82C393.47 82 392.961 82.2107 392.586 82.5858C392.211 82.9609 392 83.4696 392 84C392 84.5304 392.211 85.0391 392.586 85.4142C392.961 85.7893 393.47 86 394 86Z" fill="#E2E8F0"/>
<path d="M373 145C367.477 145 363 140.523 363 135C363 129.477 367.477 125 373 125C378.523 125 383 129.477 383 135C383 140.523 378.523 145 373 145ZM368.013 141.256C369.429 142.388 371.188 143.003 373 143C374.97 143 376.773 142.288 378.167 141.108C377.516 140.44 376.737 139.909 375.877 139.547C375.017 139.185 374.093 138.999 373.16 139C372.193 138.999 371.236 139.199 370.349 139.587C369.463 139.976 368.668 140.544 368.013 141.256V141.256ZM366.616 139.82C367.456 138.928 368.471 138.218 369.596 137.733C370.722 137.248 371.934 136.998 373.16 137C374.342 136.998 375.512 137.23 376.604 137.682C377.696 138.134 378.687 138.798 379.522 139.634C380.378 138.429 380.884 137.011 380.983 135.536C381.082 134.061 380.77 132.588 380.082 131.279C379.395 129.971 378.359 128.879 377.088 128.123C375.817 127.368 374.362 126.98 372.885 127.001C371.407 127.023 369.964 127.453 368.716 128.245C367.467 129.036 366.463 130.158 365.814 131.486C365.164 132.814 364.896 134.296 365.037 135.767C365.179 137.238 365.725 138.641 366.616 139.821V139.82ZM373 136C371.939 136 370.922 135.579 370.172 134.828C369.421 134.078 369 133.061 369 132C369 130.939 369.421 129.922 370.172 129.172C370.922 128.421 371.939 128 373 128C374.061 128 375.078 128.421 375.828 129.172C376.579 129.922 377 130.939 377 132C377 133.061 376.579 134.078 375.828 134.828C375.078 135.579 374.061 136 373 136ZM373 134C373.53 134 374.039 133.789 374.414 133.414C374.789 133.039 375 132.53 375 132C375 131.47 374.789 130.961 374.414 130.586C374.039 130.211 373.53 130 373 130C372.47 130 371.961 130.211 371.586 130.586C371.211 130.961 371 131.47 371 132C371 132.53 371.211 133.039 371.586 133.414C371.961 133.789 372.47 134 373 134Z" fill="#E2E8F0"/>
<path d="M414 133C408.477 133 404 128.523 404 123C404 117.477 408.477 113 414 113C419.523 113 424 117.477 424 123C424 128.523 419.523 133 414 133ZM409.013 129.256C410.429 130.388 412.188 131.003 414 131C415.97 131 417.773 130.288 419.167 129.108C418.516 128.44 417.737 127.909 416.877 127.547C416.017 127.185 415.093 126.999 414.16 127C413.193 126.999 412.236 127.199 411.349 127.587C410.463 127.976 409.668 128.544 409.013 129.256V129.256ZM407.616 127.82C408.456 126.928 409.471 126.218 410.596 125.733C411.722 125.248 412.934 124.998 414.16 125C415.342 124.998 416.512 125.23 417.604 125.682C418.696 126.134 419.687 126.798 420.522 127.634C421.378 126.429 421.884 125.011 421.983 123.536C422.082 122.061 421.77 120.588 421.082 119.279C420.395 117.971 419.359 116.879 418.088 116.123C416.817 115.368 415.362 114.98 413.885 115.001C412.407 115.023 410.964 115.453 409.716 116.245C408.467 117.036 407.463 118.158 406.814 119.486C406.164 120.814 405.896 122.296 406.037 123.767C406.179 125.238 406.725 126.641 407.616 127.821V127.82ZM414 124C412.939 124 411.922 123.579 411.172 122.828C410.421 122.078 410 121.061 410 120C410 118.939 410.421 117.922 411.172 117.172C411.922 116.421 412.939 116 414 116C415.061 116 416.078 116.421 416.828 117.172C417.579 117.922 418 118.939 418 120C418 121.061 417.579 122.078 416.828 122.828C416.078 123.579 415.061 124 414 124ZM414 122C414.53 122 415.039 121.789 415.414 121.414C415.789 121.039 416 120.53 416 120C416 119.47 415.789 118.961 415.414 118.586C415.039 118.211 414.53 118 414 118C413.47 118 412.961 118.211 412.586 118.586C412.211 118.961 412 119.47 412 120C412 120.53 412.211 121.039 412.586 121.414C412.961 121.789 413.47 122 414 122Z" fill="#E2E8F0"/>
<path d="M373 228C367.477 228 363 223.523 363 218C363 212.477 367.477 208 373 208C378.523 208 383 212.477 383 218C383 223.523 378.523 228 373 228ZM368.013 224.256C369.429 225.388 371.188 226.003 373 226C374.97 226 376.773 225.288 378.167 224.108C377.516 223.44 376.737 222.909 375.877 222.547C375.017 222.185 374.093 221.999 373.16 222C372.193 221.999 371.236 222.199 370.349 222.587C369.463 222.976 368.668 223.544 368.013 224.256V224.256ZM366.616 222.82C367.456 221.928 368.471 221.218 369.596 220.733C370.722 220.248 371.934 219.998 373.16 220C374.342 219.998 375.512 220.23 376.604 220.682C377.696 221.134 378.687 221.798 379.522 222.634C380.378 221.429 380.884 220.011 380.983 218.536C381.082 217.061 380.77 215.588 380.082 214.279C379.395 212.971 378.359 211.879 377.088 211.123C375.817 210.368 374.362 209.98 372.885 210.001C371.407 210.023 369.964 210.453 368.716 211.245C367.467 212.036 366.463 213.158 365.814 214.486C365.164 215.814 364.896 217.296 365.037 218.767C365.179 220.238 365.725 221.641 366.616 222.821V222.82ZM373 219C371.939 219 370.922 218.579 370.172 217.828C369.421 217.078 369 216.061 369 215C369 213.939 369.421 212.922 370.172 212.172C370.922 211.421 371.939 211 373 211C374.061 211 375.078 211.421 375.828 212.172C376.579 212.922 377 213.939 377 215C377 216.061 376.579 217.078 375.828 217.828C375.078 218.579 374.061 219 373 219ZM373 217C373.53 217 374.039 216.789 374.414 216.414C374.789 216.039 375 215.53 375 215C375 214.47 374.789 213.961 374.414 213.586C374.039 213.211 373.53 213 373 213C372.47 213 371.961 213.211 371.586 213.586C371.211 213.961 371 214.47 371 215C371 215.53 371.211 216.039 371.586 216.414C371.961 216.789 372.47 217 373 217Z" fill="#E2E8F0"/>
<path d="M414 216C408.477 216 404 211.523 404 206C404 200.477 408.477 196 414 196C419.523 196 424 200.477 424 206C424 211.523 419.523 216 414 216ZM409.013 212.256C410.429 213.388 412.188 214.003 414 214C415.97 214 417.773 213.288 419.167 212.108C418.516 211.44 417.737 210.909 416.877 210.547C416.017 210.185 415.093 209.999 414.16 210C413.193 209.999 412.236 210.199 411.349 210.587C410.463 210.976 409.668 211.544 409.013 212.256V212.256ZM407.616 210.82C408.456 209.928 409.471 209.218 410.596 208.733C411.722 208.248 412.934 207.998 414.16 208C415.342 207.998 416.512 208.23 417.604 208.682C418.696 209.134 419.687 209.798 420.522 210.634C421.378 209.429 421.884 208.011 421.983 206.536C422.082 205.061 421.77 203.588 421.082 202.279C420.395 200.971 419.359 199.879 418.088 199.123C416.817 198.368 415.362 197.98 413.885 198.001C412.407 198.023 410.964 198.453 409.716 199.245C408.467 200.036 407.463 201.158 406.814 202.486C406.164 203.814 405.896 205.296 406.037 206.767C406.179 208.238 406.725 209.641 407.616 210.821V210.82ZM414 207C412.939 207 411.922 206.579 411.172 205.828C410.421 205.078 410 204.061 410 203C410 201.939 410.421 200.922 411.172 200.172C411.922 199.421 412.939 199 414 199C415.061 199 416.078 199.421 416.828 200.172C417.579 200.922 418 201.939 418 203C418 204.061 417.579 205.078 416.828 205.828C416.078 206.579 415.061 207 414 207ZM414 205C414.53 205 415.039 204.789 415.414 204.414C415.789 204.039 416 203.53 416 203C416 202.47 415.789 201.961 415.414 201.586C415.039 201.211 414.53 201 414 201C413.47 201 412.961 201.211 412.586 201.586C412.211 201.961 412 202.47 412 203C412 203.53 412.211 204.039 412.586 204.414C412.961 204.789 413.47 205 414 205Z" fill="#E2E8F0"/>
<path d="M373 315C367.477 315 363 310.523 363 305C363 299.477 367.477 295 373 295C378.523 295 383 299.477 383 305C383 310.523 378.523 315 373 315ZM368.013 311.256C369.429 312.388 371.188 313.003 373 313C374.97 313 376.773 312.288 378.167 311.108C377.516 310.44 376.737 309.909 375.877 309.547C375.017 309.185 374.093 308.999 373.16 309C372.193 308.999 371.236 309.199 370.349 309.587C369.463 309.976 368.668 310.544 368.013 311.256V311.256ZM366.616 309.82C367.456 308.928 368.471 308.218 369.596 307.733C370.722 307.248 371.934 306.998 373.16 307C374.342 306.998 375.512 307.23 376.604 307.682C377.696 308.134 378.687 308.798 379.522 309.634C380.378 308.429 380.884 307.011 380.983 305.536C381.082 304.061 380.77 302.588 380.082 301.279C379.395 299.971 378.359 298.879 377.088 298.123C375.817 297.368 374.362 296.98 372.885 297.001C371.407 297.023 369.964 297.453 368.716 298.245C367.467 299.036 366.463 300.158 365.814 301.486C365.164 302.814 364.896 304.296 365.037 305.767C365.179 307.238 365.725 308.641 366.616 309.821V309.82ZM373 306C371.939 306 370.922 305.579 370.172 304.828C369.421 304.078 369 303.061 369 302C369 300.939 369.421 299.922 370.172 299.172C370.922 298.421 371.939 298 373 298C374.061 298 375.078 298.421 375.828 299.172C376.579 299.922 377 300.939 377 302C377 303.061 376.579 304.078 375.828 304.828C375.078 305.579 374.061 306 373 306ZM373 304C373.53 304 374.039 303.789 374.414 303.414C374.789 303.039 375 302.53 375 302C375 301.47 374.789 300.961 374.414 300.586C374.039 300.211 373.53 300 373 300C372.47 300 371.961 300.211 371.586 300.586C371.211 300.961 371 301.47 371 302C371 302.53 371.211 303.039 371.586 303.414C371.961 303.789 372.47 304 373 304Z" fill="#E2E8F0"/>
<path d="M414 303C408.477 303 404 298.523 404 293C404 287.477 408.477 283 414 283C419.523 283 424 287.477 424 293C424 298.523 419.523 303 414 303ZM409.013 299.256C410.429 300.388 412.188 301.003 414 301C415.97 301 417.773 300.288 419.167 299.108C418.516 298.44 417.737 297.909 416.877 297.547C416.017 297.185 415.093 296.999 414.16 297C413.193 296.999 412.236 297.199 411.349 297.587C410.463 297.976 409.668 298.544 409.013 299.256V299.256ZM407.616 297.82C408.456 296.928 409.471 296.218 410.596 295.733C411.722 295.248 412.934 294.998 414.16 295C415.342 294.998 416.512 295.23 417.604 295.682C418.696 296.134 419.687 296.798 420.522 297.634C421.378 296.429 421.884 295.011 421.983 293.536C422.082 292.061 421.77 290.588 421.082 289.279C420.395 287.971 419.359 286.879 418.088 286.123C416.817 285.368 415.362 284.98 413.885 285.001C412.407 285.023 410.964 285.453 409.716 286.245C408.467 287.036 407.463 288.158 406.814 289.486C406.164 290.814 405.896 292.296 406.037 293.767C406.179 295.238 406.725 296.641 407.616 297.821V297.82ZM414 294C412.939 294 411.922 293.579 411.172 292.828C410.421 292.078 410 291.061 410 290C410 288.939 410.421 287.922 411.172 287.172C411.922 286.421 412.939 286 414 286C415.061 286 416.078 286.421 416.828 287.172C417.579 287.922 418 288.939 418 290C418 291.061 417.579 292.078 416.828 292.828C416.078 293.579 415.061 294 414 294ZM414 292C414.53 292 415.039 291.789 415.414 291.414C415.789 291.039 416 290.53 416 290C416 289.47 415.789 288.961 415.414 288.586C415.039 288.211 414.53 288 414 288C413.47 288 412.961 288.211 412.586 288.586C412.211 288.961 412 289.47 412 290C412 290.53 412.211 291.039 412.586 291.414C412.961 291.789 413.47 292 414 292Z" fill="#E2E8F0"/>
<path d="M434 170C428.477 170 424 165.523 424 160C424 154.477 428.477 150 434 150C439.523 150 444 154.477 444 160C444 165.523 439.523 170 434 170ZM429.013 166.256C430.429 167.388 432.188 168.003 434 168C435.97 168 437.773 167.288 439.167 166.108C438.516 165.44 437.737 164.909 436.877 164.547C436.017 164.185 435.093 163.999 434.16 164C433.193 163.999 432.236 164.199 431.349 164.587C430.463 164.976 429.668 165.544 429.013 166.256V166.256ZM427.616 164.82C428.456 163.928 429.471 163.218 430.596 162.733C431.722 162.248 432.934 161.998 434.16 162C435.342 161.998 436.512 162.23 437.604 162.682C438.696 163.134 439.687 163.798 440.522 164.634C441.378 163.429 441.884 162.011 441.983 160.536C442.082 159.061 441.77 157.588 441.082 156.279C440.395 154.971 439.359 153.879 438.088 153.123C436.817 152.368 435.362 151.98 433.885 152.001C432.407 152.023 430.964 152.453 429.716 153.245C428.467 154.036 427.463 155.158 426.814 156.486C426.164 157.814 425.896 159.296 426.037 160.767C426.179 162.238 426.725 163.641 427.616 164.821V164.82ZM434 161C432.939 161 431.922 160.579 431.172 159.828C430.421 159.078 430 158.061 430 157C430 155.939 430.421 154.922 431.172 154.172C431.922 153.421 432.939 153 434 153C435.061 153 436.078 153.421 436.828 154.172C437.579 154.922 438 155.939 438 157C438 158.061 437.579 159.078 436.828 159.828C436.078 160.579 435.061 161 434 161ZM434 159C434.53 159 435.039 158.789 435.414 158.414C435.789 158.039 436 157.53 436 157C436 156.47 435.789 155.961 435.414 155.586C435.039 155.211 434.53 155 434 155C433.47 155 432.961 155.211 432.586 155.586C432.211 155.961 432 156.47 432 157C432 157.53 432.211 158.039 432.586 158.414C432.961 158.789 433.47 159 434 159Z" fill="#E2E8F0"/>
<path d="M354 194C348.477 194 344 189.523 344 184C344 178.477 348.477 174 354 174C359.523 174 364 178.477 364 184C364 189.523 359.523 194 354 194ZM349.013 190.256C350.429 191.388 352.188 192.003 354 192C355.97 192 357.773 191.288 359.167 190.108C358.516 189.44 357.737 188.909 356.877 188.547C356.017 188.185 355.093 187.999 354.16 188C353.193 187.999 352.236 188.199 351.349 188.587C350.463 188.976 349.668 189.544 349.013 190.256V190.256ZM347.616 188.82C348.456 187.928 349.471 187.218 350.596 186.733C351.722 186.248 352.934 185.998 354.16 186C355.342 185.998 356.512 186.23 357.604 186.682C358.696 187.134 359.687 187.798 360.522 188.634C361.378 187.429 361.884 186.011 361.983 184.536C362.082 183.061 361.77 181.588 361.082 180.279C360.395 178.971 359.359 177.879 358.088 177.123C356.817 176.368 355.362 175.98 353.885 176.001C352.407 176.023 350.964 176.453 349.716 177.245C348.467 178.036 347.463 179.158 346.814 180.486C346.164 181.814 345.896 183.296 346.037 184.767C346.179 186.238 346.725 187.641 347.616 188.821V188.82ZM354 185C352.939 185 351.922 184.579 351.172 183.828C350.421 183.078 350 182.061 350 181C350 179.939 350.421 178.922 351.172 178.172C351.922 177.421 352.939 177 354 177C355.061 177 356.078 177.421 356.828 178.172C357.579 178.922 358 179.939 358 181C358 182.061 357.579 183.078 356.828 183.828C356.078 184.579 355.061 185 354 185ZM354 183C354.53 183 355.039 182.789 355.414 182.414C355.789 182.039 356 181.53 356 181C356 180.47 355.789 179.961 355.414 179.586C355.039 179.211 354.53 179 354 179C353.47 179 352.961 179.211 352.586 179.586C352.211 179.961 352 180.47 352 181C352 181.53 352.211 182.039 352.586 182.414C352.961 182.789 353.47 183 354 183Z" fill="#E2E8F0"/>
<path d="M394 182C388.477 182 384 177.523 384 172C384 166.477 388.477 162 394 162C399.523 162 404 166.477 404 172C404 177.523 399.523 182 394 182ZM389.013 178.256C390.429 179.388 392.188 180.003 394 180C395.97 180 397.773 179.288 399.167 178.108C398.516 177.44 397.737 176.909 396.877 176.547C396.017 176.185 395.093 175.999 394.16 176C393.193 175.999 392.236 176.199 391.349 176.587C390.463 176.976 389.668 177.544 389.013 178.256V178.256ZM387.616 176.82C388.456 175.928 389.471 175.218 390.596 174.733C391.722 174.248 392.934 173.998 394.16 174C395.342 173.998 396.512 174.23 397.604 174.682C398.696 175.134 399.687 175.798 400.522 176.634C401.378 175.429 401.884 174.011 401.983 172.536C402.082 171.061 401.77 169.588 401.082 168.279C400.395 166.971 399.359 165.879 398.088 165.123C396.817 164.368 395.362 163.98 393.885 164.001C392.407 164.023 390.964 164.453 389.716 165.245C388.467 166.036 387.463 167.158 386.814 168.486C386.164 169.814 385.896 171.296 386.037 172.767C386.179 174.238 386.725 175.641 387.616 176.821V176.82ZM394 173C392.939 173 391.922 172.579 391.172 171.828C390.421 171.078 390 170.061 390 169C390 167.939 390.421 166.922 391.172 166.172C391.922 165.421 392.939 165 394 165C395.061 165 396.078 165.421 396.828 166.172C397.579 166.922 398 167.939 398 169C398 170.061 397.579 171.078 396.828 171.828C396.078 172.579 395.061 173 394 173ZM394 171C394.53 171 395.039 170.789 395.414 170.414C395.789 170.039 396 169.53 396 169C396 168.47 395.789 167.961 395.414 167.586C395.039 167.211 394.53 167 394 167C393.47 167 392.961 167.211 392.586 167.586C392.211 167.961 392 168.47 392 169C392 169.53 392.211 170.039 392.586 170.414C392.961 170.789 393.47 171 394 171Z" fill="#E2E8F0"/>
<path d="M434 252C428.477 252 424 247.523 424 242C424 236.477 428.477 232 434 232C439.523 232 444 236.477 444 242C444 247.523 439.523 252 434 252ZM429.013 248.256C430.429 249.388 432.188 250.003 434 250C435.97 250 437.773 249.288 439.167 248.108C438.516 247.44 437.737 246.909 436.877 246.547C436.017 246.185 435.093 245.999 434.16 246C433.193 245.999 432.236 246.199 431.349 246.587C430.463 246.976 429.668 247.544 429.013 248.256V248.256ZM427.616 246.82C428.456 245.928 429.471 245.218 430.596 244.733C431.722 244.248 432.934 243.998 434.16 244C435.342 243.998 436.512 244.23 437.604 244.682C438.696 245.134 439.687 245.798 440.522 246.634C441.378 245.429 441.884 244.011 441.983 242.536C442.082 241.061 441.77 239.588 441.082 238.279C440.395 236.971 439.359 235.879 438.088 235.123C436.817 234.368 435.362 233.98 433.885 234.001C432.407 234.023 430.964 234.453 429.716 235.245C428.467 236.036 427.463 237.158 426.814 238.486C426.164 239.814 425.896 241.296 426.037 242.767C426.179 244.238 426.725 245.641 427.616 246.821V246.82ZM434 243C432.939 243 431.922 242.579 431.172 241.828C430.421 241.078 430 240.061 430 239C430 237.939 430.421 236.922 431.172 236.172C431.922 235.421 432.939 235 434 235C435.061 235 436.078 235.421 436.828 236.172C437.579 236.922 438 237.939 438 239C438 240.061 437.579 241.078 436.828 241.828C436.078 242.579 435.061 243 434 243ZM434 241C434.53 241 435.039 240.789 435.414 240.414C435.789 240.039 436 239.53 436 239C436 238.47 435.789 237.961 435.414 237.586C435.039 237.211 434.53 237 434 237C433.47 237 432.961 237.211 432.586 237.586C432.211 237.961 432 238.47 432 239C432 239.53 432.211 240.039 432.586 240.414C432.961 240.789 433.47 241 434 241Z" fill="#E2E8F0"/>
<path d="M354 276C348.477 276 344 271.523 344 266C344 260.477 348.477 256 354 256C359.523 256 364 260.477 364 266C364 271.523 359.523 276 354 276ZM349.013 272.256C350.429 273.388 352.188 274.003 354 274C355.97 274 357.773 273.288 359.167 272.108C358.516 271.44 357.737 270.909 356.877 270.547C356.017 270.185 355.093 269.999 354.16 270C353.193 269.999 352.236 270.199 351.349 270.587C350.463 270.976 349.668 271.544 349.013 272.256V272.256ZM347.616 270.82C348.456 269.928 349.471 269.218 350.596 268.733C351.722 268.248 352.934 267.998 354.16 268C355.342 267.998 356.512 268.23 357.604 268.682C358.696 269.134 359.687 269.798 360.522 270.634C361.378 269.429 361.884 268.011 361.983 266.536C362.082 265.061 361.77 263.588 361.082 262.279C360.395 260.971 359.359 259.879 358.088 259.123C356.817 258.368 355.362 257.98 353.885 258.001C352.407 258.023 350.964 258.453 349.716 259.245C348.467 260.036 347.463 261.158 346.814 262.486C346.164 263.814 345.896 265.296 346.037 266.767C346.179 268.238 346.725 269.641 347.616 270.821V270.82ZM354 267C352.939 267 351.922 266.579 351.172 265.828C350.421 265.078 350 264.061 350 263C350 261.939 350.421 260.922 351.172 260.172C351.922 259.421 352.939 259 354 259C355.061 259 356.078 259.421 356.828 260.172C357.579 260.922 358 261.939 358 263C358 264.061 357.579 265.078 356.828 265.828C356.078 266.579 355.061 267 354 267ZM354 265C354.53 265 355.039 264.789 355.414 264.414C355.789 264.039 356 263.53 356 263C356 262.47 355.789 261.961 355.414 261.586C355.039 261.211 354.53 261 354 261C353.47 261 352.961 261.211 352.586 261.586C352.211 261.961 352 262.47 352 263C352 263.53 352.211 264.039 352.586 264.414C352.961 264.789 353.47 265 354 265Z" fill="#E2E8F0"/>
<path d="M394 264C388.477 264 384 259.523 384 254C384 248.477 388.477 244 394 244C399.523 244 404 248.477 404 254C404 259.523 399.523 264 394 264ZM389.013 260.256C390.429 261.388 392.188 262.003 394 262C395.97 262 397.773 261.288 399.167 260.108C398.516 259.44 397.737 258.909 396.877 258.547C396.017 258.185 395.093 257.999 394.16 258C393.193 257.999 392.236 258.199 391.349 258.587C390.463 258.976 389.668 259.544 389.013 260.256V260.256ZM387.616 258.82C388.456 257.928 389.471 257.218 390.596 256.733C391.722 256.248 392.934 255.998 394.16 256C395.342 255.998 396.512 256.23 397.604 256.682C398.696 257.134 399.687 257.798 400.522 258.634C401.378 257.429 401.884 256.011 401.983 254.536C402.082 253.061 401.77 251.588 401.082 250.279C400.395 248.971 399.359 247.879 398.088 247.123C396.817 246.368 395.362 245.98 393.885 246.001C392.407 246.023 390.964 246.453 389.716 247.245C388.467 248.036 387.463 249.158 386.814 250.486C386.164 251.814 385.896 253.296 386.037 254.767C386.179 256.238 386.725 257.641 387.616 258.821V258.82ZM394 255C392.939 255 391.922 254.579 391.172 253.828C390.421 253.078 390 252.061 390 251C390 249.939 390.421 248.922 391.172 248.172C391.922 247.421 392.939 247 394 247C395.061 247 396.078 247.421 396.828 248.172C397.579 248.922 398 249.939 398 251C398 252.061 397.579 253.078 396.828 253.828C396.078 254.579 395.061 255 394 255ZM394 253C394.53 253 395.039 252.789 395.414 252.414C395.789 252.039 396 251.53 396 251C396 250.47 395.789 249.961 395.414 249.586C395.039 249.211 394.53 249 394 249C393.47 249 392.961 249.211 392.586 249.586C392.211 249.961 392 250.47 392 251C392 251.53 392.211 252.039 392.586 252.414C392.961 252.789 393.47 253 394 253Z" fill="#E2E8F0"/>
<path d="M434 335C428.477 335 424 330.523 424 325C424 319.477 428.477 315 434 315C439.523 315 444 319.477 444 325C444 330.523 439.523 335 434 335ZM429.013 331.256C430.429 332.388 432.188 333.003 434 333C435.97 333 437.773 332.288 439.167 331.108C438.516 330.44 437.737 329.909 436.877 329.547C436.017 329.185 435.093 328.999 434.16 329C433.193 328.999 432.236 329.199 431.349 329.587C430.463 329.976 429.668 330.544 429.013 331.256V331.256ZM427.616 329.82C428.456 328.928 429.471 328.218 430.596 327.733C431.722 327.248 432.934 326.998 434.16 327C435.342 326.998 436.512 327.23 437.604 327.682C438.696 328.134 439.687 328.798 440.522 329.634C441.378 328.429 441.884 327.011 441.983 325.536C442.082 324.061 441.77 322.588 441.082 321.279C440.395 319.971 439.359 318.879 438.088 318.123C436.817 317.368 435.362 316.98 433.885 317.001C432.407 317.023 430.964 317.453 429.716 318.245C428.467 319.036 427.463 320.158 426.814 321.486C426.164 322.814 425.896 324.296 426.037 325.767C426.179 327.238 426.725 328.641 427.616 329.821V329.82ZM434 326C432.939 326 431.922 325.579 431.172 324.828C430.421 324.078 430 323.061 430 322C430 320.939 430.421 319.922 431.172 319.172C431.922 318.421 432.939 318 434 318C435.061 318 436.078 318.421 436.828 319.172C437.579 319.922 438 320.939 438 322C438 323.061 437.579 324.078 436.828 324.828C436.078 325.579 435.061 326 434 326ZM434 324C434.53 324 435.039 323.789 435.414 323.414C435.789 323.039 436 322.53 436 322C436 321.47 435.789 320.961 435.414 320.586C435.039 320.211 434.53 320 434 320C433.47 320 432.961 320.211 432.586 320.586C432.211 320.961 432 321.47 432 322C432 322.53 432.211 323.039 432.586 323.414C432.961 323.789 433.47 324 434 324Z" fill="#E2E8F0"/>
<path d="M354 359C348.477 359 344 354.523 344 349C344 343.477 348.477 339 354 339C359.523 339 364 343.477 364 349C364 354.523 359.523 359 354 359ZM349.013 355.256C350.429 356.388 352.188 357.003 354 357C355.97 357 357.773 356.288 359.167 355.108C358.516 354.44 357.737 353.909 356.877 353.547C356.017 353.185 355.093 352.999 354.16 353C353.193 352.999 352.236 353.199 351.349 353.587C350.463 353.976 349.668 354.544 349.013 355.256V355.256ZM347.616 353.82C348.456 352.928 349.471 352.218 350.596 351.733C351.722 351.248 352.934 350.998 354.16 351C355.342 350.998 356.512 351.23 357.604 351.682C358.696 352.134 359.687 352.798 360.522 353.634C361.378 352.429 361.884 351.011 361.983 349.536C362.082 348.061 361.77 346.588 361.082 345.279C360.395 343.971 359.359 342.879 358.088 342.123C356.817 341.368 355.362 340.98 353.885 341.001C352.407 341.023 350.964 341.453 349.716 342.245C348.467 343.036 347.463 344.158 346.814 345.486C346.164 346.814 345.896 348.296 346.037 349.767C346.179 351.238 346.725 352.641 347.616 353.821V353.82ZM354 350C352.939 350 351.922 349.579 351.172 348.828C350.421 348.078 350 347.061 350 346C350 344.939 350.421 343.922 351.172 343.172C351.922 342.421 352.939 342 354 342C355.061 342 356.078 342.421 356.828 343.172C357.579 343.922 358 344.939 358 346C358 347.061 357.579 348.078 356.828 348.828C356.078 349.579 355.061 350 354 350ZM354 348C354.53 348 355.039 347.789 355.414 347.414C355.789 347.039 356 346.53 356 346C356 345.47 355.789 344.961 355.414 344.586C355.039 344.211 354.53 344 354 344C353.47 344 352.961 344.211 352.586 344.586C352.211 344.961 352 345.47 352 346C352 346.53 352.211 347.039 352.586 347.414C352.961 347.789 353.47 348 354 348Z" fill="#E2E8F0"/>
<path d="M394 347C388.477 347 384 342.523 384 337C384 331.477 388.477 327 394 327C399.523 327 404 331.477 404 337C404 342.523 399.523 347 394 347ZM389.013 343.256C390.429 344.388 392.188 345.003 394 345C395.97 345 397.773 344.288 399.167 343.108C398.516 342.44 397.737 341.909 396.877 341.547C396.017 341.185 395.093 340.999 394.16 341C393.193 340.999 392.236 341.199 391.349 341.587C390.463 341.976 389.668 342.544 389.013 343.256V343.256ZM387.616 341.82C388.456 340.928 389.471 340.218 390.596 339.733C391.722 339.248 392.934 338.998 394.16 339C395.342 338.998 396.512 339.23 397.604 339.682C398.696 340.134 399.687 340.798 400.522 341.634C401.378 340.429 401.884 339.011 401.983 337.536C402.082 336.061 401.77 334.588 401.082 333.279C400.395 331.971 399.359 330.879 398.088 330.123C396.817 329.368 395.362 328.98 393.885 329.001C392.407 329.023 390.964 329.453 389.716 330.245C388.467 331.036 387.463 332.158 386.814 333.486C386.164 334.814 385.896 336.296 386.037 337.767C386.179 339.238 386.725 340.641 387.616 341.821V341.82ZM394 338C392.939 338 391.922 337.579 391.172 336.828C390.421 336.078 390 335.061 390 334C390 332.939 390.421 331.922 391.172 331.172C391.922 330.421 392.939 330 394 330C395.061 330 396.078 330.421 396.828 331.172C397.579 331.922 398 332.939 398 334C398 335.061 397.579 336.078 396.828 336.828C396.078 337.579 395.061 338 394 338ZM394 336C394.53 336 395.039 335.789 395.414 335.414C395.789 335.039 396 334.53 396 334C396 333.47 395.789 332.961 395.414 332.586C395.039 332.211 394.53 332 394 332C393.47 332 392.961 332.211 392.586 332.586C392.211 332.961 392 333.47 392 334C392 334.53 392.211 335.039 392.586 335.414C392.961 335.789 393.47 336 394 336Z" fill="#E2E8F0"/>
<path d="M108 293C77.8333 231 47.3192 59.8957 153 109.673C228 145 163.5 174.673 221.5 205.173C267.9 229.573 298.667 226.5 315.5 226" stroke="#33C0CB" stroke-width="6" stroke-linecap="round" stroke-dasharray="14 14"/>
<path d="M152.434 403.56L153.068 402.787L152.398 402.238L151.759 402.823L152.434 403.56ZM159.384 409.253L158.75 410.027L159.461 410.609L160.101 409.95L159.384 409.253ZM182 386.985C181.992 386.433 181.538 385.992 180.985 386L171.986 386.131C171.434 386.139 170.993 386.593 171.001 387.145C171.009 387.697 171.463 388.139 172.015 388.131L180.015 388.014L180.131 396.014C180.139 396.566 180.593 397.007 181.145 396.999C181.697 396.991 182.139 396.537 182.131 395.985L182 386.985ZM129.675 425.738L153.109 404.298L151.759 402.823L128.325 424.262L129.675 425.738ZM151.801 404.334L158.75 410.027L160.018 408.479L153.068 402.787L151.801 404.334ZM160.101 409.95L181.717 387.697L180.283 386.303L158.667 408.556L160.101 409.95Z" fill="url(#paint5_linear_540_9885)"/>
<path d="M470.434 23.5603L471.068 22.7867L470.398 22.238L469.759 22.8225L470.434 23.5603ZM477.384 29.2529L476.75 30.0265L477.461 30.6087L478.101 29.9497L477.384 29.2529ZM500 6.98549C499.992 6.43326 499.538 5.99209 498.985 6.00011L489.986 6.13073C489.434 6.13874 488.993 6.59291 489.001 7.14513C489.009 7.69736 489.463 8.13853 490.015 8.13052L498.015 8.01441L498.131 16.0136C498.139 16.5658 498.593 17.007 499.145 16.9989C499.697 16.9909 500.139 16.5368 500.131 15.9845L500 6.98549ZM447.675 45.7378L471.109 24.2981L469.759 22.8225L446.325 44.2622L447.675 45.7378ZM469.801 24.3339L476.75 30.0265L478.018 28.4793L471.068 22.7867L469.801 24.3339ZM478.101 29.9497L499.717 7.69677L498.283 6.30323L476.667 28.5561L478.101 29.9497Z" fill="url(#paint6_linear_540_9885)"/>
<path d="M16.4343 371.56L17.068 370.787L16.3982 370.238L15.7593 370.823L16.4343 371.56ZM23.3838 377.253L22.7502 378.027L23.4609 378.609L24.1011 377.95L23.3838 377.253ZM45.9999 354.985C45.9919 354.433 45.5377 353.992 44.9855 354L35.9864 354.131C35.4342 354.139 34.993 354.593 35.0011 355.145C35.0091 355.697 35.4632 356.139 36.0155 356.131L44.0146 356.014L44.1307 364.014C44.1387 364.566 44.5929 365.007 45.1451 364.999C45.6974 364.991 46.1385 364.537 46.1305 363.985L45.9999 354.985ZM-6.32499 393.738L17.1094 372.298L15.7593 370.823L-7.67501 392.262L-6.32499 393.738ZM15.8007 372.334L22.7502 378.027L24.0175 376.479L17.068 370.787L15.8007 372.334ZM24.1011 377.95L45.7173 355.697L44.2827 354.303L22.6665 376.556L24.1011 377.95Z" fill="url(#paint7_linear_540_9885)"/>
<path d="M445.714 381.942L446.983 380.395L445.642 379.295L444.363 380.467L445.714 381.942ZM458.678 392.578L457.409 394.124L458.832 395.291L460.113 393.97L458.678 392.578ZM501 350.969C500.983 349.865 500.074 348.983 498.969 349L480.971 349.276C479.867 349.293 478.985 350.202 479.002 351.307C479.019 352.411 479.928 353.293 481.033 353.276L497.031 353.03L497.276 369.029C497.293 370.133 498.202 371.015 499.307 370.998C500.411 370.981 501.293 370.072 501.276 368.967L501 350.969ZM403.351 423.475L447.065 383.416L444.363 380.467L400.649 420.525L403.351 423.475ZM444.445 383.488L457.409 394.124L459.946 391.032L446.983 380.395L444.445 383.488ZM460.113 393.97L500.436 352.392L497.564 349.608L457.242 391.185L460.113 393.97Z" fill="url(#paint8_linear_540_9885)"/>
</g>
<defs>
<linearGradient id="paint0_linear_540_9885" x1="58.6786" y1="160.922" x2="7.18672" y2="194.091" gradientUnits="userSpaceOnUse">
<stop stop-color="#F1F5F9"/>
<stop offset="1" stop-color="#F1F5F9" stop-opacity="0"/>
</linearGradient>
<linearGradient id="paint1_linear_540_9885" x1="492.679" y1="132.922" x2="441.187" y2="166.091" gradientUnits="userSpaceOnUse">
<stop stop-color="#F1F5F9"/>
<stop offset="1" stop-color="#F1F5F9" stop-opacity="0"/>
</linearGradient>
<linearGradient id="paint2_linear_540_9885" x1="105.131" y1="42.9853" x2="8.98751" y2="104.817" gradientUnits="userSpaceOnUse">
<stop stop-color="#F1F5F9"/>
<stop offset="1" stop-color="#F1F5F9" stop-opacity="0"/>
</linearGradient>
<linearGradient id="paint3_linear_540_9885" x1="315.131" y1="12.9853" x2="218.988" y2="74.8173" gradientUnits="userSpaceOnUse">
<stop stop-color="#F1F5F9"/>
<stop offset="1" stop-color="#F1F5F9" stop-opacity="0"/>
</linearGradient>
<linearGradient id="paint4_linear_540_9885" x1="461.182" y1="379" x2="99.7339" y2="-43.0358" gradientUnits="userSpaceOnUse">
<stop offset="0.489583" stop-color="#061618"/>
<stop offset="0.967248" stop-color="#1C6B71"/>
</linearGradient>
<linearGradient id="paint5_linear_540_9885" x1="182.679" y1="385.922" x2="131.187" y2="419.091" gradientUnits="userSpaceOnUse">
<stop stop-color="#F1F5F9"/>
<stop offset="1" stop-color="#F1F5F9" stop-opacity="0"/>
</linearGradient>
<linearGradient id="paint6_linear_540_9885" x1="500.679" y1="5.92172" x2="449.187" y2="39.0911" gradientUnits="userSpaceOnUse">
<stop stop-color="#F1F5F9"/>
<stop offset="1" stop-color="#F1F5F9" stop-opacity="0"/>
</linearGradient>
<linearGradient id="paint7_linear_540_9885" x1="46.6786" y1="353.922" x2="-4.81328" y2="387.091" gradientUnits="userSpaceOnUse">
<stop stop-color="#F1F5F9"/>
<stop offset="1" stop-color="#F1F5F9" stop-opacity="0"/>
</linearGradient>
<linearGradient id="paint8_linear_540_9885" x1="502.131" y1="348.985" x2="405.988" y2="410.817" gradientUnits="userSpaceOnUse">
<stop stop-color="#F1F5F9"/>
<stop offset="1" stop-color="#F1F5F9" stop-opacity="0"/>
</linearGradient>
<clipPath id="clip0_540_9885">
<rect width="510" height="425" fill="white"/>
</clipPath>
</defs>
</svg>
