<svg width="362" height="241" viewBox="0 0 362 241" fill="none" xmlns="http://www.w3.org/2000/svg">
<rect width="362" height="241" rx="16" fill="url(#paint0_linear_557_10350)"/>
<path d="M133.295 49.1281C133.265 48.8882 133.055 48.7582 132.885 48.7482C132.715 48.7382 129.116 48.4682 129.116 48.4682C129.116 48.4682 126.616 45.9888 126.336 45.7088C126.066 45.4389 125.526 45.5189 125.316 45.5788C125.286 45.5788 124.766 45.7488 123.917 46.0087C123.077 43.6092 121.607 41.3997 119.008 41.3997C118.938 41.3997 118.858 41.3997 118.788 41.3997C118.048 40.4199 117.138 40 116.348 40C110.309 40 107.42 47.5584 106.51 51.3976C104.161 52.1275 102.491 52.6374 102.281 52.7074C100.971 53.1173 100.931 53.1573 100.761 54.397C100.631 55.3368 97.2022 81.8513 97.2022 81.8513L123.927 86.8602L138.404 83.7309C138.404 83.7309 133.325 49.3681 133.285 49.1281H133.295ZM122.437 46.4687C121.767 46.6786 121.007 46.9086 120.177 47.1685C120.177 47.0085 120.177 46.8486 120.177 46.6786C120.177 45.1889 119.967 43.9792 119.638 43.0294C120.977 43.1993 121.867 44.719 122.437 46.4687V46.4687ZM117.978 43.3293C118.348 44.2591 118.588 45.5988 118.588 47.3985C118.588 47.4884 118.588 47.5784 118.588 47.6584C117.118 48.1183 115.518 48.6082 113.919 49.1081C114.819 45.6388 116.508 43.9592 117.978 43.3293V43.3293ZM116.178 41.6297C116.438 41.6297 116.698 41.7196 116.958 41.8896C115.018 42.7994 112.949 45.0989 112.069 49.678C110.789 50.0779 109.54 50.4578 108.38 50.8178C109.41 47.3185 111.849 41.6197 116.188 41.6197L116.178 41.6297Z" fill="#95BF47"/>
<path d="M132.885 48.7382C132.715 48.7282 129.116 48.4583 129.116 48.4583C129.116 48.4583 126.616 45.9788 126.336 45.6988C126.236 45.5989 126.096 45.5489 125.946 45.5189L123.927 86.8503L138.404 83.7209C138.404 83.7209 133.325 49.3581 133.285 49.1181C133.255 48.8782 133.045 48.7482 132.875 48.7382H132.885Z" fill="#5E8E3E"/>
<path d="M119.018 56.7466L117.228 62.0555C117.228 62.0555 115.668 61.2157 113.749 61.2157C110.939 61.2157 110.799 62.9753 110.799 63.4252C110.799 65.8547 117.118 66.7845 117.118 72.4633C117.118 76.9324 114.279 79.8118 110.459 79.8118C105.87 79.8118 103.531 76.9524 103.531 76.9524L104.761 72.8932C104.761 72.8932 107.17 74.9628 109.21 74.9628C110.539 74.9628 111.079 73.913 111.079 73.1532C111.079 69.9938 105.89 69.8439 105.89 64.645C105.89 60.2659 109.03 56.0367 115.368 56.0367C117.808 56.0367 119.018 56.7366 119.018 56.7366V56.7466Z" fill="white"/>
<path d="M155.29 66.7044C153.85 65.9246 153.101 65.2647 153.101 64.3549C153.101 63.1952 154.13 62.4553 155.74 62.4553C157.61 62.4553 159.289 63.2352 159.289 63.2352L160.609 59.196C160.609 59.196 159.399 58.2462 155.82 58.2462C150.851 58.2462 147.402 61.0956 147.402 65.0948C147.402 67.3643 149.011 69.0939 151.161 70.3337C152.891 71.3235 153.51 72.0233 153.51 73.0531C153.51 74.0829 152.641 74.9927 151.031 74.9927C148.631 74.9927 146.372 73.753 146.372 73.753L144.972 77.7921C144.972 77.7921 147.062 79.1918 150.581 79.1918C155.7 79.1918 159.369 76.6723 159.369 72.1333C159.369 69.7038 157.51 67.9642 155.28 66.6844L155.29 66.7044Z" fill="white"/>
<path d="M175.666 58.1962C173.146 58.1962 171.167 59.396 169.637 61.2056L169.557 61.1656L171.747 49.738H166.058L160.529 78.8219H166.218L168.117 68.874C168.857 65.1148 170.797 62.8053 172.617 62.8053C173.896 62.8053 174.386 63.6751 174.386 64.9048C174.386 65.6847 174.306 66.6345 174.136 67.4243L171.987 78.812H177.685L179.915 67.0544C180.165 65.8147 180.325 64.335 180.325 63.3452C180.325 60.1258 178.635 58.1862 175.666 58.1862V58.1962Z" fill="white"/>
<path d="M193.202 58.1962C186.354 58.1962 181.815 64.3849 181.815 71.2735C181.815 75.6926 184.534 79.2318 189.653 79.2318C196.382 79.2318 200.921 73.2031 200.921 66.1545C200.921 62.0654 198.531 58.1962 193.202 58.1962V58.1962ZM190.393 74.8627C188.453 74.8627 187.623 73.2131 187.623 71.1535C187.623 67.8942 189.313 62.5753 192.412 62.5753C194.432 62.5753 195.092 64.3049 195.092 66.0046C195.092 69.5138 193.402 74.8727 190.393 74.8727V74.8627Z" fill="white"/>
<path d="M215.487 58.1962C211.648 58.1962 209.459 61.5755 209.459 61.5755H209.379L209.709 58.5261H204.68C204.43 60.5857 203.98 63.7251 203.52 66.0746L199.561 86.9102H205.26L206.829 78.492H206.949C206.949 78.492 208.119 79.2318 210.289 79.2318C216.977 79.2318 221.346 72.3833 221.346 65.4547C221.346 61.6155 219.657 58.1962 215.487 58.1962V58.1962ZM210.039 74.9427C208.559 74.9427 207.689 74.1129 207.689 74.1129L208.639 68.794C209.299 65.2447 211.158 62.8952 213.138 62.8952C214.868 62.8952 215.407 64.5049 215.407 66.0346C215.407 69.7038 213.218 74.9427 210.049 74.9427H210.039Z" fill="white"/>
<path d="M229.475 50.028C227.655 50.028 226.215 51.4677 226.215 53.3273C226.215 55.0169 227.285 56.1767 228.895 56.1767H228.975C230.744 56.1767 232.274 54.9769 232.314 52.8774C232.314 51.2277 231.204 50.028 229.465 50.028H229.475Z" fill="white"/>
<path d="M221.506 78.8319H227.205L231.084 58.6562H225.346L221.506 78.8319Z" fill="white"/>
<path d="M245.561 58.6161H241.602L241.812 57.6663C242.142 55.7267 243.302 53.9971 245.191 53.9971C246.201 53.9971 247.011 54.287 247.011 54.287L248.121 49.8279C248.121 49.8279 247.131 49.328 245.021 49.328C242.912 49.328 240.982 49.9079 239.453 51.2276C237.513 52.8773 236.603 55.2668 236.153 57.6663L235.983 58.6161H233.344L232.514 62.9052H235.154L232.144 78.8319H237.843L240.852 62.9052H244.772L245.551 58.6161H245.561Z" fill="white"/>
<path d="M259.258 58.6562C259.258 58.6562 255.699 67.6243 254.099 72.5233H254.019C253.909 70.9436 252.62 58.6562 252.62 58.6562H246.641L250.07 77.1823C250.15 77.5922 250.11 77.8422 249.95 78.1321C249.29 79.4118 248.181 80.6516 246.851 81.5614C245.781 82.3412 244.581 82.8411 243.632 83.171L245.201 88C246.361 87.7501 248.751 86.8003 250.77 84.9007C253.37 82.4712 255.759 78.712 258.239 73.5931L265.207 58.6562H259.268H259.258Z" fill="white"/>
<line x1="131.705" y1="119.5" x2="230.705" y2="119.5" stroke="#E2E8F0"/>
<path d="M109.158 187.556H106.491L94 152.468H99.5205L107.895 177.216L116.737 152.468H119.404L128.246 177.216L136.62 152.468H142.187L129.696 187.556H127.029L118.094 162.901L109.158 187.556ZM156.082 168C152.105 168 148.877 171.322 148.877 176.047C148.877 180.725 152.105 184.094 156.082 184.094C160.058 184.094 163.287 180.725 163.287 176.047C163.287 171.322 160.058 168 156.082 168V168ZM156.082 164.023C162.725 164.023 168.105 169.17 168.105 176.047C168.105 182.924 162.725 188.023 156.082 188.023C149.439 188.023 144.058 182.924 144.058 176.047C144.058 169.17 149.439 164.023 156.082 164.023V164.023ZM187.146 164.725L186.117 168.515C185.789 168.327 184.76 168 183.918 168C179.942 168 178.07 171.789 178.07 176.468V187.556H173.251V164.444H178.07V167.719C178.632 165.567 181.111 164.023 183.871 164.023C185.135 164.023 186.491 164.351 187.146 164.725ZM189.018 176.047C189.018 169.17 193.93 164.023 200.573 164.023C202.866 164.023 205.673 165.006 207.216 166.269V152.468H212.082V187.556H207.216V185.825C205.392 187.181 202.866 188.023 200.573 188.023C193.93 188.023 189.018 182.924 189.018 176.047V176.047ZM193.883 176.047C193.883 180.725 197.111 184.094 201.041 184.094C203.661 184.094 206 182.877 207.216 180.398C207.871 179.135 208.246 177.637 208.246 176.047C208.246 174.456 207.871 172.959 207.216 171.649C206 169.17 203.661 168 201.041 168C197.111 168 193.883 171.322 193.883 176.047V176.047ZM224.152 164.444V187.556H219.333V164.444H224.152ZM224.386 155.977C224.386 157.474 223.216 158.643 221.719 158.643C220.269 158.643 219.099 157.474 219.099 155.977C219.099 154.526 220.269 153.357 221.719 153.357C223.216 153.357 224.386 154.526 224.386 155.977ZM244.129 156.444C243.427 156.117 242.257 155.696 240.76 156.304C238.468 157.333 238.094 158.269 238.094 162.105V164.444H244.129V168.374H238.094V187.556H233.275V168.374H230.468V164.444H233.275V162.105C233.275 158.456 233.275 157.614 234.678 155.322C236.175 152.842 238.608 152 241.368 152C242.632 152 243.52 152.327 244.129 152.702V156.444V156.444ZM268.409 164.444C268.409 164.444 262.561 178.292 258.678 187.556C255.404 195.322 252.83 200 248.48 200C247.123 200 245.392 199.345 244.129 198.596L245.579 194.386C245.953 194.713 246.795 195.181 247.357 195.322C250.959 196.351 253.205 188.819 254.749 185.123L246 164.444H250.866L257.228 179.602L263.544 164.444H268.409V164.444Z" fill="white"/>
<defs>
<linearGradient id="paint0_linear_557_10350" x1="366.666" y1="241" x2="118.371" y2="-118.647" gradientUnits="userSpaceOnUse">
<stop offset="0.489583" stop-color="#061618"/>
<stop offset="0.967248" stop-color="#1C6B71"/>
</linearGradient>
</defs>
</svg>
