<svg width="295" height="246" viewBox="0 0 295 246" fill="none" xmlns="http://www.w3.org/2000/svg">
<rect width="295" height="246" rx="16" fill="url(#paint0_linear_555_9949)"/>
<g clip-path="url(#clip0_555_9949)">
<path d="M65.6047 49.01C65.6047 47.62 66.7199 46.52 68.084 46.52H96.6995C98.0834 46.52 99.1787 47.64 99.1787 49.01V77.75C99.1787 79.14 98.0635 80.24 96.6995 80.24H68.084C66.7 80.24 65.6047 79.12 65.6047 77.75V49.01Z" fill="#0B63CE"/>
<path d="M70.5831 52.15C70.5831 51.79 70.852 51.52 71.2104 51.52H74.9342C75.2926 51.52 75.5615 51.79 75.5615 52.15V55.89C75.5615 56.25 75.2926 56.52 74.9342 56.52H71.2104C70.852 56.52 70.5831 56.25 70.5831 55.89V52.15V52.15Z" fill="white"/>
<path d="M77.4134 51.52C77.055 51.52 76.7861 51.79 76.7861 52.15V55.89C76.7861 56.25 77.055 56.52 77.4134 56.52H81.1372C81.4956 56.52 81.7645 56.25 81.7645 55.89V52.15C81.7645 51.79 81.4956 51.52 81.1372 51.52H77.4134Z" fill="white"/>
<path d="M83.009 52.15C83.009 51.79 83.2779 51.52 83.6363 51.52H87.3601C87.7185 51.52 87.9874 51.79 87.9874 52.15V55.89C87.9874 56.25 87.7185 56.52 87.3601 56.52H83.6363C83.2779 56.52 83.009 56.25 83.009 55.89V52.15Z" fill="white"/>
<path d="M71.2104 57.78C70.852 57.78 70.5831 58.05 70.5831 58.41V62.15C70.5831 62.51 70.852 62.78 71.2104 62.78H74.9342C75.2926 62.78 75.5615 62.51 75.5615 62.15V58.41C75.5615 58.05 75.2926 57.78 74.9342 57.78H71.2104V57.78Z" fill="white"/>
<path d="M76.7861 58.38C76.7861 58.02 77.055 57.75 77.4134 57.75H81.1372C81.4956 57.75 81.7645 58.02 81.7645 58.38V62.15C81.7645 62.51 81.4956 62.78 81.1372 62.78H77.4134C77.055 62.78 76.7861 62.51 76.7861 62.15V58.38V58.38Z" fill="white"/>
<path d="M89.8692 57.78C89.5108 57.78 89.2419 58.05 89.2419 58.41V62.15C89.2419 62.51 89.5108 62.78 89.8692 62.78H93.593C93.9515 62.78 94.2203 62.51 94.2203 62.15V58.41C94.2203 58.05 93.9515 57.78 93.593 57.78H89.8692V57.78Z" fill="white"/>
<path d="M70.5831 64.64C70.5831 64.28 70.852 64.01 71.2104 64.01H74.9342C75.2926 64.01 75.5615 64.28 75.5615 64.64V68.38C75.5615 68.74 75.2926 69.01 74.9342 69.01H71.2104C70.852 69.01 70.5831 68.74 70.5831 68.38V64.64V64.64Z" fill="white"/>
<path d="M83.6363 64.01C83.2779 64.01 83.009 64.28 83.009 64.64V68.38C83.009 68.74 83.2779 69.01 83.6363 69.01H87.3601C87.7185 69.01 87.9874 68.74 87.9874 68.38V64.64C87.9874 64.28 87.7185 64.01 87.3601 64.01H83.6363Z" fill="white"/>
<path d="M89.2419 64.64C89.2419 64.28 89.5108 64.01 89.8692 64.01H93.593C93.9515 64.01 94.2203 64.28 94.2203 64.64V68.38C94.2203 68.74 93.9515 69.01 93.593 69.01H89.8692C89.5108 69.01 89.2419 68.74 89.2419 68.38V64.64Z" fill="white"/>
<path d="M77.4134 70.26C77.055 70.26 76.7861 70.53 76.7861 70.89V74.63C76.7861 74.99 77.055 75.26 77.4134 75.26H81.1372C81.4956 75.26 81.7645 74.99 81.7645 74.63V70.89C81.7645 70.53 81.4956 70.26 81.1372 70.26H77.4134V70.26Z" fill="white"/>
<path d="M83.009 70.89C83.009 70.53 83.2779 70.26 83.6363 70.26H87.3601C87.7185 70.26 87.9874 70.53 87.9874 70.89V74.63C87.9874 74.99 87.7185 75.26 87.3601 75.26H83.6363C83.2779 75.26 83.009 74.99 83.009 74.63V70.89V70.89Z" fill="white"/>
<path d="M89.8692 70.26C89.5108 70.26 89.2419 70.53 89.2419 70.89V74.63C89.2419 74.99 89.5108 75.26 89.8692 75.26H93.593C93.9515 75.26 94.2203 74.99 94.2203 74.63V70.89C94.2203 70.53 93.9515 70.26 93.593 70.26H89.8692V70.26Z" fill="white"/>
<path d="M126.808 77.59H112.063V46.96C112.063 46.77 111.923 46.66 111.764 46.66H109.454C109.265 46.66 109.155 46.8 109.155 46.96V79.83C109.155 80.02 109.295 80.13 109.454 80.13H126.808C126.998 80.13 127.107 79.99 127.107 79.83V77.84C127.137 77.7 126.998 77.59 126.808 77.59V77.59ZM148.653 55.57H143.426V50.7C143.426 47.26 144.541 45.56 146.851 45.56C147.777 45.56 148.733 45.81 149.599 46.19C149.649 46.24 149.788 46.24 149.848 46.19L150.037 46L150.665 44.2C150.714 44.06 150.665 43.9 150.476 43.82C149.311 43.33 147.996 43 146.861 43C142.889 43 140.628 45.68 140.628 50.49V55.54L137.631 55.73C137.442 55.73 137.333 55.87 137.333 56.03V57.72C137.333 57.91 137.472 58.02 137.631 58.02H140.628V79.77C140.628 79.96 140.768 80.07 140.927 80.07H143.108C143.297 80.07 143.406 79.93 143.406 79.77V58.03H148.634C148.823 58.03 148.932 57.89 148.932 57.73V55.79C148.962 55.71 148.853 55.57 148.663 55.57H148.653ZM159.964 54.97C154.797 54.97 149.271 59.53 149.271 67.89C149.271 75.46 153.95 80.76 160.582 80.76C164.116 80.76 166.297 79.59 168.308 78.38C168.447 78.33 168.497 78.13 168.447 77.94L167.521 76.25C167.472 76.2 167.382 76.11 167.332 76.11C167.282 76.11 167.143 76.11 167.083 76.16C165.102 77.61 163.111 78.21 160.85 78.21C155.822 78.21 152.387 74.28 152.198 68.46H169.065C169.204 68.46 169.314 68.32 169.363 68.21C169.503 67.58 169.503 66.9 169.503 66.32C169.363 59.19 165.888 54.96 159.954 54.96L159.964 54.97ZM152.128 66.01C152.696 60.96 155.852 57.46 159.964 57.46C164.076 57.46 166.625 60.52 166.685 66.01H152.128ZM185.284 55.52C184.547 55.14 183.791 55.03 182.805 55.03C180.326 55.03 177.966 56.59 176.144 59.54L175.955 55.91C175.955 55.72 175.815 55.61 175.656 55.61H173.774C173.585 55.61 173.475 55.75 173.475 55.91V79.9C173.475 80.09 173.615 80.2 173.774 80.2H175.955C176.144 80.2 176.253 80.06 176.253 79.9V63.63C177.747 59.89 180.057 57.7 182.486 57.7C183.352 57.7 183.741 57.84 184.527 58.08H184.776C184.826 58.03 184.916 57.94 184.916 57.89L185.404 55.9C185.483 55.71 185.433 55.57 185.294 55.52H185.284ZM204.949 55.57H203.017C202.828 55.57 202.718 55.71 202.718 55.87L202.579 57.67C200.538 56.06 198.526 54.99 195.669 54.99C189.326 54.99 184.786 60.43 184.786 67.91C184.786 75.97 188.59 80.78 194.982 80.78C197.591 80.78 200.209 79.61 202.629 77.34L202.818 79.91C202.818 80.1 202.957 80.21 203.116 80.21H204.998C205.187 80.21 205.297 80.07 205.297 79.91V55.84C205.247 55.7 205.138 55.57 204.939 55.57H204.949ZM202.449 60.46V74.39C199.891 77.01 197.66 78.13 195.3 78.13C190.571 78.13 187.714 74.25 187.714 67.83C187.714 62.01 191.248 57.45 195.788 57.45C198.178 57.5 200.169 58.38 202.449 60.46V60.46ZM228.695 55.71C228.645 55.66 228.556 55.57 228.446 55.57H226.216C226.077 55.57 225.967 55.62 225.917 55.76L220.8 70.81C220.551 71.63 220.232 72.5 219.983 73.38C219.605 74.64 219.167 75.87 218.818 77.01C218.33 75.75 217.813 74.39 217.325 73.08C217.026 72.26 216.697 71.52 216.458 70.76L210.743 55.71C210.694 55.57 210.554 55.52 210.445 55.52H208.075C207.936 55.52 207.886 55.57 207.826 55.66C207.776 55.71 207.776 55.85 207.826 55.96L217.594 80.27L216.966 82.26C216.04 85.07 214.298 88.38 211.122 88.38C210.494 88.38 209.758 88.19 209.24 88H208.991L208.802 88.19L208.314 90.13C208.264 90.27 208.364 90.43 208.503 90.51C209.18 90.81 210.186 91 211.062 91C214.736 91 217.594 88.19 219.386 82.89L228.775 55.9C228.825 55.9 228.775 55.76 228.695 55.71V55.71ZM133.031 50.13C133.41 50.13 133.708 49.83 133.708 49.45V47.21C133.708 46.83 133.41 46.53 133.031 46.53H130.801C130.423 46.53 130.124 46.83 130.124 47.21V49.45C130.124 49.83 130.423 50.13 130.801 50.13H133.031ZM130.801 55.57H132.982C133.171 55.57 133.28 55.71 133.28 55.87V79.86C133.28 80.05 133.141 80.16 132.982 80.16H130.801C130.612 80.16 130.502 80.02 130.502 79.86V55.87C130.473 55.71 130.612 55.57 130.801 55.57V55.57Z" fill="white"/>
</g>
<line x1="97.7047" y1="122.5" x2="196.705" y2="122.5" stroke="#E2E8F0"/>
<path d="M75.1579 190.556H72.4912L60 155.468H65.5205L73.8947 180.216L82.7368 155.468H85.4035L94.2456 180.216L102.62 155.468H108.187L95.6959 190.556H93.0292L84.0936 165.901L75.1579 190.556ZM122.082 171C118.105 171 114.877 174.322 114.877 179.047C114.877 183.725 118.105 187.094 122.082 187.094C126.058 187.094 129.287 183.725 129.287 179.047C129.287 174.322 126.058 171 122.082 171V171ZM122.082 167.023C128.725 167.023 134.105 172.17 134.105 179.047C134.105 185.924 128.725 191.023 122.082 191.023C115.439 191.023 110.058 185.924 110.058 179.047C110.058 172.17 115.439 167.023 122.082 167.023V167.023ZM153.146 167.725L152.117 171.515C151.789 171.327 150.76 171 149.918 171C145.942 171 144.07 174.789 144.07 179.468V190.556H139.251V167.444H144.07V170.719C144.632 168.567 147.111 167.023 149.871 167.023C151.135 167.023 152.491 167.351 153.146 167.725ZM155.018 179.047C155.018 172.17 159.93 167.023 166.573 167.023C168.866 167.023 171.673 168.006 173.216 169.269V155.468H178.082V190.556H173.216V188.825C171.392 190.181 168.866 191.023 166.573 191.023C159.93 191.023 155.018 185.924 155.018 179.047V179.047ZM159.883 179.047C159.883 183.725 163.111 187.094 167.041 187.094C169.661 187.094 172 185.877 173.216 183.398C173.871 182.135 174.246 180.637 174.246 179.047C174.246 177.456 173.871 175.959 173.216 174.649C172 172.17 169.661 171 167.041 171C163.111 171 159.883 174.322 159.883 179.047V179.047ZM190.152 167.444V190.556H185.333V167.444H190.152ZM190.386 158.977C190.386 160.474 189.216 161.643 187.719 161.643C186.269 161.643 185.099 160.474 185.099 158.977C185.099 157.526 186.269 156.357 187.719 156.357C189.216 156.357 190.386 157.526 190.386 158.977ZM210.129 159.444C209.427 159.117 208.257 158.696 206.76 159.304C204.468 160.333 204.094 161.269 204.094 165.105V167.444H210.129V171.374H204.094V190.556H199.275V171.374H196.468V167.444H199.275V165.105C199.275 161.456 199.275 160.614 200.678 158.322C202.175 155.842 204.608 155 207.368 155C208.632 155 209.52 155.327 210.129 155.702V159.444V159.444ZM234.409 167.444C234.409 167.444 228.561 181.292 224.678 190.556C221.404 198.322 218.83 203 214.48 203C213.123 203 211.392 202.345 210.129 201.596L211.579 197.386C211.953 197.713 212.795 198.181 213.357 198.322C216.959 199.351 219.205 191.819 220.749 188.123L212 167.444H216.866L223.228 182.602L229.544 167.444H234.409V167.444Z" fill="white"/>
<defs>
<linearGradient id="paint0_linear_555_9949" x1="298.803" y1="246" x2="30.5964" y2="-64.1496" gradientUnits="userSpaceOnUse">
<stop offset="0.489583" stop-color="#061618"/>
<stop offset="0.967248" stop-color="#1C6B71"/>
</linearGradient>
<clipPath id="clip0_555_9949">
<rect width="163.2" height="48" fill="white" transform="translate(65.6047 43)"/>
</clipPath>
</defs>
</svg>
