<svg width="295" height="246" viewBox="0 0 295 246" fill="none" xmlns="http://www.w3.org/2000/svg">
<rect width="295" height="246" rx="16" fill="url(#paint0_linear_555_9976)"/>
<g clip-path="url(#clip0_555_9976)">
<path d="M98.502 53.03C92.1291 53.03 87.0308 58.26 87.0308 64.55C87.0308 70.84 92.2386 76.07 98.502 76.07C104.765 76.07 109.973 70.84 109.973 64.55C110.083 58.26 104.875 53.03 98.502 53.03V53.03ZM98.502 69.67C95.7437 69.67 93.5132 67.43 93.5132 64.66C93.5132 61.89 95.7437 59.65 98.502 59.65C101.26 59.65 103.491 61.89 103.491 64.66C103.491 67.43 101.26 69.67 98.502 69.67ZM85.5471 91C82.7889 91 80.5583 88.76 80.5583 85.99C80.5583 83.22 82.7889 80.98 85.5471 80.98C88.3054 80.98 90.5359 83.22 90.5359 85.99C90.5359 88.76 88.3054 91 85.5471 91Z" fill="#EE1D3E"/>
<path d="M83.207 72.33C81.086 74.78 77.8996 76.17 74.4941 76.17C68.3303 76.17 62.5947 71.69 62.5947 64.54C62.5947 58.35 67.3744 53.02 73.9564 53.02C77.6706 53.02 80.4388 54.51 82.3507 56.43L80.6479 58.46C79.0547 56.86 76.8242 55.69 73.9564 55.69C69.2863 55.69 65.2435 59.53 65.2435 64.65C65.2435 69.77 69.0672 73.61 74.275 73.61C76.8242 73.61 79.1642 72.54 81.0761 70.52L83.1971 72.33H83.207Z" fill="white"/>
<path d="M125.806 55.69H124.531C121.554 55.69 118.796 57.72 117.631 60.6V75.75H114.872V53.56H117.631V56.44C118.696 54.84 121.136 53.03 124.641 53.03C125.069 53.03 126.025 53.03 126.234 53.14L125.806 55.7V55.69Z" fill="white"/>
<path d="M148.529 72.12C146.936 74.25 143.749 76.17 139.497 76.17C133.334 76.17 128.454 71.48 128.454 64.65C128.454 58.25 132.806 53.13 138.97 53.13C145.133 53.13 149.276 57.82 149.276 64.01V64.97H131.223C131.432 69.66 134.519 73.72 139.507 73.72C142.375 73.72 144.815 72.55 146.518 70.41L148.539 72.12H148.529ZM131.432 62.31H146.518C145.99 58.47 142.903 55.7 139.079 55.7C135.146 55.7 132.179 58.47 131.432 62.31Z" fill="white"/>
<path d="M162.868 74.04C160 72.01 158.198 68.6 158.198 64.55C158.198 60.82 159.791 57.62 162.34 55.48C164.143 53.99 166.692 53.03 169.351 53.03C172.427 53.03 175.295 54.2 177.317 56.44V43H180.075V75.64H177.416V72.33C175.823 74.57 172.955 76.06 169.45 76.06C167.329 76.17 165.099 75.63 162.868 74.03V74.04ZM177.317 60.17C176.361 58.57 173.493 55.69 169.351 55.69C167.548 55.69 165.527 56.33 164.043 57.61C162.131 59.21 160.966 61.77 160.966 64.65C160.966 67.74 162.35 70.41 164.471 71.9C165.855 72.86 167.548 73.5 169.46 73.5C172.756 73.5 175.624 71.69 177.317 68.59V60.16V60.17Z" fill="white"/>
<path d="M188.041 56.65C189.843 54.3 192.711 53.02 195.798 53.02C198.885 53.02 201.852 54.3 203.654 56.75C204.82 58.35 205.566 60.16 205.566 63.79V75.63H202.808V64C202.808 61.12 202.28 59.63 201.534 58.56C200.259 56.75 198.238 55.57 195.798 55.57C192.611 55.57 189.853 57.28 188.15 60.16V75.52H185.392V53.56H188.051V56.65H188.041Z" fill="white"/>
<path d="M229.146 75.64V72.33C227.553 74.57 224.685 76.06 221.18 76.06C219.059 76.06 216.828 75.53 214.598 73.93C211.73 71.9 209.928 68.49 209.928 64.44C209.928 60.71 211.521 57.51 214.07 55.37C215.873 53.88 218.422 52.92 221.08 52.92C224.267 52.92 227.135 54.2 229.156 56.44V53.56H231.815V75.75H229.156V75.64H229.146ZM229.037 60.17C228.081 58.57 225.213 55.69 221.07 55.69C219.268 55.69 217.247 56.33 215.763 57.61C213.851 59.21 212.686 61.77 212.686 64.65C212.686 67.74 214.07 70.41 216.191 71.9C217.575 72.86 219.268 73.5 221.18 73.5C224.476 73.5 227.344 71.69 229.037 68.59V60.16V60.17Z" fill="white"/>
</g>
<line x1="97.7047" y1="122.5" x2="196.705" y2="122.5" stroke="#E2E8F0"/>
<path d="M75.1579 190.556H72.4912L60 155.468H65.5205L73.8947 180.216L82.7368 155.468H85.4035L94.2456 180.216L102.62 155.468H108.187L95.6959 190.556H93.0292L84.0936 165.901L75.1579 190.556ZM122.082 171C118.105 171 114.877 174.322 114.877 179.047C114.877 183.725 118.105 187.094 122.082 187.094C126.058 187.094 129.287 183.725 129.287 179.047C129.287 174.322 126.058 171 122.082 171V171ZM122.082 167.023C128.725 167.023 134.105 172.17 134.105 179.047C134.105 185.924 128.725 191.023 122.082 191.023C115.439 191.023 110.058 185.924 110.058 179.047C110.058 172.17 115.439 167.023 122.082 167.023V167.023ZM153.146 167.725L152.117 171.515C151.789 171.327 150.76 171 149.918 171C145.942 171 144.07 174.789 144.07 179.468V190.556H139.251V167.444H144.07V170.719C144.632 168.567 147.111 167.023 149.871 167.023C151.135 167.023 152.491 167.351 153.146 167.725ZM155.018 179.047C155.018 172.17 159.93 167.023 166.573 167.023C168.866 167.023 171.673 168.006 173.216 169.269V155.468H178.082V190.556H173.216V188.825C171.392 190.181 168.866 191.023 166.573 191.023C159.93 191.023 155.018 185.924 155.018 179.047V179.047ZM159.883 179.047C159.883 183.725 163.111 187.094 167.041 187.094C169.661 187.094 172 185.877 173.216 183.398C173.871 182.135 174.246 180.637 174.246 179.047C174.246 177.456 173.871 175.959 173.216 174.649C172 172.17 169.661 171 167.041 171C163.111 171 159.883 174.322 159.883 179.047V179.047ZM190.152 167.444V190.556H185.333V167.444H190.152ZM190.386 158.977C190.386 160.474 189.216 161.643 187.719 161.643C186.269 161.643 185.099 160.474 185.099 158.977C185.099 157.526 186.269 156.357 187.719 156.357C189.216 156.357 190.386 157.526 190.386 158.977ZM210.129 159.444C209.427 159.117 208.257 158.696 206.76 159.304C204.468 160.333 204.094 161.269 204.094 165.105V167.444H210.129V171.374H204.094V190.556H199.275V171.374H196.468V167.444H199.275V165.105C199.275 161.456 199.275 160.614 200.678 158.322C202.175 155.842 204.608 155 207.368 155C208.632 155 209.52 155.327 210.129 155.702V159.444V159.444ZM234.409 167.444C234.409 167.444 228.561 181.292 224.678 190.556C221.404 198.322 218.83 203 214.48 203C213.123 203 211.392 202.345 210.129 201.596L211.579 197.386C211.953 197.713 212.795 198.181 213.357 198.322C216.959 199.351 219.205 191.819 220.749 188.123L212 167.444H216.866L223.228 182.602L229.544 167.444H234.409V167.444Z" fill="white"/>
<defs>
<linearGradient id="paint0_linear_555_9976" x1="298.803" y1="246" x2="30.5964" y2="-64.1496" gradientUnits="userSpaceOnUse">
<stop offset="0.489583" stop-color="#061618"/>
<stop offset="0.967248" stop-color="#1C6B71"/>
</linearGradient>
<clipPath id="clip0_555_9976">
<rect width="169.2" height="48" fill="white" transform="translate(62.6047 43)"/>
</clipPath>
</defs>
</svg>
