<svg width="362" height="241" viewBox="0 0 362 241" fill="none" xmlns="http://www.w3.org/2000/svg">
<rect width="362" height="241" rx="16" fill="url(#paint0_linear_557_10390)"/>
<g clip-path="url(#clip0_557_10390)">
<path d="M132.502 50.03C126.129 50.03 121.031 55.26 121.031 61.55C121.031 67.84 126.239 73.07 132.502 73.07C138.765 73.07 143.973 67.84 143.973 61.55C144.083 55.26 138.875 50.03 132.502 50.03V50.03ZM132.502 66.67C129.744 66.67 127.513 64.43 127.513 61.66C127.513 58.89 129.744 56.65 132.502 56.65C135.26 56.65 137.491 58.89 137.491 61.66C137.491 64.43 135.26 66.67 132.502 66.67ZM119.547 88C116.789 88 114.558 85.76 114.558 82.99C114.558 80.22 116.789 77.98 119.547 77.98C122.305 77.98 124.536 80.22 124.536 82.99C124.536 85.76 122.305 88 119.547 88Z" fill="#EE1D3E"/>
<path d="M117.207 69.33C115.086 71.78 111.9 73.17 108.494 73.17C102.33 73.17 96.5947 68.69 96.5947 61.54C96.5947 55.35 101.374 50.02 107.956 50.02C111.671 50.02 114.439 51.51 116.351 53.43L114.648 55.46C113.055 53.86 110.824 52.69 107.956 52.69C103.286 52.69 99.2434 56.53 99.2434 61.65C99.2434 66.77 103.067 70.61 108.275 70.61C110.824 70.61 113.164 69.54 115.076 67.52L117.197 69.33H117.207Z" fill="white"/>
<path d="M159.806 52.69H158.531C155.554 52.69 152.796 54.72 151.631 57.6V72.75H148.872V50.56H151.631V53.44C152.696 51.84 155.136 50.03 158.641 50.03C159.069 50.03 160.025 50.03 160.234 50.14L159.806 52.7V52.69Z" fill="white"/>
<path d="M182.529 69.12C180.936 71.25 177.749 73.17 173.497 73.17C167.334 73.17 162.454 68.48 162.454 61.65C162.454 55.25 166.806 50.13 172.97 50.13C179.133 50.13 183.276 54.82 183.276 61.01V61.97H165.223C165.432 66.66 168.519 70.72 173.507 70.72C176.375 70.72 178.815 69.55 180.518 67.41L182.539 69.12H182.529ZM165.432 59.31H180.518C179.99 55.47 176.903 52.7 173.079 52.7C169.146 52.7 166.179 55.47 165.432 59.31Z" fill="white"/>
<path d="M196.868 71.04C194 69.01 192.198 65.6 192.198 61.55C192.198 57.82 193.791 54.62 196.34 52.48C198.143 50.99 200.692 50.03 203.35 50.03C206.427 50.03 209.295 51.2 211.317 53.44V40H214.075V72.64H211.416V69.33C209.823 71.57 206.955 73.06 203.45 73.06C201.329 73.17 199.099 72.63 196.868 71.03V71.04ZM211.317 57.17C210.361 55.57 207.493 52.69 203.35 52.69C201.548 52.69 199.527 53.33 198.043 54.61C196.131 56.21 194.966 58.77 194.966 61.65C194.966 64.74 196.35 67.41 198.471 68.9C199.855 69.86 201.548 70.5 203.46 70.5C206.756 70.5 209.624 68.69 211.317 65.59V57.16V57.17Z" fill="white"/>
<path d="M222.041 53.65C223.843 51.3 226.711 50.02 229.798 50.02C232.885 50.02 235.852 51.3 237.654 53.75C238.82 55.35 239.566 57.16 239.566 60.79V72.63H236.808V61C236.808 58.12 236.28 56.63 235.534 55.56C234.259 53.75 232.238 52.57 229.798 52.57C226.611 52.57 223.853 54.28 222.15 57.16V72.52H219.392V50.56H222.051V53.65H222.041Z" fill="white"/>
<path d="M263.146 72.64V69.33C261.553 71.57 258.685 73.06 255.18 73.06C253.059 73.06 250.828 72.53 248.598 70.93C245.73 68.9 243.928 65.49 243.928 61.44C243.928 57.71 245.521 54.51 248.07 52.37C249.872 50.88 252.422 49.92 255.08 49.92C258.267 49.92 261.135 51.2 263.156 53.44V50.56H265.815V72.75H263.156V72.64H263.146ZM263.036 57.17C262.081 55.57 259.213 52.69 255.07 52.69C253.268 52.69 251.247 53.33 249.763 54.61C247.851 56.21 246.686 58.77 246.686 61.65C246.686 64.74 248.07 67.41 250.191 68.9C251.575 69.86 253.268 70.5 255.18 70.5C258.476 70.5 261.344 68.69 263.036 65.59V57.16V57.17Z" fill="white"/>
</g>
<line x1="131.705" y1="119.5" x2="230.705" y2="119.5" stroke="#E2E8F0"/>
<path d="M109.158 187.556H106.491L94 152.468H99.5205L107.895 177.216L116.737 152.468H119.404L128.246 177.216L136.62 152.468H142.187L129.696 187.556H127.029L118.094 162.901L109.158 187.556ZM156.082 168C152.105 168 148.877 171.322 148.877 176.047C148.877 180.725 152.105 184.094 156.082 184.094C160.058 184.094 163.287 180.725 163.287 176.047C163.287 171.322 160.058 168 156.082 168V168ZM156.082 164.023C162.725 164.023 168.105 169.17 168.105 176.047C168.105 182.924 162.725 188.023 156.082 188.023C149.439 188.023 144.058 182.924 144.058 176.047C144.058 169.17 149.439 164.023 156.082 164.023V164.023ZM187.146 164.725L186.117 168.515C185.789 168.327 184.76 168 183.918 168C179.942 168 178.07 171.789 178.07 176.468V187.556H173.251V164.444H178.07V167.719C178.632 165.567 181.111 164.023 183.871 164.023C185.135 164.023 186.491 164.351 187.146 164.725ZM189.018 176.047C189.018 169.17 193.93 164.023 200.573 164.023C202.866 164.023 205.673 165.006 207.216 166.269V152.468H212.082V187.556H207.216V185.825C205.392 187.181 202.866 188.023 200.573 188.023C193.93 188.023 189.018 182.924 189.018 176.047V176.047ZM193.883 176.047C193.883 180.725 197.111 184.094 201.041 184.094C203.661 184.094 206 182.877 207.216 180.398C207.871 179.135 208.246 177.637 208.246 176.047C208.246 174.456 207.871 172.959 207.216 171.649C206 169.17 203.661 168 201.041 168C197.111 168 193.883 171.322 193.883 176.047V176.047ZM224.152 164.444V187.556H219.333V164.444H224.152ZM224.386 155.977C224.386 157.474 223.216 158.643 221.719 158.643C220.269 158.643 219.099 157.474 219.099 155.977C219.099 154.526 220.269 153.357 221.719 153.357C223.216 153.357 224.386 154.526 224.386 155.977ZM244.129 156.444C243.427 156.117 242.257 155.696 240.76 156.304C238.468 157.333 238.094 158.269 238.094 162.105V164.444H244.129V168.374H238.094V187.556H233.275V168.374H230.468V164.444H233.275V162.105C233.275 158.456 233.275 157.614 234.678 155.322C236.175 152.842 238.608 152 241.368 152C242.632 152 243.52 152.327 244.129 152.702V156.444V156.444ZM268.409 164.444C268.409 164.444 262.561 178.292 258.678 187.556C255.404 195.322 252.83 200 248.48 200C247.123 200 245.392 199.345 244.129 198.596L245.579 194.386C245.953 194.713 246.795 195.181 247.357 195.322C250.959 196.351 253.205 188.819 254.749 185.123L246 164.444H250.866L257.228 179.602L263.544 164.444H268.409V164.444Z" fill="white"/>
<defs>
<linearGradient id="paint0_linear_557_10390" x1="366.666" y1="241" x2="118.371" y2="-118.647" gradientUnits="userSpaceOnUse">
<stop offset="0.489583" stop-color="#061618"/>
<stop offset="0.967248" stop-color="#1C6B71"/>
</linearGradient>
<clipPath id="clip0_557_10390">
<rect width="169.2" height="48" fill="white" transform="translate(96.6047 40)"/>
</clipPath>
</defs>
</svg>
