<svg width="205" height="36" viewBox="0 0 205 36" fill="none" xmlns="http://www.w3.org/2000/svg">
<g clip-path="url(#clip0_557_10272)">
<path d="M36.1958 17.19H28.8921V20.7H36.0236C36.4431 20.7 36.8326 20.5275 37.1472 20.2425C37.4319 19.965 37.6042 19.5375 37.6042 19.0125C37.6117 18.5625 37.4768 18.12 37.2146 17.7525C36.93 17.4 36.6153 17.19 36.1958 17.19ZM36.4431 12.945C36.7577 12.735 36.9 12.2775 36.9 11.685C36.9 11.16 36.7577 10.77 36.5105 10.53C36.2633 10.32 35.9486 10.1775 35.5966 10.1775H28.8921V13.335H35.4617C35.8138 13.335 36.1659 13.1625 36.4431 12.9525V12.945Z" fill="#09B3AF"/>
<path d="M47.1551 0H19.5806C18.7042 0 18 0.705 18 1.545V29.1225C18 29.9625 18.7042 30.4875 19.5432 30.4875H23.6183V35.9925L28.6747 30.5175H47.1476C47.9941 30.5175 48.5185 29.9925 48.5185 29.115V1.5825C48.5185 0.7425 47.9941 0.0375 47.1102 0.0375L47.1476 0L47.1551 0ZM42.5182 22.35C42.1661 22.98 41.6417 23.505 41.005 23.895C40.3383 24.315 39.5967 24.705 38.7577 24.8775C37.9112 25.0875 37.0048 25.26 36.0534 25.26H23.6183V5.6175H37.7389C38.443 5.6175 39.0348 5.76 39.5967 6.075C40.121 6.3525 40.6154 6.7425 41.005 7.2C41.7915 8.16 42.211 9.36 42.196 10.605C42.196 11.52 41.9488 12.3975 41.4919 13.2375C41.02 14.085 40.2783 14.7525 39.3869 15.135C40.5106 15.45 41.387 16.0125 42.0537 16.8225C42.683 17.6625 43.0051 18.75 43.0051 20.1225C43.0051 21 42.8328 21.735 42.4807 22.365H42.5182V22.35Z" fill="#09B3AF"/>
<path d="M67.5609 25.125C66.3324 25.125 65.1338 24.9525 63.9427 24.5625C62.8191 24.2025 61.7928 23.6025 60.9238 22.8075L62.5044 20.1375C63.3809 20.7375 64.2274 21.1875 65.0664 21.54C65.823 21.87 66.632 22.035 67.456 22.035C68.0178 22.035 68.4748 21.93 68.7894 21.72C69.104 21.5475 69.2464 21.225 69.2464 20.8425C69.2464 20.49 69.0741 20.1375 68.6471 19.9275C67.9879 19.6125 67.2912 19.3725 66.5721 19.2225L64.115 18.4125C63.4483 18.135 62.9239 17.85 62.4969 17.535C62.0774 17.2575 61.7628 16.8675 61.583 16.485C61.3883 16.0425 61.2984 15.5625 61.2984 15.0825C61.2759 13.7025 61.8827 12.3825 62.9464 11.505C63.4408 11.085 64.0701 10.77 64.7742 10.5225C65.4784 10.275 66.25 10.17 67.059 10.17C68.1452 10.17 69.164 10.3125 70.1153 10.59C71.0667 10.905 71.9806 11.43 72.857 12.2025L71.1341 14.835C70.4524 14.3475 69.7258 13.935 68.9542 13.605C68.2875 13.3275 67.6882 13.2225 67.059 13.2225C66.602 13.2225 66.1825 13.29 65.8679 13.5C65.5158 13.6725 65.3735 13.995 65.3735 14.415C65.3735 14.835 65.5458 15.12 65.8979 15.33C66.25 15.54 66.9541 15.75 67.898 15.9975C68.7819 16.2225 69.6434 16.485 70.4974 16.8075C71.2015 17.085 71.7634 17.4075 72.2203 17.7225C73.0818 18.36 73.5612 19.3875 73.4863 20.46C73.4863 21.9 72.9619 23.025 71.8682 23.865C70.812 24.705 69.4112 25.125 67.5459 25.125H67.5609ZM84.9476 24.105C84.2734 24.3825 83.5767 24.615 82.8726 24.81C82.101 25.02 81.3294 25.1625 80.5204 25.1625C79.9585 25.1625 79.4641 25.095 78.9772 24.9525C78.4978 24.81 78.0558 24.5775 77.6813 24.2475C77.3292 23.97 77.052 23.5425 76.8348 23.0925C76.625 22.5975 76.4827 22.005 76.4827 21.3V13.755H74.6549V10.455H76.5202V5.8575H80.8725V10.4175H83.8239V13.7475H80.8725V19.785C80.8725 20.2425 80.9773 20.595 81.2245 20.835C81.4717 21.0075 81.7864 21.1125 82.1384 21.1125C82.4905 21.1125 82.8426 21.075 83.1572 20.94C83.5093 20.835 83.8239 20.73 84.0711 20.5875L84.9176 24.0975H84.9551L84.9476 24.105ZM93.1652 25.125C92.0491 25.1475 90.9404 24.945 89.8991 24.525C88.0713 23.805 86.6405 22.335 85.9664 20.49C85.2772 18.66 85.2772 16.635 85.9664 14.805C86.6405 12.96 88.0713 11.49 89.8991 10.77C90.8505 10.3875 91.9367 10.17 93.1652 10.17C95.3002 10.0725 97.3752 10.8975 98.8584 12.45C99.5251 13.1175 100.02 13.9275 100.372 14.7975C101.091 16.635 101.091 18.675 100.372 20.52C99.6899 22.3425 98.2741 23.7975 96.4688 24.5175C95.42 24.9375 94.2964 25.14 93.1652 25.1175V25.125ZM90.004 17.685C90.004 18.81 90.2887 19.7175 90.8805 20.385C91.5097 21.09 92.2888 21.435 93.1952 21.435C94.0791 21.45 94.9181 21.0675 95.48 20.385C95.7721 20.0325 95.9968 19.6275 96.1467 19.1925C96.319 18.735 96.3939 18.21 96.3939 17.685C96.3939 16.53 96.0792 15.615 95.48 14.9475C94.8807 14.2425 94.1091 13.8975 93.1952 13.8975C92.3187 13.8975 91.4798 14.28 90.9104 14.9475C90.6258 15.3 90.3861 15.6525 90.2063 16.14C90.049 16.635 89.9741 17.16 89.9965 17.685H90.004ZM112.237 14.2125C111.181 14.2125 110.2 14.385 109.323 14.7375C108.552 15 107.893 15.5175 107.458 16.2075V24.8775H103.068V10.455H107.106V13.335C107.6 12.3525 108.23 11.58 109.039 11.055C109.81 10.4925 110.619 10.215 111.496 10.1775H111.953L112.237 10.215V14.2125V14.2125ZM114.17 27.0225C114.784 27.2325 115.421 27.3525 116.065 27.375C116.59 27.375 117.017 27.2025 117.331 26.85C117.616 26.4975 117.856 25.8 118.103 24.885L112.619 10.4625H117.152L120.485 21.0975L123.399 10.4625H127.512L121.998 27.2025C121.137 30.045 118.23 31.755 115.324 31.1325C114.972 31.065 114.552 30.96 114.163 30.78V27.0225H114.17ZM137.917 25.125C136.83 25.125 135.842 24.915 135.04 24.42C134.216 23.97 133.542 23.3025 133.07 22.4925V24.8775H129.242V4.8075H133.669V12.81C134.636 11.13 136.441 10.1175 138.374 10.1775C139.288 10.1775 140.127 10.35 140.906 10.7775C141.677 11.13 142.314 11.6925 142.906 12.3525C144.636 14.745 145.108 17.8275 144.172 20.6325C143.82 21.5475 143.325 22.35 142.733 23.0175C141.497 24.3675 139.752 25.1325 137.924 25.125H137.917ZM136.688 21.4425C138.111 21.4425 139.385 20.5425 139.849 19.2C140.366 17.79 140.112 16.2075 139.183 15.0225C138.636 14.3025 137.774 13.8825 136.868 13.8975C136.201 13.8975 135.564 14.145 134.973 14.6025C134.411 15.0975 133.954 15.69 133.639 16.425V19.44C134.209 20.6325 135.407 21.3975 136.733 21.405L136.696 21.4425H136.688ZM146.801 4.8075H151.191V19.7175C151.191 20.8425 151.648 21.3675 152.599 21.3675C153.101 21.3675 153.595 21.2475 154.037 21.015L154.637 24.2775C153.408 24.8175 152.082 25.1025 150.734 25.1175C149.468 25.1175 148.487 24.765 147.82 24.135C147.116 23.43 146.764 22.5225 146.764 21.255V4.8075H146.801V4.8075ZM162.922 25.125C161.806 25.1475 160.697 24.945 159.656 24.525C157.82 23.805 156.375 22.3425 155.685 20.49C154.667 17.73 155.236 14.64 157.161 12.42C157.865 11.715 158.637 11.19 159.618 10.77C160.57 10.3875 161.656 10.17 162.884 10.17C165.019 10.0725 167.094 10.8975 168.577 12.45C169.282 13.1175 169.739 13.9275 170.091 14.7975C171.147 17.55 170.578 20.6625 168.615 22.8675C167.926 23.595 167.087 24.1575 166.158 24.5175C165.117 24.93 164.008 25.1325 162.892 25.1175H162.929L162.922 25.125ZM159.723 17.685C159.723 18.81 160.008 19.7175 160.6 20.385C161.229 21.09 162.008 21.435 162.914 21.435C163.798 21.45 164.637 21.06 165.199 20.385C165.491 20.0325 165.716 19.6275 165.866 19.1925C166.038 18.735 166.113 18.21 166.113 17.685C166.113 16.53 165.798 15.615 165.199 14.9475C164.6 14.2425 163.828 13.8975 162.914 13.8975C162.038 13.8975 161.199 14.28 160.629 14.9475C160.345 15.3 160.105 15.6525 159.925 16.14C159.746 16.6275 159.716 17.1225 159.716 17.685H159.723ZM182.518 24.8775L178.758 19.05L177.215 20.6625V24.87H172.825V4.8075H177.215V16.425L182.099 10.4625H186.773L181.574 16.6725L187.193 24.885H182.518V24.8775Z" fill="#061618"/>
</g>
<defs>
<clipPath id="clip0_557_10272">
<rect width="169.2" height="36" fill="white" transform="translate(18)"/>
</clipPath>
</defs>
</svg>
