<svg width="205" height="36" viewBox="0 0 205 36" fill="none" xmlns="http://www.w3.org/2000/svg">
<g clip-path="url(#clip0_557_10291)">
<path d="M65.9231 7.52251C61.1434 7.52251 57.3197 11.445 57.3197 16.1625C57.3197 20.88 61.2256 24.8025 65.9231 24.8025C70.6206 24.8025 74.5265 20.88 74.5265 16.1625C74.6086 11.445 70.7027 7.52251 65.9231 7.52251V7.52251ZM65.9231 20.0025C63.8544 20.0025 62.1815 18.3225 62.1815 16.245C62.1815 14.1675 63.8544 12.4875 65.9231 12.4875C67.9918 12.4875 69.6646 14.1675 69.6646 16.245C69.6646 18.3225 67.9918 20.0025 65.9231 20.0025ZM56.2069 36C54.1382 36 52.4653 34.32 52.4653 32.2425C52.4653 30.165 54.1382 28.485 56.2069 28.485C58.2756 28.485 59.9485 30.165 59.9485 32.2425C59.9485 34.32 58.2756 36 56.2069 36Z" fill="#EE1D3E"/>
<path d="M54.4519 21.9975C52.8612 23.835 50.4713 24.8775 47.9172 24.8775C43.2944 24.8775 38.9927 21.5175 38.9927 16.155C38.9927 11.5125 42.5774 7.515 47.5139 7.515C50.2996 7.515 52.3757 8.6325 53.8096 10.0725L52.5326 11.595C51.3376 10.395 49.6648 9.5175 47.5139 9.5175C44.0113 9.5175 40.9792 12.3975 40.9792 16.2375C40.9792 20.0775 43.847 22.9575 47.7529 22.9575C49.6648 22.9575 51.4198 22.155 52.8537 20.64L54.4444 21.9975H54.4519Z" fill="#061618"/>
<path d="M86.4008 9.51751H85.4449C83.2119 9.51751 81.1432 11.04 80.2694 13.2V24.5625H78.2007V7.92001H80.2694V10.08C81.0685 8.88001 82.8982 7.52251 85.527 7.52251C85.8481 7.52251 86.5651 7.52251 86.7219 7.60501L86.4008 9.52501V9.51751Z" fill="#061618"/>
<path d="M103.444 21.84C102.249 23.4375 99.8589 24.8775 96.67 24.8775C92.0471 24.8775 88.3877 21.36 88.3877 16.2375C88.3877 11.4375 91.6513 7.5975 96.2741 7.5975C100.897 7.5975 104.004 11.115 104.004 15.7575V16.4775H90.4639C90.6207 19.995 92.9358 23.04 96.6774 23.04C98.8283 23.04 100.658 22.1625 101.935 20.5575L103.451 21.84H103.444ZM90.6207 14.4825H101.935C101.539 11.6025 99.2241 9.525 96.3563 9.525C93.4063 9.525 91.1808 11.6025 90.6207 14.4825Z" fill="#061618"/>
<path d="M114.198 23.28C112.047 21.7575 110.695 19.2 110.695 16.1625C110.695 13.365 111.89 10.965 113.802 9.36C115.154 8.2425 117.066 7.5225 119.06 7.5225C121.367 7.5225 123.518 8.4 125.034 10.08V0H127.103V24.48H125.109V21.9975C123.914 23.6775 121.763 24.795 119.134 24.795C117.544 24.8775 115.871 24.4725 114.198 23.2725V23.28ZM125.034 12.8775C124.317 11.6775 122.167 9.5175 119.06 9.5175C117.708 9.5175 116.192 9.9975 115.079 10.9575C113.645 12.1575 112.771 14.0775 112.771 16.2375C112.771 18.555 113.81 20.5575 115.4 21.675C116.438 22.395 117.708 22.875 119.142 22.875C121.614 22.875 123.765 21.5175 125.034 19.1925V12.87V12.8775Z" fill="#061618"/>
<path d="M133.077 10.2375C134.429 8.475 136.58 7.515 138.895 7.515C141.21 7.515 143.436 8.475 144.788 10.3125C145.661 11.5125 146.221 12.87 146.221 15.5925V24.4725H144.153V15.75C144.153 13.59 143.757 12.4725 143.197 11.67C142.241 10.3125 140.725 9.4275 138.895 9.4275C136.505 9.4275 134.437 10.71 133.16 12.87V24.39H131.091V7.92H133.085V10.2375H133.077Z" fill="#061618"/>
<path d="M163.906 24.48V21.9975C162.711 23.6775 160.561 24.795 157.932 24.795C156.341 24.795 154.668 24.3975 152.995 23.1975C150.844 21.675 149.493 19.1175 149.493 16.08C149.493 13.2825 150.688 10.8825 152.599 9.2775C153.951 8.16 155.863 7.44 157.857 7.44C160.247 7.44 162.398 8.4 163.914 10.08V7.92H165.908V24.5625H163.914V24.48H163.906ZM163.824 12.8775C163.107 11.6775 160.956 9.5175 157.85 9.5175C156.498 9.5175 154.982 9.9975 153.869 10.9575C152.435 12.1575 151.561 14.0775 151.561 16.2375C151.561 18.555 152.599 20.5575 154.19 21.675C155.228 22.395 156.498 22.875 157.932 22.875C160.404 22.875 162.555 21.5175 163.824 19.1925V12.87V12.8775Z" fill="#061618"/>
</g>
<defs>
<clipPath id="clip0_557_10291">
<rect width="126.9" height="36" fill="white" transform="translate(39)"/>
</clipPath>
</defs>
</svg>
