<svg width="295" height="246" viewBox="0 0 295 246" fill="none" xmlns="http://www.w3.org/2000/svg">
<rect width="295" height="246" rx="16" fill="url(#paint0_linear_557_10405)"/>
<path d="M99.2946 52.1281C99.2646 51.8882 99.0547 51.7582 98.8847 51.7482C98.7148 51.7382 95.1155 51.4682 95.1155 51.4682C95.1155 51.4682 92.616 48.9888 92.3361 48.7088C92.0661 48.4389 91.5262 48.5189 91.3163 48.5788C91.2863 48.5788 90.7664 48.7488 89.9166 49.0087C89.0768 46.6092 87.6071 44.3997 85.0076 44.3997C84.9376 44.3997 84.8576 44.3997 84.7876 44.3997C84.0478 43.4199 83.138 43 82.3482 43C76.3094 43 73.42 50.5584 72.5102 54.3976C70.1607 55.1275 68.491 55.6374 68.2811 55.7074C66.9713 56.1173 66.9314 56.1573 66.7614 57.397C66.6314 58.3368 63.2021 84.8513 63.2021 84.8513L89.9266 89.8602L104.404 86.7309C104.404 86.7309 99.3246 52.3681 99.2846 52.1281H99.2946ZM88.4369 49.4687C87.767 49.6786 87.0072 49.9086 86.1773 50.1685C86.1773 50.0085 86.1773 49.8486 86.1773 49.6786C86.1773 48.1889 85.9674 46.9792 85.6375 46.0294C86.9772 46.1993 87.867 47.719 88.4369 49.4687V49.4687ZM83.9778 46.3293C84.3477 47.2591 84.5877 48.5988 84.5877 50.3985C84.5877 50.4884 84.5877 50.5784 84.5877 50.6584C83.118 51.1183 81.5183 51.6082 79.9187 52.1081C80.8185 48.6388 82.5081 46.9592 83.9778 46.3293V46.3293ZM82.1782 44.6297C82.4381 44.6297 82.6981 44.7196 82.958 44.8896C81.0184 45.7994 78.9489 48.0989 78.069 52.678C76.7893 53.0779 75.5396 53.4578 74.3798 53.8178C75.4096 50.3185 77.8491 44.6197 82.1882 44.6197L82.1782 44.6297Z" fill="#95BF47"/>
<path d="M98.8847 51.7382C98.7147 51.7282 95.1154 51.4583 95.1154 51.4583C95.1154 51.4583 92.616 48.9788 92.336 48.6988C92.236 48.5989 92.0961 48.5489 91.9461 48.5189L89.9265 89.8503L104.404 86.7209C104.404 86.7209 99.3246 52.3581 99.2846 52.1181C99.2546 51.8782 99.0446 51.7482 98.8747 51.7382H98.8847Z" fill="#5E8E3E"/>
<path d="M85.0175 59.7466L83.2279 65.0555C83.2279 65.0555 81.6682 64.2157 79.7486 64.2157C76.9392 64.2157 76.7992 65.9753 76.7992 66.4252C76.7992 68.8547 83.1179 69.7845 83.1179 75.4633C83.1179 79.9324 80.2785 82.8118 76.4593 82.8118C71.8703 82.8118 69.5308 79.9524 69.5308 79.9524L70.7605 75.8932C70.7605 75.8932 73.17 77.9628 75.2096 77.9628C76.5393 77.9628 77.0792 76.913 77.0792 76.1532C77.0792 72.9938 71.8903 72.8439 71.8903 67.645C71.8903 63.2659 75.0296 59.0367 81.3683 59.0367C83.8078 59.0367 85.0175 59.7366 85.0175 59.7366V59.7466Z" fill="white"/>
<path d="M121.29 69.7044C119.85 68.9246 119.1 68.2647 119.1 67.3549C119.1 66.1952 120.13 65.4553 121.74 65.4553C123.61 65.4553 125.289 66.2352 125.289 66.2352L126.609 62.196C126.609 62.196 125.399 61.2462 121.82 61.2462C116.851 61.2462 113.402 64.0956 113.402 68.0948C113.402 70.3643 115.011 72.0939 117.161 73.3337C118.891 74.3235 119.51 75.0233 119.51 76.0531C119.51 77.0829 118.641 77.9927 117.031 77.9927C114.631 77.9927 112.372 76.753 112.372 76.753L110.972 80.7921C110.972 80.7921 113.062 82.1918 116.581 82.1918C121.7 82.1918 125.369 79.6723 125.369 75.1333C125.369 72.7038 123.51 70.9642 121.28 69.6844L121.29 69.7044Z" fill="white"/>
<path d="M141.666 61.1962C139.146 61.1962 137.167 62.396 135.637 64.2056L135.557 64.1656L137.747 52.738H132.058L126.529 81.8219H132.218L134.117 71.874C134.857 68.1148 136.797 65.8053 138.616 65.8053C139.896 65.8053 140.386 66.6751 140.386 67.9048C140.386 68.6847 140.306 69.6345 140.136 70.4243L137.987 81.812H143.685L145.915 70.0544C146.165 68.8147 146.325 67.335 146.325 66.3452C146.325 63.1258 144.635 61.1862 141.666 61.1862V61.1962Z" fill="white"/>
<path d="M159.202 61.1962C152.354 61.1962 147.814 67.3849 147.814 74.2735C147.814 78.6926 150.534 82.2318 155.653 82.2318C162.381 82.2318 166.92 76.2031 166.92 69.1545C166.92 65.0654 164.531 61.1962 159.202 61.1962V61.1962ZM156.393 77.8627C154.453 77.8627 153.623 76.2131 153.623 74.1535C153.623 70.8942 155.313 65.5753 158.412 65.5753C160.432 65.5753 161.092 67.3049 161.092 69.0046C161.092 72.5138 159.402 77.8727 156.393 77.8727V77.8627Z" fill="white"/>
<path d="M181.487 61.1962C177.648 61.1962 175.459 64.5755 175.459 64.5755H175.379L175.709 61.5261H170.68C170.43 63.5857 169.98 66.7251 169.52 69.0746L165.561 89.9102H171.259L172.829 81.492H172.949C172.949 81.492 174.119 82.2318 176.288 82.2318C182.977 82.2318 187.346 75.3833 187.346 68.4547C187.346 64.6155 185.657 61.1962 181.487 61.1962V61.1962ZM176.038 77.9427C174.559 77.9427 173.689 77.1129 173.689 77.1129L174.639 71.794C175.299 68.2447 177.158 65.8952 179.138 65.8952C180.867 65.8952 181.407 67.5049 181.407 69.0346C181.407 72.7038 179.218 77.9427 176.049 77.9427H176.038Z" fill="white"/>
<path d="M195.475 53.028C193.655 53.028 192.215 54.4677 192.215 56.3273C192.215 58.0169 193.285 59.1767 194.895 59.1767H194.975C196.744 59.1767 198.274 57.9769 198.314 55.8774C198.314 54.2277 197.204 53.028 195.465 53.028H195.475Z" fill="white"/>
<path d="M187.506 81.8319H193.205L197.084 61.6562H191.346L187.506 81.8319Z" fill="white"/>
<path d="M211.561 61.6161H207.602L207.812 60.6663C208.142 58.7267 209.302 56.9971 211.191 56.9971C212.201 56.9971 213.011 57.287 213.011 57.287L214.121 52.8279C214.121 52.8279 213.131 52.328 211.021 52.328C208.912 52.328 206.982 52.9079 205.453 54.2276C203.513 55.8773 202.603 58.2668 202.153 60.6663L201.983 61.6161H199.344L198.514 65.9052H201.153L198.144 81.8319H203.843L206.852 65.9052H210.771L211.551 61.6161H211.561Z" fill="white"/>
<path d="M225.258 61.6562C225.258 61.6562 221.699 70.6243 220.099 75.5233H220.019C219.909 73.9436 218.62 61.6562 218.62 61.6562H212.641L216.07 80.1823C216.15 80.5922 216.11 80.8422 215.95 81.1321C215.29 82.4118 214.181 83.6516 212.851 84.5614C211.781 85.3412 210.581 85.8411 209.632 86.171L211.201 91C212.361 90.7501 214.751 89.8003 216.77 87.9007C219.37 85.4712 221.759 81.712 224.239 76.5931L231.207 61.6562H225.268H225.258Z" fill="white"/>
<line x1="97.7047" y1="122.5" x2="196.705" y2="122.5" stroke="#E2E8F0"/>
<path d="M75.1579 190.556H72.4912L60 155.468H65.5205L73.8947 180.216L82.7368 155.468H85.4035L94.2456 180.216L102.62 155.468H108.187L95.6959 190.556H93.0292L84.0936 165.901L75.1579 190.556ZM122.082 171C118.105 171 114.877 174.322 114.877 179.047C114.877 183.725 118.105 187.094 122.082 187.094C126.058 187.094 129.287 183.725 129.287 179.047C129.287 174.322 126.058 171 122.082 171V171ZM122.082 167.023C128.725 167.023 134.105 172.17 134.105 179.047C134.105 185.924 128.725 191.023 122.082 191.023C115.439 191.023 110.058 185.924 110.058 179.047C110.058 172.17 115.439 167.023 122.082 167.023V167.023ZM153.146 167.725L152.117 171.515C151.789 171.327 150.76 171 149.918 171C145.942 171 144.07 174.789 144.07 179.468V190.556H139.251V167.444H144.07V170.719C144.632 168.567 147.111 167.023 149.871 167.023C151.135 167.023 152.491 167.351 153.146 167.725ZM155.018 179.047C155.018 172.17 159.93 167.023 166.573 167.023C168.866 167.023 171.673 168.006 173.216 169.269V155.468H178.082V190.556H173.216V188.825C171.392 190.181 168.866 191.023 166.573 191.023C159.93 191.023 155.018 185.924 155.018 179.047V179.047ZM159.883 179.047C159.883 183.725 163.111 187.094 167.041 187.094C169.661 187.094 172 185.877 173.216 183.398C173.871 182.135 174.246 180.637 174.246 179.047C174.246 177.456 173.871 175.959 173.216 174.649C172 172.17 169.661 171 167.041 171C163.111 171 159.883 174.322 159.883 179.047V179.047ZM190.152 167.444V190.556H185.333V167.444H190.152ZM190.386 158.977C190.386 160.474 189.216 161.643 187.719 161.643C186.269 161.643 185.099 160.474 185.099 158.977C185.099 157.526 186.269 156.357 187.719 156.357C189.216 156.357 190.386 157.526 190.386 158.977ZM210.129 159.444C209.427 159.117 208.257 158.696 206.76 159.304C204.468 160.333 204.094 161.269 204.094 165.105V167.444H210.129V171.374H204.094V190.556H199.275V171.374H196.468V167.444H199.275V165.105C199.275 161.456 199.275 160.614 200.678 158.322C202.175 155.842 204.608 155 207.368 155C208.632 155 209.52 155.327 210.129 155.702V159.444V159.444ZM234.409 167.444C234.409 167.444 228.561 181.292 224.678 190.556C221.404 198.322 218.83 203 214.48 203C213.123 203 211.392 202.345 210.129 201.596L211.579 197.386C211.953 197.713 212.795 198.181 213.357 198.322C216.959 199.351 219.205 191.819 220.749 188.123L212 167.444H216.866L223.228 182.602L229.544 167.444H234.409V167.444Z" fill="white"/>
<defs>
<linearGradient id="paint0_linear_557_10405" x1="298.803" y1="246" x2="30.5964" y2="-64.1496" gradientUnits="userSpaceOnUse">
<stop offset="0.489583" stop-color="#061618"/>
<stop offset="0.967248" stop-color="#1C6B71"/>
</linearGradient>
</defs>
</svg>
