<svg width="510" height="425" viewBox="0 0 510 425" fill="none" xmlns="http://www.w3.org/2000/svg">
<g clip-path="url(#clip0_589_14336)">
<path d="M28.4343 178.56L29.068 177.787L28.3982 177.238L27.7593 177.823L28.4343 178.56ZM35.3838 184.253L34.7502 185.027L35.4609 185.609L36.1011 184.95L35.3838 184.253ZM57.9999 161.985C57.9919 161.433 57.5377 160.992 56.9855 161L47.9864 161.131C47.4342 161.139 46.993 161.593 47.0011 162.145C47.0091 162.697 47.4632 163.139 48.0155 163.131L56.0146 163.014L56.1307 171.014C56.1387 171.566 56.5929 172.007 57.1451 171.999C57.6974 171.991 58.1385 171.537 58.1305 170.985L57.9999 161.985ZM5.67501 200.738L29.1094 179.298L27.7593 177.823L4.32499 199.262L5.67501 200.738ZM27.8007 179.334L34.7502 185.027L36.0175 183.479L29.068 177.787L27.8007 179.334ZM36.1011 184.95L57.7173 162.697L56.2827 161.303L34.6665 183.556L36.1011 184.95Z" fill="url(#paint0_linear_589_14336)"/>
<path d="M152.434 403.56L153.068 402.787L152.398 402.238L151.759 402.823L152.434 403.56ZM159.384 409.253L158.75 410.027L159.461 410.609L160.101 409.95L159.384 409.253ZM182 386.985C181.992 386.433 181.538 385.992 180.985 386L171.986 386.131C171.434 386.139 170.993 386.593 171.001 387.145C171.009 387.697 171.463 388.139 172.015 388.131L180.015 388.014L180.131 396.014C180.139 396.566 180.593 397.007 181.145 396.999C181.697 396.991 182.139 396.537 182.131 395.985L182 386.985ZM129.675 425.738L153.109 404.298L151.759 402.823L128.325 424.262L129.675 425.738ZM151.801 404.334L158.75 410.027L160.018 408.479L153.068 402.787L151.801 404.334ZM160.101 409.95L181.717 387.697L180.283 386.303L158.667 408.556L160.101 409.95Z" fill="url(#paint1_linear_589_14336)"/>
<path d="M319.434 336.56L320.068 335.787L319.398 335.238L318.759 335.823L319.434 336.56ZM326.384 342.253L325.75 343.027L326.461 343.609L327.101 342.95L326.384 342.253ZM349 319.985C348.992 319.433 348.538 318.992 347.985 319L338.986 319.131C338.434 319.139 337.993 319.593 338.001 320.145C338.009 320.697 338.463 321.139 339.015 321.131L347.015 321.014L347.131 329.014C347.139 329.566 347.593 330.007 348.145 329.999C348.697 329.991 349.139 329.537 349.131 328.985L349 319.985ZM296.675 358.738L320.109 337.298L318.759 335.823L295.325 357.262L296.675 358.738ZM318.801 337.334L325.75 343.027L327.018 341.479L320.068 335.787L318.801 337.334ZM327.101 342.95L348.717 320.697L347.283 319.303L325.667 341.556L327.101 342.95Z" fill="url(#paint2_linear_589_14336)"/>
<path d="M456.434 94.5603L457.068 93.7867L456.398 93.238L455.759 93.8225L456.434 94.5603ZM463.384 100.253L462.75 101.027L463.461 101.609L464.101 100.95L463.384 100.253ZM486 77.9855C485.992 77.4333 485.538 76.9921 484.985 77.0001L475.986 77.1307C475.434 77.1387 474.993 77.5929 475.001 78.1451C475.009 78.6974 475.463 79.1385 476.015 79.1305L484.015 79.0144L484.131 87.0136C484.139 87.5658 484.593 88.007 485.145 87.9989C485.697 87.9909 486.139 87.5368 486.131 86.9845L486 77.9855ZM433.675 116.738L457.109 95.2981L455.759 93.8225L432.325 115.262L433.675 116.738ZM455.801 95.3339L462.75 101.027L464.018 99.4793L457.068 93.7867L455.801 95.3339ZM464.101 100.95L485.717 78.6968L484.283 77.3032L462.667 99.5561L464.101 100.95Z" fill="url(#paint3_linear_589_14336)"/>
<path d="M28.4343 42.5603L29.068 41.7867L28.3982 41.238L27.7593 41.8225L28.4343 42.5603ZM35.3838 48.2529L34.7502 49.0265L35.4609 49.6087L36.1011 48.9497L35.3838 48.2529ZM57.9999 25.9855C57.9919 25.4333 57.5377 24.9921 56.9855 25.0001L47.9864 25.1307C47.4342 25.1387 46.993 25.5929 47.0011 26.1451C47.0091 26.6974 47.4632 27.1385 48.0155 27.1305L56.0146 27.0144L56.1307 35.0136C56.1387 35.5658 56.5929 36.007 57.1451 35.9989C57.6974 35.9909 58.1385 35.5368 58.1305 34.9845L57.9999 25.9855ZM5.67501 64.7378L29.1094 43.2981L27.7593 41.8225L4.32499 63.2622L5.67501 64.7378ZM27.8007 43.3339L34.7502 49.0265L36.0175 47.4793L29.068 41.7867L27.8007 43.3339ZM36.1011 48.9497L57.7173 26.6968L56.2827 25.3032L34.6665 47.5561L36.1011 48.9497Z" fill="url(#paint4_linear_589_14336)"/>
<path d="M16.4343 371.56L17.068 370.787L16.3982 370.238L15.7593 370.823L16.4343 371.56ZM23.3838 377.253L22.7502 378.027L23.4609 378.609L24.1011 377.95L23.3838 377.253ZM45.9999 354.985C45.9919 354.433 45.5377 353.992 44.9855 354L35.9864 354.131C35.4342 354.139 34.993 354.593 35.0011 355.145C35.0091 355.697 35.4632 356.139 36.0155 356.131L44.0146 356.014L44.1307 364.014C44.1387 364.566 44.5929 365.007 45.1451 364.999C45.6974 364.991 46.1385 364.537 46.1305 363.985L45.9999 354.985ZM-6.32499 393.738L17.1094 372.298L15.7593 370.823L-7.67501 392.262L-6.32499 393.738ZM15.8007 372.334L22.7502 378.027L24.0175 376.479L17.068 370.787L15.8007 372.334ZM24.1011 377.95L45.7173 355.697L44.2827 354.303L22.6665 376.556L24.1011 377.95Z" fill="url(#paint5_linear_589_14336)"/>
<path d="M75.7141 263.942L76.9827 262.395L75.6417 261.295L74.3628 262.467L75.7141 263.942ZM88.6775 274.578L87.4089 276.124L88.8319 277.291L90.1133 275.97L88.6775 274.578ZM131 232.969C130.983 231.865 130.074 230.983 128.969 231L110.971 231.276C109.867 231.293 108.985 232.202 109.002 233.307C109.019 234.411 109.928 235.293 111.033 235.276L127.031 235.03L127.276 251.029C127.293 252.133 128.202 253.015 129.307 252.998C130.411 252.981 131.293 252.072 131.276 250.967L131 232.969ZM33.3512 305.475L77.0653 265.416L74.3628 262.467L30.6488 302.525L33.3512 305.475ZM74.4455 265.488L87.4089 276.124L89.9461 273.032L76.9827 262.395L74.4455 265.488ZM90.1133 275.97L130.436 234.392L127.564 231.608L87.2418 273.185L90.1133 275.97Z" fill="url(#paint6_linear_589_14336)"/>
<path d="M452.829 32.9455L453.461 32.1704L452.793 31.6259L452.156 32.2061L452.829 32.9455ZM458.709 37.7393L458.078 38.5144L458.786 39.0922L459.425 38.4378L458.709 37.7393ZM478 18.9879C477.993 18.4356 477.54 17.9934 476.988 18.0001L467.989 18.1091C467.436 18.1158 466.994 18.5689 467.001 19.1212C467.007 19.6734 467.461 20.1157 468.013 20.109L476.012 20.012L476.109 28.0115C476.116 28.5637 476.569 29.006 477.121 28.9993C477.673 28.9926 478.116 28.5395 478.109 27.9872L478 18.9879ZM433.673 51.7394L453.502 33.6849L452.156 32.2061L432.327 50.2606L433.673 51.7394ZM452.197 33.7206L458.078 38.5144L459.341 36.9642L453.461 32.1704L452.197 33.7206ZM459.425 38.4378L477.716 19.6985L476.284 18.3015L457.994 37.0408L459.425 38.4378Z" fill="url(#paint7_linear_589_14336)"/>
<path d="M174.829 158.946L175.461 158.17L174.793 157.626L174.156 158.206L174.829 158.946ZM180.709 163.739L180.078 164.514L180.786 165.092L181.425 164.438L180.709 163.739ZM200 144.988C199.993 144.436 199.54 143.993 198.988 144L189.989 144.109C189.436 144.116 188.994 144.569 189.001 145.121C189.007 145.673 189.461 146.116 190.013 146.109L198.012 146.012L198.109 154.011C198.116 154.564 198.569 155.006 199.121 154.999C199.673 154.993 200.116 154.539 200.109 153.987L200 144.988ZM155.673 177.739L175.502 159.685L174.156 158.206L154.327 176.261L155.673 177.739ZM174.197 159.721L180.078 164.514L181.341 162.964L175.461 158.17L174.197 159.721ZM181.425 164.438L199.716 145.698L198.284 144.302L179.994 163.041L181.425 164.438Z" fill="url(#paint8_linear_589_14336)"/>
<path d="M218.829 294.946L219.461 294.17L218.793 293.626L218.156 294.206L218.829 294.946ZM224.709 299.739L224.078 300.514L224.786 301.092L225.425 300.438L224.709 299.739ZM244 280.988C243.993 280.436 243.54 279.993 242.988 280L233.989 280.109C233.436 280.116 232.994 280.569 233.001 281.121C233.007 281.673 233.461 282.116 234.013 282.109L242.012 282.012L242.109 290.011C242.116 290.564 242.569 291.006 243.121 290.999C243.673 290.993 244.116 290.539 244.109 289.987L244 280.988ZM199.673 313.739L219.502 295.685L218.156 294.206L198.327 312.261L199.673 313.739ZM218.197 295.721L224.078 300.514L225.341 298.964L219.461 294.17L218.197 295.721ZM225.425 300.438L243.716 281.698L242.284 280.302L223.994 299.041L225.425 300.438Z" fill="url(#paint9_linear_589_14336)"/>
<path d="M271.829 400.946L272.461 400.17L271.793 399.626L271.156 400.206L271.829 400.946ZM277.709 405.739L277.078 406.514L277.786 407.092L278.425 406.438L277.709 405.739ZM297 386.988C296.993 386.436 296.54 385.993 295.988 386L286.989 386.109C286.436 386.116 285.994 386.569 286.001 387.121C286.007 387.673 286.461 388.116 287.013 388.109L295.012 388.012L295.109 396.011C295.116 396.564 295.569 397.006 296.121 396.999C296.673 396.993 297.116 396.539 297.109 395.987L297 386.988ZM252.673 419.739L272.502 401.685L271.156 400.206L251.327 418.261L252.673 419.739ZM271.197 401.721L277.078 406.514L278.341 404.964L272.461 400.17L271.197 401.721ZM278.425 406.438L296.716 387.698L295.284 386.302L276.994 405.041L278.425 406.438Z" fill="url(#paint10_linear_589_14336)"/>
<path d="M478.829 250.946L479.461 250.17L478.793 249.626L478.156 250.206L478.829 250.946ZM484.709 255.739L484.078 256.514L484.786 257.092L485.425 256.438L484.709 255.739ZM504 236.988C503.993 236.436 503.54 235.993 502.988 236L493.989 236.109C493.436 236.116 492.994 236.569 493.001 237.121C493.007 237.673 493.461 238.116 494.013 238.109L502.012 238.012L502.109 246.011C502.116 246.564 502.569 247.006 503.121 246.999C503.673 246.993 504.116 246.539 504.109 245.987L504 236.988ZM459.673 269.739L479.502 251.685L478.156 250.206L458.327 268.261L459.673 269.739ZM478.197 251.721L484.078 256.514L485.341 254.964L479.461 250.17L478.197 251.721ZM485.425 256.438L503.716 237.698L502.284 236.302L483.994 255.041L485.425 256.438Z" fill="url(#paint11_linear_589_14336)"/>
<path d="M81.7141 81.9416L82.9827 80.3955L81.6417 79.2952L80.3628 80.4671L81.7141 81.9416ZM94.6775 92.5778L93.4089 94.124L94.8319 95.2915L96.1133 93.9702L94.6775 92.5778ZM137 50.9693C136.983 49.8649 136.074 48.9833 134.969 49.0002L116.971 49.2761C115.867 49.293 114.985 50.2021 115.002 51.3065C115.019 52.411 115.928 53.2926 117.033 53.2756L133.031 53.0304L133.276 69.0285C133.293 70.133 134.202 71.0146 135.307 70.9977C136.411 70.9807 137.293 70.0717 137.276 68.9672L137 50.9693ZM39.3512 123.475L83.0653 83.4162L80.3628 80.4671L36.6488 120.525L39.3512 123.475ZM80.4455 83.4878L93.4089 94.124L95.9461 91.0316L82.9827 80.3955L80.4455 83.4878ZM96.1133 93.9702L136.436 52.3924L133.564 49.6076L93.2418 91.1854L96.1133 93.9702Z" fill="url(#paint12_linear_589_14336)"/>
<path d="M427.714 369.942L428.983 368.395L427.642 367.295L426.363 368.467L427.714 369.942ZM440.678 380.578L439.409 382.124L440.832 383.291L442.113 381.97L440.678 380.578ZM483 338.969C482.983 337.865 482.074 336.983 480.969 337L462.971 337.276C461.867 337.293 460.985 338.202 461.002 339.307C461.019 340.411 461.928 341.293 463.033 341.276L479.031 341.03L479.276 357.029C479.293 358.133 480.202 359.015 481.307 358.998C482.411 358.981 483.293 358.072 483.276 356.967L483 338.969ZM385.351 411.475L429.065 371.416L426.363 368.467L382.649 408.525L385.351 411.475ZM426.445 371.488L439.409 382.124L441.946 379.032L428.983 368.395L426.445 371.488ZM442.113 381.97L482.436 340.392L479.564 337.608L439.242 379.185L442.113 381.97Z" fill="url(#paint13_linear_589_14336)"/>
<path d="M330.714 129.942L331.983 128.395L330.642 127.295L329.363 128.467L330.714 129.942ZM343.678 140.578L342.409 142.124L343.832 143.291L345.113 141.97L343.678 140.578ZM386 98.9693C385.983 97.8649 385.074 96.9833 383.969 97.0002L365.971 97.2761C364.867 97.293 363.985 98.2021 364.002 99.3065C364.019 100.411 364.928 101.293 366.033 101.276L382.031 101.03L382.276 117.029C382.293 118.133 383.202 119.015 384.307 118.998C385.411 118.981 386.293 118.072 386.276 116.967L386 98.9693ZM288.351 171.475L332.065 131.416L329.363 128.467L285.649 168.525L288.351 171.475ZM329.445 131.488L342.409 142.124L344.946 139.032L331.983 128.395L329.445 131.488ZM345.113 141.97L385.436 100.392L382.564 97.6076L342.242 139.185L345.113 141.97Z" fill="url(#paint14_linear_589_14336)"/>
<path d="M258.714 45.9416L259.983 44.3955L258.642 43.2952L257.363 44.4671L258.714 45.9416ZM271.678 56.5778L270.409 58.124L271.832 59.2915L273.113 57.9702L271.678 56.5778ZM314 14.9693C313.983 13.8649 313.074 12.9833 311.969 13.0002L293.971 13.2761C292.867 13.293 291.985 14.2021 292.002 15.3065C292.019 16.411 292.928 17.2926 294.033 17.2756L310.031 17.0304L310.276 33.0285C310.293 34.133 311.202 35.0146 312.307 34.9977C313.411 34.9807 314.293 34.0717 314.276 32.9672L314 14.9693ZM216.351 87.4745L260.065 47.4162L257.363 44.4671L213.649 84.5255L216.351 87.4745ZM257.445 47.4878L270.409 58.124L272.946 55.0316L259.983 44.3955L257.445 47.4878ZM273.113 57.9702L313.436 16.3924L310.564 13.6076L270.242 55.1854L273.113 57.9702Z" fill="url(#paint15_linear_589_14336)"/>
<path d="M441.997 183.661L443.266 182.116L441.924 181.014L440.645 182.187L441.997 183.661ZM451.486 191.451L450.217 192.997L451.64 194.166L452.922 192.843L451.486 191.451ZM483 160.969C482.983 159.864 482.073 158.983 480.969 159L462.971 159.281C461.867 159.299 460.985 160.208 461.002 161.312C461.02 162.417 461.929 163.298 463.033 163.281L479.031 163.031L479.281 179.029C479.299 180.133 480.208 181.015 481.312 180.998C482.417 180.98 483.298 180.071 483.281 178.967L483 160.969ZM411.352 214.474L443.349 185.136L440.645 182.187L408.648 211.526L411.352 214.474ZM440.728 185.207L450.217 192.997L452.755 189.906L443.266 182.116L440.728 185.207ZM452.922 192.843L482.436 162.392L479.564 159.608L450.049 190.059L452.922 192.843Z" fill="url(#paint16_linear_589_14336)"/>
<rect x="53" y="62" width="404" height="302" rx="9" fill="url(#paint17_linear_589_14336)"/>
<line x1="54" y1="86" x2="456" y2="86" stroke="#33C0CB" stroke-width="2"/>
<rect x="66" y="71" width="8" height="8" rx="4" fill="#EF4444"/>
<rect x="78" y="71" width="8" height="8" rx="4" fill="#EAB308"/>
<rect x="90" y="71" width="8" height="8" rx="4" fill="#22C55E"/>
<rect x="74" y="170" width="150" height="110" rx="8" fill="#33C0CB" fill-opacity="0.1"/>
<rect x="111" y="206" width="76" height="54" rx="12" fill="#FF0100"/>
<path d="M166 233L140.5 247.722L140.5 218.278L166 233Z" fill="white"/>
<line x1="74" y1="185.5" x2="224" y2="185.5" stroke="#33C0CB"/>
<g clip-path="url(#clip1_589_14336)">
<g opacity="0.5">
<path d="M356.844 174H433.147C434.178 174 435 174.827 435 175.83V269.218C435 270.221 434.178 271.048 433.147 271.048H356.844C355.814 271.048 354.992 270.221 354.992 269.218V175.83C354.992 174.827 355.814 174 356.844 174Z" fill="url(#paint18_linear_589_14336)" stroke="#33C0CB" stroke-width="2"/>
<path d="M364.619 183.551H379.733V198.531H364.619V183.551Z" fill="url(#paint19_linear_589_14336)" stroke="#33C0CB" stroke-width="2"/>
</g>
<path d="M428.156 178.306H351.852C350.474 178.306 349.356 179.415 349.356 180.782V274.17C349.356 275.538 350.474 276.646 351.852 276.646H428.156C429.534 276.646 430.652 275.538 430.652 274.17V180.782C430.652 179.415 429.534 178.306 428.156 178.306Z" fill="url(#paint20_linear_589_14336)"/>
<path d="M421.025 186.442H358.984C358.196 186.442 357.558 187.076 357.558 187.857V211.912C357.558 212.693 358.196 213.326 358.984 213.326H421.025C421.813 213.326 422.451 212.693 422.451 211.912V187.857C422.451 187.076 421.813 186.442 421.025 186.442Z" fill="#C5EDF0" fill-opacity="0.5"/>
<path d="M403.197 217.572H358.271C357.877 217.572 357.558 217.888 357.558 218.279V221.109C357.558 221.5 357.877 221.816 358.271 221.816H403.197C403.591 221.816 403.91 221.5 403.91 221.109V218.279C403.91 217.888 403.591 217.572 403.197 217.572Z" fill="#28969E"/>
<path d="M421.738 224.646H358.271C357.877 224.646 357.558 224.963 357.558 225.354V226.061C357.558 226.452 357.877 226.769 358.271 226.769H421.738C422.132 226.769 422.451 226.452 422.451 226.061V225.354C422.451 224.963 422.132 224.646 421.738 224.646Z" fill="#C5EDF0"/>
<path d="M412.824 228.891H358.271C357.877 228.891 357.558 229.208 357.558 229.599V230.306C357.558 230.697 357.877 231.014 358.271 231.014H412.824C413.218 231.014 413.537 230.697 413.537 230.306V229.599C413.537 229.208 413.218 228.891 412.824 228.891Z" fill="#C5EDF0"/>
<path d="M417.459 233.136H358.271C357.877 233.136 357.558 233.453 357.558 233.843V234.551C357.558 234.942 357.877 235.258 358.271 235.258H417.459C417.853 235.258 418.172 234.942 418.172 234.551V233.843C418.172 233.453 417.853 233.136 417.459 233.136Z" fill="#C5EDF0"/>
<path d="M392.5 237.381H358.271C357.877 237.381 357.558 237.698 357.558 238.088V238.796C357.558 239.187 357.877 239.503 358.271 239.503H392.5C392.894 239.503 393.213 239.187 393.213 238.796V238.088C393.213 237.698 392.894 237.381 392.5 237.381Z" fill="#C5EDF0"/>
<path d="M401.414 241.626H358.271C357.877 241.626 357.558 241.943 357.558 242.333V243.041C357.558 243.432 357.877 243.748 358.271 243.748H401.414C401.808 243.748 402.127 243.432 402.127 243.041V242.333C402.127 241.943 401.808 241.626 401.414 241.626Z" fill="#C5EDF0"/>
<path d="M414.607 252.238H358.271C357.877 252.238 357.558 252.555 357.558 252.946V255.775C357.558 256.166 357.877 256.483 358.271 256.483H414.607C415.001 256.483 415.32 256.166 415.32 255.775V252.946C415.32 252.555 415.001 252.238 414.607 252.238Z" fill="#28969E"/>
<path d="M407.476 259.313H358.271C357.877 259.313 357.558 259.63 357.558 260.02V260.728C357.558 261.119 357.877 261.435 358.271 261.435H407.476C407.869 261.435 408.189 261.119 408.189 260.728V260.02C408.189 259.63 407.869 259.313 407.476 259.313Z" fill="#C5EDF0"/>
<path d="M421.738 263.558H358.271C357.877 263.558 357.558 263.875 357.558 264.265V264.973C357.558 265.364 357.877 265.68 358.271 265.68H421.738C422.132 265.68 422.451 265.364 422.451 264.973V264.265C422.451 263.875 422.132 263.558 421.738 263.558Z" fill="#C5EDF0"/>
<path d="M398.918 267.803H358.271C357.877 267.803 357.558 268.119 357.558 268.51V269.218C357.558 269.608 357.877 269.925 358.271 269.925H398.918C399.312 269.925 399.631 269.608 399.631 269.218V268.51C399.631 268.119 399.312 267.803 398.918 267.803Z" fill="#C5EDF0"/>
<path d="M395.735 202.721C394.936 202.409 395.188 202.102 396.017 202.378C396.472 202.529 396.508 202.565 396.404 202.728C396.306 202.884 396.152 202.884 395.735 202.721Z" fill="#061618"/>
<path d="M395.956 203.004C396.294 203.125 396.355 203.197 396.202 203.311C396.042 203.432 395.716 203.39 395.416 203.215C394.992 202.962 395.403 202.806 395.956 203.004Z" fill="#061618"/>
<path d="M383.814 199.682C384.134 199.454 384.195 199.345 384.066 199.267C383.986 199.219 383.464 198.16 383.102 197.317C382.641 196.246 382.605 196.276 384.355 196.246L385.601 196.222L385.485 195.999C384.478 194.062 384.846 193.177 386.314 194.013C386.682 194.224 387.131 194.477 387.309 194.567C387.689 194.772 387.677 194.826 387.524 193.809C387.382 192.864 387.665 192.575 388.31 193.002C388.426 193.081 388.838 193.394 389.219 193.694C390.029 194.338 389.962 194.314 390.134 193.989C390.484 193.345 391.006 193.117 391.221 193.52C391.497 194.038 391.859 195.921 391.694 195.975C391.497 196.042 391.049 195.343 390.797 194.579C390.754 194.459 390.502 194.724 390.422 194.97C390.324 195.277 390.17 195.211 389.206 194.459C388.844 194.17 388.531 193.941 388.525 193.941C388.512 193.941 388.543 194.14 388.592 194.375C388.912 195.975 388.543 195.789 387.106 195.085C385.81 194.447 385.933 194.429 386.197 195.235L386.529 196.258C386.744 196.92 386.529 197.203 385.982 196.98C385.737 196.878 383.943 196.914 383.943 197.016C383.943 197.041 384.115 197.371 384.318 197.745C384.852 198.713 384.938 199.002 385.104 199.219C385.264 199.418 385.141 199.827 384.889 199.875C384.625 199.923 384.275 200.284 383.612 200.904C385.577 201.662 385.62 201.554 384.588 202.938C384.3 203.329 384.066 203.654 384.078 203.666C384.091 203.672 384.502 203.654 385 203.618C386.259 203.528 386.369 203.594 386.062 204.208C385.872 204.587 385.878 204.587 386.338 204.322C387.297 203.763 388.034 204.07 387.112 204.647C384.889 206.049 384.607 206.086 384.889 204.954C385.098 204.136 385.092 204.124 384.846 204.154C384.508 204.196 383.563 204.22 383.299 204.31C382.488 204.593 382.641 204.003 383.735 202.673C384.048 202.288 384.306 201.951 384.306 201.921C384.306 201.849 382.973 201.259 382.697 201.211C382.482 201.175 382.463 201.018 382.617 200.784C382.801 200.501 383.213 200.11 383.814 199.682Z" fill="#061618"/>
<path d="M391.11 203.979C389.796 204.039 388.672 204.497 387.376 203.733C385.774 202.794 387.039 198.419 388.058 197.016C388.733 196.09 389.673 195.59 390.871 196.21C391.596 196.583 391.743 196.703 392.646 197.684C393.076 198.148 393.567 198.623 393.739 198.732C393.911 198.846 394.12 198.984 394.206 199.038C396.263 200.429 396.723 200.784 396.889 201.121C397.344 202.041 397.153 203.227 396.441 203.877C396.25 204.051 394.703 205.068 394.629 205.068C394.605 205.068 394.482 205.207 394.359 205.375C393.444 206.627 392.4 206.934 391.423 206.248C390.723 205.761 390.754 205.369 391.546 204.623L391.792 204.394L391.54 203.949L391.11 203.979ZM396.607 201.987C396.38 201.229 395.243 200.14 395.342 200.772C395.464 201.56 394.758 202.992 393.985 203.54L393.665 203.769L393.892 203.919C395.047 204.713 397 203.317 396.607 201.987ZM391.755 205.52C391.933 205.652 392.093 205.399 392.093 205.399C392.357 205.141 392.602 205.243 392.419 205.508C392.289 205.688 392.222 205.682 392.406 205.875C392.67 206.146 392.787 206.098 393.419 205.508C394.414 204.575 394.475 204.437 393.991 204.244C393.751 204.148 393.745 204.1 393.598 204.358C393.333 204.822 393.014 204.744 392.375 204.671C392.289 204.659 392.21 204.695 392.154 204.756L391.982 204.96C391.847 205.087 391.62 205.418 391.755 205.52ZM392.381 203.871C392.16 204.033 392.596 204.358 392.787 204.358C392.916 204.358 393.223 204.142 393.223 204.051C393.223 203.931 392.535 203.757 392.381 203.871ZM393.837 202.956C395.225 201.728 395.25 200.332 393.898 199.526C393.075 199.032 392.357 198.449 391.841 197.853C391.651 197.636 391.423 197.293 391.295 197.191C391.092 197.022 391.061 197.173 391.166 197.341C392.443 199.333 391.743 201.71 390.828 202.691C389.63 203.973 387.647 203.498 387.647 202.059C387.647 201.734 387.788 201.668 387.892 201.957C388.568 203.889 389.79 202.637 389.796 202.637C389.643 202.12 389.569 201.692 388.826 201.343C387.506 200.73 388.642 198.768 390.054 199.219C390.631 199.406 391.276 199.111 391.331 199.05C391.331 199.044 391.202 197.498 390.146 196.872C389.845 196.691 390.072 196.451 390.423 196.619C390.656 196.734 390.754 196.595 390.662 196.493C390.41 196.216 389.986 196.138 389.71 196.252C387.284 197.251 385.725 203.769 388.672 203.714C389.065 203.708 389.894 203.588 391.11 203.45C392.246 203.329 392.989 203.708 393.837 202.956ZM391.196 199.953C391.196 199.875 391.122 199.839 390.84 199.809C390.644 199.785 390.447 199.743 390.398 199.718C390.164 199.586 390.109 199.652 390.072 200.092C390.03 200.585 389.851 200.994 389.63 201.109C389.544 201.151 389.477 201.211 389.477 201.235C389.477 201.283 390.392 201.945 390.465 201.945C390.582 201.951 391.196 200.272 391.196 199.953ZM389.213 199.622C389.12 199.761 388.924 200.465 388.924 200.657C388.924 200.826 389.059 200.669 389.237 200.296C389.495 199.773 389.47 199.237 389.213 199.622Z" fill="#061618"/>
<path d="M428.156 178.306H351.852C350.474 178.306 349.356 179.415 349.356 180.782V274.17C349.356 275.538 350.474 276.646 351.852 276.646H428.156C429.534 276.646 430.652 275.538 430.652 274.17V180.782C430.652 179.415 429.534 178.306 428.156 178.306Z" stroke="#33C0CB" stroke-width="2"/>
</g>
<path opacity="0.4" d="M237 223C236.448 223 236 223.448 236 224C236 224.552 236.448 225 237 225V223ZM337.707 224.707C338.098 224.317 338.098 223.683 337.707 223.293L331.343 216.929C330.953 216.538 330.319 216.538 329.929 216.929C329.538 217.319 329.538 217.953 329.929 218.343L335.586 224L329.929 229.657C329.538 230.047 329.538 230.681 329.929 231.071C330.319 231.462 330.953 231.462 331.343 231.071L337.707 224.707ZM241.167 225C241.719 225 242.167 224.552 242.167 224C242.167 223.448 241.719 223 241.167 223V225ZM249.5 223C248.948 223 248.5 223.448 248.5 224C248.5 224.552 248.948 225 249.5 225V223ZM257.833 225C258.386 225 258.833 224.552 258.833 224C258.833 223.448 258.386 223 257.833 223V225ZM266.167 223C265.614 223 265.167 223.448 265.167 224C265.167 224.552 265.614 225 266.167 225V223ZM274.5 225C275.052 225 275.5 224.552 275.5 224C275.5 223.448 275.052 223 274.5 223V225ZM282.833 223C282.281 223 281.833 223.448 281.833 224C281.833 224.552 282.281 225 282.833 225V223ZM291.167 225C291.719 225 292.167 224.552 292.167 224C292.167 223.448 291.719 223 291.167 223V225ZM299.5 223C298.948 223 298.5 223.448 298.5 224C298.5 224.552 298.948 225 299.5 225V223ZM307.833 225C308.386 225 308.833 224.552 308.833 224C308.833 223.448 308.386 223 307.833 223V225ZM316.167 223C315.614 223 315.167 223.448 315.167 224C315.167 224.552 315.614 225 316.167 225V223ZM324.5 225C325.052 225 325.5 224.552 325.5 224C325.5 223.448 325.052 223 324.5 223V225ZM332.833 223C332.281 223 331.833 223.448 331.833 224C331.833 224.552 332.281 225 332.833 225V223ZM237 225H241.167V223H237V225ZM249.5 225H257.833V223H249.5V225ZM266.167 225H274.5V223H266.167V225ZM282.833 225H291.167V223H282.833V225ZM299.5 225H307.833V223H299.5V225ZM316.167 225H324.5V223H316.167V225ZM332.833 225H337V223H332.833V225Z" fill="white"/>
<rect x="53" y="62" width="404" height="302" rx="9" stroke="#33C0CB" stroke-width="2"/>
</g>
<defs>
<linearGradient id="paint0_linear_589_14336" x1="58.6786" y1="160.922" x2="7.18672" y2="194.091" gradientUnits="userSpaceOnUse">
<stop stop-color="#F1F5F9"/>
<stop offset="1" stop-color="#F1F5F9" stop-opacity="0"/>
</linearGradient>
<linearGradient id="paint1_linear_589_14336" x1="182.679" y1="385.922" x2="131.187" y2="419.091" gradientUnits="userSpaceOnUse">
<stop stop-color="#F1F5F9"/>
<stop offset="1" stop-color="#F1F5F9" stop-opacity="0"/>
</linearGradient>
<linearGradient id="paint2_linear_589_14336" x1="349.679" y1="318.922" x2="298.187" y2="352.091" gradientUnits="userSpaceOnUse">
<stop stop-color="#F1F5F9"/>
<stop offset="1" stop-color="#F1F5F9" stop-opacity="0"/>
</linearGradient>
<linearGradient id="paint3_linear_589_14336" x1="486.679" y1="76.9217" x2="435.187" y2="110.091" gradientUnits="userSpaceOnUse">
<stop stop-color="#F1F5F9"/>
<stop offset="1" stop-color="#F1F5F9" stop-opacity="0"/>
</linearGradient>
<linearGradient id="paint4_linear_589_14336" x1="58.6786" y1="24.9217" x2="7.18672" y2="58.0911" gradientUnits="userSpaceOnUse">
<stop stop-color="#F1F5F9"/>
<stop offset="1" stop-color="#F1F5F9" stop-opacity="0"/>
</linearGradient>
<linearGradient id="paint5_linear_589_14336" x1="46.6786" y1="353.922" x2="-4.81328" y2="387.091" gradientUnits="userSpaceOnUse">
<stop stop-color="#F1F5F9"/>
<stop offset="1" stop-color="#F1F5F9" stop-opacity="0"/>
</linearGradient>
<linearGradient id="paint6_linear_589_14336" x1="132.131" y1="230.985" x2="35.9875" y2="292.817" gradientUnits="userSpaceOnUse">
<stop stop-color="#C0FBFF"/>
<stop offset="1" stop-color="#F9FFFF" stop-opacity="0"/>
</linearGradient>
<linearGradient id="paint7_linear_589_14336" x1="478.42" y1="18.092" x2="434.973" y2="46.2138" gradientUnits="userSpaceOnUse">
<stop stop-color="#C0FBFF"/>
<stop offset="1" stop-color="#F9FFFF" stop-opacity="0"/>
</linearGradient>
<linearGradient id="paint8_linear_589_14336" x1="200.42" y1="144.092" x2="156.973" y2="172.214" gradientUnits="userSpaceOnUse">
<stop stop-color="#C0FBFF"/>
<stop offset="1" stop-color="#F9FFFF" stop-opacity="0"/>
</linearGradient>
<linearGradient id="paint9_linear_589_14336" x1="244.42" y1="280.092" x2="200.973" y2="308.214" gradientUnits="userSpaceOnUse">
<stop stop-color="#C0FBFF"/>
<stop offset="1" stop-color="#F9FFFF" stop-opacity="0"/>
</linearGradient>
<linearGradient id="paint10_linear_589_14336" x1="297.42" y1="386.092" x2="253.973" y2="414.214" gradientUnits="userSpaceOnUse">
<stop stop-color="#C0FBFF"/>
<stop offset="1" stop-color="#F9FFFF" stop-opacity="0"/>
</linearGradient>
<linearGradient id="paint11_linear_589_14336" x1="504.42" y1="236.092" x2="460.973" y2="264.214" gradientUnits="userSpaceOnUse">
<stop stop-color="#C0FBFF"/>
<stop offset="1" stop-color="#F9FFFF" stop-opacity="0"/>
</linearGradient>
<linearGradient id="paint12_linear_589_14336" x1="138.131" y1="48.9853" x2="41.9875" y2="110.817" gradientUnits="userSpaceOnUse">
<stop stop-color="#C0FBFF"/>
<stop offset="0.760417" stop-color="#E2FDFF" stop-opacity="0.53"/>
<stop offset="1" stop-color="#F9FFFF" stop-opacity="0"/>
</linearGradient>
<linearGradient id="paint13_linear_589_14336" x1="484.131" y1="336.985" x2="387.988" y2="398.817" gradientUnits="userSpaceOnUse">
<stop stop-color="#C0FBFF"/>
<stop offset="0.760417" stop-color="#E2FDFF" stop-opacity="0.53"/>
<stop offset="1" stop-color="#F9FFFF" stop-opacity="0"/>
</linearGradient>
<linearGradient id="paint14_linear_589_14336" x1="387.131" y1="96.9853" x2="290.988" y2="158.817" gradientUnits="userSpaceOnUse">
<stop stop-color="#C0FBFF"/>
<stop offset="0.760417" stop-color="#E2FDFF" stop-opacity="0.53"/>
<stop offset="1" stop-color="#F9FFFF" stop-opacity="0"/>
</linearGradient>
<linearGradient id="paint15_linear_589_14336" x1="315.131" y1="12.9853" x2="218.988" y2="74.8173" gradientUnits="userSpaceOnUse">
<stop stop-color="#EFF5FB" stop-opacity="0.92"/>
<stop offset="1" stop-color="#F1F5F9" stop-opacity="0"/>
</linearGradient>
<linearGradient id="paint16_linear_589_14336" x1="483.292" y1="159.524" x2="412.894" y2="204.772" gradientUnits="userSpaceOnUse">
<stop stop-color="#EFF5FB" stop-opacity="0.92"/>
<stop offset="1" stop-color="#F1F5F9" stop-opacity="0"/>
</linearGradient>
<linearGradient id="paint17_linear_589_14336" x1="461.182" y1="363" x2="141.211" y2="-50.4568" gradientUnits="userSpaceOnUse">
<stop offset="0.489583" stop-color="#061618"/>
<stop offset="0.967248" stop-color="#1C6B71"/>
</linearGradient>
<linearGradient id="paint18_linear_589_14336" x1="437.057" y1="272.048" x2="330.635" y2="187.079" gradientUnits="userSpaceOnUse">
<stop offset="0.489583" stop-color="#061618"/>
<stop offset="0.967248" stop-color="#1C6B71"/>
</linearGradient>
<linearGradient id="paint19_linear_589_14336" x1="380.954" y1="199.531" x2="362.253" y2="181.354" gradientUnits="userSpaceOnUse">
<stop offset="0.489583" stop-color="#061618"/>
<stop offset="0.967248" stop-color="#1C6B71"/>
</linearGradient>
<linearGradient id="paint20_linear_589_14336" x1="432.065" y1="277" x2="325.643" y2="192.031" gradientUnits="userSpaceOnUse">
<stop offset="0.489583" stop-color="#061618"/>
<stop offset="0.967248" stop-color="#1C6B71"/>
</linearGradient>
<clipPath id="clip0_589_14336">
<rect width="510" height="425" fill="white"/>
</clipPath>
<clipPath id="clip1_589_14336">
<rect width="87" height="104" fill="white" transform="translate(349 173)"/>
</clipPath>
</defs>
</svg>
