<svg width="510" height="425" viewBox="0 0 510 425" fill="none" xmlns="http://www.w3.org/2000/svg">
<g clip-path="url(#clip0_589_14173)">
<path d="M28.4343 178.56L29.068 177.787L28.3982 177.238L27.7593 177.823L28.4343 178.56ZM35.3838 184.253L34.7502 185.027L35.4609 185.609L36.1011 184.95L35.3838 184.253ZM57.9999 161.985C57.9919 161.433 57.5377 160.992 56.9855 161L47.9864 161.131C47.4342 161.139 46.993 161.593 47.0011 162.145C47.0091 162.697 47.4632 163.139 48.0155 163.131L56.0146 163.014L56.1307 171.014C56.1387 171.566 56.5929 172.007 57.1451 171.999C57.6974 171.991 58.1385 171.537 58.1305 170.985L57.9999 161.985ZM5.67501 200.738L29.1094 179.298L27.7593 177.823L4.32499 199.262L5.67501 200.738ZM27.8007 179.334L34.7502 185.027L36.0175 183.479L29.068 177.787L27.8007 179.334ZM36.1011 184.95L57.7173 162.697L56.2827 161.303L34.6665 183.556L36.1011 184.95Z" fill="url(#paint0_linear_589_14173)"/>
<path d="M152.434 403.56L153.068 402.787L152.398 402.238L151.759 402.823L152.434 403.56ZM159.384 409.253L158.75 410.027L159.461 410.609L160.101 409.95L159.384 409.253ZM182 386.985C181.992 386.433 181.538 385.992 180.985 386L171.986 386.131C171.434 386.139 170.993 386.593 171.001 387.145C171.009 387.697 171.463 388.139 172.015 388.131L180.015 388.014L180.131 396.014C180.139 396.566 180.593 397.007 181.145 396.999C181.697 396.991 182.139 396.537 182.131 395.985L182 386.985ZM129.675 425.738L153.109 404.298L151.759 402.823L128.325 424.262L129.675 425.738ZM151.801 404.334L158.75 410.027L160.018 408.479L153.068 402.787L151.801 404.334ZM160.101 409.95L181.717 387.697L180.283 386.303L158.667 408.556L160.101 409.95Z" fill="url(#paint1_linear_589_14173)"/>
<path d="M319.434 336.56L320.068 335.787L319.398 335.238L318.759 335.823L319.434 336.56ZM326.384 342.253L325.75 343.027L326.461 343.609L327.101 342.95L326.384 342.253ZM349 319.985C348.992 319.433 348.538 318.992 347.985 319L338.986 319.131C338.434 319.139 337.993 319.593 338.001 320.145C338.009 320.697 338.463 321.139 339.015 321.131L347.015 321.014L347.131 329.014C347.139 329.566 347.593 330.007 348.145 329.999C348.697 329.991 349.139 329.537 349.131 328.985L349 319.985ZM296.675 358.738L320.109 337.298L318.759 335.823L295.325 357.262L296.675 358.738ZM318.801 337.334L325.75 343.027L327.018 341.479L320.068 335.787L318.801 337.334ZM327.101 342.95L348.717 320.697L347.283 319.303L325.667 341.556L327.101 342.95Z" fill="url(#paint2_linear_589_14173)"/>
<path d="M456.434 94.5603L457.068 93.7867L456.398 93.238L455.759 93.8225L456.434 94.5603ZM463.384 100.253L462.75 101.027L463.461 101.609L464.101 100.95L463.384 100.253ZM486 77.9855C485.992 77.4333 485.538 76.9921 484.985 77.0001L475.986 77.1307C475.434 77.1387 474.993 77.5929 475.001 78.1451C475.009 78.6974 475.463 79.1385 476.015 79.1305L484.015 79.0144L484.131 87.0136C484.139 87.5658 484.593 88.007 485.145 87.9989C485.697 87.9909 486.139 87.5368 486.131 86.9845L486 77.9855ZM433.675 116.738L457.109 95.2981L455.759 93.8225L432.325 115.262L433.675 116.738ZM455.801 95.3339L462.75 101.027L464.018 99.4793L457.068 93.7867L455.801 95.3339ZM464.101 100.95L485.717 78.6968L484.283 77.3032L462.667 99.5561L464.101 100.95Z" fill="url(#paint3_linear_589_14173)"/>
<path d="M28.4343 42.5603L29.068 41.7867L28.3982 41.238L27.7593 41.8225L28.4343 42.5603ZM35.3838 48.2529L34.7502 49.0265L35.4609 49.6087L36.1011 48.9497L35.3838 48.2529ZM57.9999 25.9855C57.9919 25.4333 57.5377 24.9921 56.9855 25.0001L47.9864 25.1307C47.4342 25.1387 46.993 25.5929 47.0011 26.1451C47.0091 26.6974 47.4632 27.1385 48.0155 27.1305L56.0146 27.0144L56.1307 35.0136C56.1387 35.5658 56.5929 36.007 57.1451 35.9989C57.6974 35.9909 58.1385 35.5368 58.1305 34.9845L57.9999 25.9855ZM5.67501 64.7378L29.1094 43.2981L27.7593 41.8225L4.32499 63.2622L5.67501 64.7378ZM27.8007 43.3339L34.7502 49.0265L36.0175 47.4793L29.068 41.7867L27.8007 43.3339ZM36.1011 48.9497L57.7173 26.6968L56.2827 25.3032L34.6665 47.5561L36.1011 48.9497Z" fill="url(#paint4_linear_589_14173)"/>
<path d="M16.4343 371.56L17.068 370.787L16.3982 370.238L15.7593 370.823L16.4343 371.56ZM23.3838 377.253L22.7502 378.027L23.4609 378.609L24.1011 377.95L23.3838 377.253ZM45.9999 354.985C45.9919 354.433 45.5377 353.992 44.9855 354L35.9864 354.131C35.4342 354.139 34.993 354.593 35.0011 355.145C35.0091 355.697 35.4632 356.139 36.0155 356.131L44.0146 356.014L44.1307 364.014C44.1387 364.566 44.5929 365.007 45.1451 364.999C45.6974 364.991 46.1385 364.537 46.1305 363.985L45.9999 354.985ZM-6.32499 393.738L17.1094 372.298L15.7593 370.823L-7.67501 392.262L-6.32499 393.738ZM15.8007 372.334L22.7502 378.027L24.0175 376.479L17.068 370.787L15.8007 372.334ZM24.1011 377.95L45.7173 355.697L44.2827 354.303L22.6665 376.556L24.1011 377.95Z" fill="url(#paint5_linear_589_14173)"/>
<path d="M75.7141 263.942L76.9827 262.395L75.6417 261.295L74.3628 262.467L75.7141 263.942ZM88.6775 274.578L87.4089 276.124L88.8319 277.291L90.1133 275.97L88.6775 274.578ZM131 232.969C130.983 231.865 130.074 230.983 128.969 231L110.971 231.276C109.867 231.293 108.985 232.202 109.002 233.307C109.019 234.411 109.928 235.293 111.033 235.276L127.031 235.03L127.276 251.029C127.293 252.133 128.202 253.015 129.307 252.998C130.411 252.981 131.293 252.072 131.276 250.967L131 232.969ZM33.3512 305.475L77.0653 265.416L74.3628 262.467L30.6488 302.525L33.3512 305.475ZM74.4455 265.488L87.4089 276.124L89.9461 273.032L76.9827 262.395L74.4455 265.488ZM90.1133 275.97L130.436 234.392L127.564 231.608L87.2418 273.185L90.1133 275.97Z" fill="url(#paint6_linear_589_14173)"/>
<path d="M452.829 32.9455L453.461 32.1704L452.793 31.6259L452.156 32.2061L452.829 32.9455ZM458.709 37.7393L458.078 38.5144L458.786 39.0922L459.425 38.4378L458.709 37.7393ZM478 18.9879C477.993 18.4356 477.54 17.9934 476.988 18.0001L467.989 18.1091C467.436 18.1158 466.994 18.5689 467.001 19.1212C467.007 19.6734 467.461 20.1157 468.013 20.109L476.012 20.012L476.109 28.0115C476.116 28.5637 476.569 29.006 477.121 28.9993C477.673 28.9926 478.116 28.5395 478.109 27.9872L478 18.9879ZM433.673 51.7394L453.502 33.6849L452.156 32.2061L432.327 50.2606L433.673 51.7394ZM452.197 33.7206L458.078 38.5144L459.341 36.9642L453.461 32.1704L452.197 33.7206ZM459.425 38.4378L477.716 19.6985L476.284 18.3015L457.994 37.0408L459.425 38.4378Z" fill="url(#paint7_linear_589_14173)"/>
<path d="M174.829 158.946L175.461 158.17L174.793 157.626L174.156 158.206L174.829 158.946ZM180.709 163.739L180.078 164.514L180.786 165.092L181.425 164.438L180.709 163.739ZM200 144.988C199.993 144.436 199.54 143.993 198.988 144L189.989 144.109C189.436 144.116 188.994 144.569 189.001 145.121C189.007 145.673 189.461 146.116 190.013 146.109L198.012 146.012L198.109 154.011C198.116 154.564 198.569 155.006 199.121 154.999C199.673 154.993 200.116 154.539 200.109 153.987L200 144.988ZM155.673 177.739L175.502 159.685L174.156 158.206L154.327 176.261L155.673 177.739ZM174.197 159.721L180.078 164.514L181.341 162.964L175.461 158.17L174.197 159.721ZM181.425 164.438L199.716 145.698L198.284 144.302L179.994 163.041L181.425 164.438Z" fill="url(#paint8_linear_589_14173)"/>
<path d="M218.829 294.946L219.461 294.17L218.793 293.626L218.156 294.206L218.829 294.946ZM224.709 299.739L224.078 300.514L224.786 301.092L225.425 300.438L224.709 299.739ZM244 280.988C243.993 280.436 243.54 279.993 242.988 280L233.989 280.109C233.436 280.116 232.994 280.569 233.001 281.121C233.007 281.673 233.461 282.116 234.013 282.109L242.012 282.012L242.109 290.011C242.116 290.564 242.569 291.006 243.121 290.999C243.673 290.993 244.116 290.539 244.109 289.987L244 280.988ZM199.673 313.739L219.502 295.685L218.156 294.206L198.327 312.261L199.673 313.739ZM218.197 295.721L224.078 300.514L225.341 298.964L219.461 294.17L218.197 295.721ZM225.425 300.438L243.716 281.698L242.284 280.302L223.994 299.041L225.425 300.438Z" fill="url(#paint9_linear_589_14173)"/>
<path d="M271.829 400.946L272.461 400.17L271.793 399.626L271.156 400.206L271.829 400.946ZM277.709 405.739L277.078 406.514L277.786 407.092L278.425 406.438L277.709 405.739ZM297 386.988C296.993 386.436 296.54 385.993 295.988 386L286.989 386.109C286.436 386.116 285.994 386.569 286.001 387.121C286.007 387.673 286.461 388.116 287.013 388.109L295.012 388.012L295.109 396.011C295.116 396.564 295.569 397.006 296.121 396.999C296.673 396.993 297.116 396.539 297.109 395.987L297 386.988ZM252.673 419.739L272.502 401.685L271.156 400.206L251.327 418.261L252.673 419.739ZM271.197 401.721L277.078 406.514L278.341 404.964L272.461 400.17L271.197 401.721ZM278.425 406.438L296.716 387.698L295.284 386.302L276.994 405.041L278.425 406.438Z" fill="url(#paint10_linear_589_14173)"/>
<path d="M478.829 250.946L479.461 250.17L478.793 249.626L478.156 250.206L478.829 250.946ZM484.709 255.739L484.078 256.514L484.786 257.092L485.425 256.438L484.709 255.739ZM504 236.988C503.993 236.436 503.54 235.993 502.988 236L493.989 236.109C493.436 236.116 492.994 236.569 493.001 237.121C493.007 237.673 493.461 238.116 494.013 238.109L502.012 238.012L502.109 246.011C502.116 246.564 502.569 247.006 503.121 246.999C503.673 246.993 504.116 246.539 504.109 245.987L504 236.988ZM459.673 269.739L479.502 251.685L478.156 250.206L458.327 268.261L459.673 269.739ZM478.197 251.721L484.078 256.514L485.341 254.964L479.461 250.17L478.197 251.721ZM485.425 256.438L503.716 237.698L502.284 236.302L483.994 255.041L485.425 256.438Z" fill="url(#paint11_linear_589_14173)"/>
<path d="M81.7141 81.9416L82.9827 80.3955L81.6417 79.2952L80.3628 80.4671L81.7141 81.9416ZM94.6775 92.5778L93.4089 94.124L94.8319 95.2915L96.1133 93.9702L94.6775 92.5778ZM137 50.9693C136.983 49.8649 136.074 48.9833 134.969 49.0002L116.971 49.2761C115.867 49.293 114.985 50.2021 115.002 51.3065C115.019 52.411 115.928 53.2926 117.033 53.2756L133.031 53.0304L133.276 69.0285C133.293 70.133 134.202 71.0146 135.307 70.9977C136.411 70.9807 137.293 70.0717 137.276 68.9672L137 50.9693ZM39.3512 123.475L83.0653 83.4162L80.3628 80.4671L36.6488 120.525L39.3512 123.475ZM80.4455 83.4878L93.4089 94.124L95.9461 91.0316L82.9827 80.3955L80.4455 83.4878ZM96.1133 93.9702L136.436 52.3924L133.564 49.6076L93.2418 91.1854L96.1133 93.9702Z" fill="url(#paint12_linear_589_14173)"/>
<path d="M427.714 369.942L428.983 368.395L427.642 367.295L426.363 368.467L427.714 369.942ZM440.678 380.578L439.409 382.124L440.832 383.291L442.113 381.97L440.678 380.578ZM483 338.969C482.983 337.865 482.074 336.983 480.969 337L462.971 337.276C461.867 337.293 460.985 338.202 461.002 339.307C461.019 340.411 461.928 341.293 463.033 341.276L479.031 341.03L479.276 357.029C479.293 358.133 480.202 359.015 481.307 358.998C482.411 358.981 483.293 358.072 483.276 356.967L483 338.969ZM385.351 411.475L429.065 371.416L426.363 368.467L382.649 408.525L385.351 411.475ZM426.445 371.488L439.409 382.124L441.946 379.032L428.983 368.395L426.445 371.488ZM442.113 381.97L482.436 340.392L479.564 337.608L439.242 379.185L442.113 381.97Z" fill="url(#paint13_linear_589_14173)"/>
<path d="M330.714 129.942L331.983 128.395L330.642 127.295L329.363 128.467L330.714 129.942ZM343.678 140.578L342.409 142.124L343.832 143.291L345.113 141.97L343.678 140.578ZM386 98.9693C385.983 97.8649 385.074 96.9833 383.969 97.0002L365.971 97.2761C364.867 97.293 363.985 98.2021 364.002 99.3065C364.019 100.411 364.928 101.293 366.033 101.276L382.031 101.03L382.276 117.029C382.293 118.133 383.202 119.015 384.307 118.998C385.411 118.981 386.293 118.072 386.276 116.967L386 98.9693ZM288.351 171.475L332.065 131.416L329.363 128.467L285.649 168.525L288.351 171.475ZM329.445 131.488L342.409 142.124L344.946 139.032L331.983 128.395L329.445 131.488ZM345.113 141.97L385.436 100.392L382.564 97.6076L342.242 139.185L345.113 141.97Z" fill="url(#paint14_linear_589_14173)"/>
<path d="M258.714 45.9416L259.983 44.3955L258.642 43.2952L257.363 44.4671L258.714 45.9416ZM271.678 56.5778L270.409 58.124L271.832 59.2915L273.113 57.9702L271.678 56.5778ZM314 14.9693C313.983 13.8649 313.074 12.9833 311.969 13.0002L293.971 13.2761C292.867 13.293 291.985 14.2021 292.002 15.3065C292.019 16.411 292.928 17.2926 294.033 17.2756L310.031 17.0304L310.276 33.0285C310.293 34.133 311.202 35.0146 312.307 34.9977C313.411 34.9807 314.293 34.0717 314.276 32.9672L314 14.9693ZM216.351 87.4745L260.065 47.4162L257.363 44.4671L213.649 84.5255L216.351 87.4745ZM257.445 47.4878L270.409 58.124L272.946 55.0316L259.983 44.3955L257.445 47.4878ZM273.113 57.9702L313.436 16.3924L310.564 13.6076L270.242 55.1854L273.113 57.9702Z" fill="url(#paint15_linear_589_14173)"/>
<path d="M441.997 183.661L443.266 182.116L441.924 181.014L440.645 182.187L441.997 183.661ZM451.486 191.451L450.217 192.997L451.64 194.166L452.922 192.843L451.486 191.451ZM483 160.969C482.983 159.864 482.073 158.983 480.969 159L462.971 159.281C461.867 159.299 460.985 160.208 461.002 161.312C461.02 162.417 461.929 163.298 463.033 163.281L479.031 163.031L479.281 179.029C479.299 180.133 480.208 181.015 481.312 180.998C482.417 180.98 483.298 180.071 483.281 178.967L483 160.969ZM411.352 214.474L443.349 185.136L440.645 182.187L408.648 211.526L411.352 214.474ZM440.728 185.207L450.217 192.997L452.755 189.906L443.266 182.116L440.728 185.207ZM452.922 192.843L482.436 162.392L479.564 159.608L450.049 190.059L452.922 192.843Z" fill="url(#paint16_linear_589_14173)"/>
<rect x="55" y="47" width="400" height="298" rx="11" fill="url(#paint17_linear_589_14173)"/>
<path d="M219.145 353.881L163 258H357L300.855 353.881L292.333 383H229.171L219.145 353.881Z" fill="url(#paint18_linear_589_14173)"/>
<ellipse cx="259" cy="255" rx="98" ry="20" fill="url(#paint19_linear_589_14173)"/>
<path d="M194 267C188.477 267 184 262.523 184 257C184 251.477 188.477 247 194 247C199.523 247 204 251.477 204 257C204 262.523 199.523 267 194 267ZM189.013 263.256C190.429 264.388 192.188 265.003 194 265C195.97 265 197.773 264.288 199.167 263.108C198.516 262.44 197.737 261.909 196.877 261.547C196.017 261.185 195.093 260.999 194.16 261C193.193 260.999 192.236 261.199 191.349 261.587C190.463 261.976 189.668 262.544 189.013 263.256V263.256ZM187.616 261.82C188.456 260.928 189.471 260.218 190.596 259.733C191.722 259.248 192.934 258.998 194.16 259C195.342 258.998 196.512 259.23 197.604 259.682C198.696 260.134 199.687 260.798 200.522 261.634C201.378 260.429 201.884 259.011 201.983 257.536C202.082 256.061 201.77 254.588 201.082 253.279C200.395 251.971 199.359 250.879 198.088 250.123C196.817 249.368 195.362 248.98 193.885 249.001C192.407 249.023 190.964 249.453 189.716 250.245C188.467 251.036 187.463 252.158 186.814 253.486C186.164 254.814 185.896 256.296 186.037 257.767C186.179 259.238 186.725 260.641 187.616 261.821V261.82ZM194 258C192.939 258 191.922 257.579 191.172 256.828C190.421 256.078 190 255.061 190 254C190 252.939 190.421 251.922 191.172 251.172C191.922 250.421 192.939 250 194 250C195.061 250 196.078 250.421 196.828 251.172C197.579 251.922 198 252.939 198 254C198 255.061 197.579 256.078 196.828 256.828C196.078 257.579 195.061 258 194 258ZM194 256C194.53 256 195.039 255.789 195.414 255.414C195.789 255.039 196 254.53 196 254C196 253.47 195.789 252.961 195.414 252.586C195.039 252.211 194.53 252 194 252C193.47 252 192.961 252.211 192.586 252.586C192.211 252.961 192 253.47 192 254C192 254.53 192.211 255.039 192.586 255.414C192.961 255.789 193.47 256 194 256Z" fill="#E2E8F0"/>
<path d="M236 267C230.477 267 226 262.523 226 257C226 251.477 230.477 247 236 247C241.523 247 246 251.477 246 257C246 262.523 241.523 267 236 267ZM231.013 263.256C232.429 264.388 234.188 265.003 236 265C237.97 265 239.773 264.288 241.167 263.108C240.516 262.44 239.737 261.909 238.877 261.547C238.017 261.185 237.093 260.999 236.16 261C235.193 260.999 234.236 261.199 233.349 261.587C232.463 261.976 231.668 262.544 231.013 263.256V263.256ZM229.616 261.82C230.456 260.928 231.471 260.218 232.596 259.733C233.722 259.248 234.934 258.998 236.16 259C237.342 258.998 238.512 259.23 239.604 259.682C240.696 260.134 241.687 260.798 242.522 261.634C243.378 260.429 243.884 259.011 243.983 257.536C244.082 256.061 243.77 254.588 243.082 253.279C242.395 251.971 241.359 250.879 240.088 250.123C238.817 249.368 237.362 248.98 235.885 249.001C234.407 249.023 232.964 249.453 231.716 250.245C230.467 251.036 229.463 252.158 228.814 253.486C228.164 254.814 227.896 256.296 228.037 257.767C228.179 259.238 228.725 260.641 229.616 261.821V261.82ZM236 258C234.939 258 233.922 257.579 233.172 256.828C232.421 256.078 232 255.061 232 254C232 252.939 232.421 251.922 233.172 251.172C233.922 250.421 234.939 250 236 250C237.061 250 238.078 250.421 238.828 251.172C239.579 251.922 240 252.939 240 254C240 255.061 239.579 256.078 238.828 256.828C238.078 257.579 237.061 258 236 258ZM236 256C236.53 256 237.039 255.789 237.414 255.414C237.789 255.039 238 254.53 238 254C238 253.47 237.789 252.961 237.414 252.586C237.039 252.211 236.53 252 236 252C235.47 252 234.961 252.211 234.586 252.586C234.211 252.961 234 253.47 234 254C234 254.53 234.211 255.039 234.586 255.414C234.961 255.789 235.47 256 236 256Z" fill="#E2E8F0"/>
<path d="M278 267C272.477 267 268 262.523 268 257C268 251.477 272.477 247 278 247C283.523 247 288 251.477 288 257C288 262.523 283.523 267 278 267ZM273.013 263.256C274.429 264.388 276.188 265.003 278 265C279.97 265 281.773 264.288 283.167 263.108C282.516 262.44 281.737 261.909 280.877 261.547C280.017 261.185 279.093 260.999 278.16 261C277.193 260.999 276.236 261.199 275.349 261.587C274.463 261.976 273.668 262.544 273.013 263.256V263.256ZM271.616 261.82C272.456 260.928 273.471 260.218 274.596 259.733C275.722 259.248 276.934 258.998 278.16 259C279.342 258.998 280.512 259.23 281.604 259.682C282.696 260.134 283.687 260.798 284.522 261.634C285.378 260.429 285.884 259.011 285.983 257.536C286.082 256.061 285.77 254.588 285.082 253.279C284.395 251.971 283.359 250.879 282.088 250.123C280.817 249.368 279.362 248.98 277.885 249.001C276.407 249.023 274.964 249.453 273.716 250.245C272.467 251.036 271.463 252.158 270.814 253.486C270.164 254.814 269.896 256.296 270.037 257.767C270.179 259.238 270.725 260.641 271.616 261.821V261.82ZM278 258C276.939 258 275.922 257.579 275.172 256.828C274.421 256.078 274 255.061 274 254C274 252.939 274.421 251.922 275.172 251.172C275.922 250.421 276.939 250 278 250C279.061 250 280.078 250.421 280.828 251.172C281.579 251.922 282 252.939 282 254C282 255.061 281.579 256.078 280.828 256.828C280.078 257.579 279.061 258 278 258ZM278 256C278.53 256 279.039 255.789 279.414 255.414C279.789 255.039 280 254.53 280 254C280 253.47 279.789 252.961 279.414 252.586C279.039 252.211 278.53 252 278 252C277.47 252 276.961 252.211 276.586 252.586C276.211 252.961 276 253.47 276 254C276 254.53 276.211 255.039 276.586 255.414C276.961 255.789 277.47 256 278 256Z" fill="#E2E8F0"/>
<path d="M320 267C314.477 267 310 262.523 310 257C310 251.477 314.477 247 320 247C325.523 247 330 251.477 330 257C330 262.523 325.523 267 320 267ZM315.013 263.256C316.429 264.388 318.188 265.003 320 265C321.97 265 323.773 264.288 325.167 263.108C324.516 262.44 323.737 261.909 322.877 261.547C322.017 261.185 321.093 260.999 320.16 261C319.193 260.999 318.236 261.199 317.349 261.587C316.463 261.976 315.668 262.544 315.013 263.256V263.256ZM313.616 261.82C314.456 260.928 315.471 260.218 316.596 259.733C317.722 259.248 318.934 258.998 320.16 259C321.342 258.998 322.512 259.23 323.604 259.682C324.696 260.134 325.687 260.798 326.522 261.634C327.378 260.429 327.884 259.011 327.983 257.536C328.082 256.061 327.77 254.588 327.082 253.279C326.395 251.971 325.359 250.879 324.088 250.123C322.817 249.368 321.362 248.98 319.885 249.001C318.407 249.023 316.964 249.453 315.716 250.245C314.467 251.036 313.463 252.158 312.814 253.486C312.164 254.814 311.896 256.296 312.037 257.767C312.179 259.238 312.725 260.641 313.616 261.821V261.82ZM320 258C318.939 258 317.922 257.579 317.172 256.828C316.421 256.078 316 255.061 316 254C316 252.939 316.421 251.922 317.172 251.172C317.922 250.421 318.939 250 320 250C321.061 250 322.078 250.421 322.828 251.172C323.579 251.922 324 252.939 324 254C324 255.061 323.579 256.078 322.828 256.828C322.078 257.579 321.061 258 320 258ZM320 256C320.53 256 321.039 255.789 321.414 255.414C321.789 255.039 322 254.53 322 254C322 253.47 321.789 252.961 321.414 252.586C321.039 252.211 320.53 252 320 252C319.47 252 318.961 252.211 318.586 252.586C318.211 252.961 318 253.47 318 254C318 254.53 318.211 255.039 318.586 255.414C318.961 255.789 319.47 256 320 256Z" fill="#E2E8F0"/>
<path d="M214 308C208.477 308 204 303.523 204 298C204 292.477 208.477 288 214 288C219.523 288 224 292.477 224 298C224 303.523 219.523 308 214 308ZM209.013 304.256C210.429 305.388 212.188 306.003 214 306C215.97 306 217.773 305.288 219.167 304.108C218.516 303.44 217.737 302.909 216.877 302.547C216.017 302.185 215.093 301.999 214.16 302C213.193 301.999 212.236 302.199 211.349 302.587C210.463 302.976 209.668 303.544 209.013 304.256V304.256ZM207.616 302.82C208.456 301.928 209.471 301.218 210.596 300.733C211.722 300.248 212.934 299.998 214.16 300C215.342 299.998 216.512 300.23 217.604 300.682C218.696 301.134 219.687 301.798 220.522 302.634C221.378 301.429 221.884 300.011 221.983 298.536C222.082 297.061 221.77 295.588 221.082 294.279C220.395 292.971 219.359 291.879 218.088 291.123C216.817 290.368 215.362 289.98 213.885 290.001C212.407 290.023 210.964 290.453 209.716 291.245C208.467 292.036 207.463 293.158 206.814 294.486C206.164 295.814 205.896 297.296 206.037 298.767C206.179 300.238 206.725 301.641 207.616 302.821V302.82ZM214 299C212.939 299 211.922 298.579 211.172 297.828C210.421 297.078 210 296.061 210 295C210 293.939 210.421 292.922 211.172 292.172C211.922 291.421 212.939 291 214 291C215.061 291 216.078 291.421 216.828 292.172C217.579 292.922 218 293.939 218 295C218 296.061 217.579 297.078 216.828 297.828C216.078 298.579 215.061 299 214 299ZM214 297C214.53 297 215.039 296.789 215.414 296.414C215.789 296.039 216 295.53 216 295C216 294.47 215.789 293.961 215.414 293.586C215.039 293.211 214.53 293 214 293C213.47 293 212.961 293.211 212.586 293.586C212.211 293.961 212 294.47 212 295C212 295.53 212.211 296.039 212.586 296.414C212.961 296.789 213.47 297 214 297Z" fill="#E2E8F0"/>
<path d="M258 308C252.477 308 248 303.523 248 298C248 292.477 252.477 288 258 288C263.523 288 268 292.477 268 298C268 303.523 263.523 308 258 308ZM253.013 304.256C254.429 305.388 256.188 306.003 258 306C259.97 306 261.773 305.288 263.167 304.108C262.516 303.44 261.737 302.909 260.877 302.547C260.017 302.185 259.093 301.999 258.16 302C257.193 301.999 256.236 302.199 255.349 302.587C254.463 302.976 253.668 303.544 253.013 304.256V304.256ZM251.616 302.82C252.456 301.928 253.471 301.218 254.596 300.733C255.722 300.248 256.934 299.998 258.16 300C259.342 299.998 260.512 300.23 261.604 300.682C262.696 301.134 263.687 301.798 264.522 302.634C265.378 301.429 265.884 300.011 265.983 298.536C266.082 297.061 265.77 295.588 265.082 294.279C264.395 292.971 263.359 291.879 262.088 291.123C260.817 290.368 259.362 289.98 257.885 290.001C256.407 290.023 254.964 290.453 253.716 291.245C252.467 292.036 251.463 293.158 250.814 294.486C250.164 295.814 249.896 297.296 250.037 298.767C250.179 300.238 250.725 301.641 251.616 302.821V302.82ZM258 299C256.939 299 255.922 298.579 255.172 297.828C254.421 297.078 254 296.061 254 295C254 293.939 254.421 292.922 255.172 292.172C255.922 291.421 256.939 291 258 291C259.061 291 260.078 291.421 260.828 292.172C261.579 292.922 262 293.939 262 295C262 296.061 261.579 297.078 260.828 297.828C260.078 298.579 259.061 299 258 299ZM258 297C258.53 297 259.039 296.789 259.414 296.414C259.789 296.039 260 295.53 260 295C260 294.47 259.789 293.961 259.414 293.586C259.039 293.211 258.53 293 258 293C257.47 293 256.961 293.211 256.586 293.586C256.211 293.961 256 294.47 256 295C256 295.53 256.211 296.039 256.586 296.414C256.961 296.789 257.47 297 258 297Z" fill="#E2E8F0"/>
<path d="M302 308C296.477 308 292 303.523 292 298C292 292.477 296.477 288 302 288C307.523 288 312 292.477 312 298C312 303.523 307.523 308 302 308ZM297.013 304.256C298.429 305.388 300.188 306.003 302 306C303.97 306 305.773 305.288 307.167 304.108C306.516 303.44 305.737 302.909 304.877 302.547C304.017 302.185 303.093 301.999 302.16 302C301.193 301.999 300.236 302.199 299.349 302.587C298.463 302.976 297.668 303.544 297.013 304.256V304.256ZM295.616 302.82C296.456 301.928 297.471 301.218 298.596 300.733C299.722 300.248 300.934 299.998 302.16 300C303.342 299.998 304.512 300.23 305.604 300.682C306.696 301.134 307.687 301.798 308.522 302.634C309.378 301.429 309.884 300.011 309.983 298.536C310.082 297.061 309.77 295.588 309.082 294.279C308.395 292.971 307.359 291.879 306.088 291.123C304.817 290.368 303.362 289.98 301.885 290.001C300.407 290.023 298.964 290.453 297.716 291.245C296.467 292.036 295.463 293.158 294.814 294.486C294.164 295.814 293.896 297.296 294.037 298.767C294.179 300.238 294.725 301.641 295.616 302.821V302.82ZM302 299C300.939 299 299.922 298.579 299.172 297.828C298.421 297.078 298 296.061 298 295C298 293.939 298.421 292.922 299.172 292.172C299.922 291.421 300.939 291 302 291C303.061 291 304.078 291.421 304.828 292.172C305.579 292.922 306 293.939 306 295C306 296.061 305.579 297.078 304.828 297.828C304.078 298.579 303.061 299 302 299ZM302 297C302.53 297 303.039 296.789 303.414 296.414C303.789 296.039 304 295.53 304 295C304 294.47 303.789 293.961 303.414 293.586C303.039 293.211 302.53 293 302 293C301.47 293 300.961 293.211 300.586 293.586C300.211 293.961 300 294.47 300 295C300 295.53 300.211 296.039 300.586 296.414C300.961 296.789 301.47 297 302 297Z" fill="#E2E8F0"/>
<path d="M236 336C230.477 336 226 331.523 226 326C226 320.477 230.477 316 236 316C241.523 316 246 320.477 246 326C246 331.523 241.523 336 236 336ZM231.013 332.256C232.429 333.388 234.188 334.003 236 334C237.97 334 239.773 333.288 241.167 332.108C240.516 331.44 239.737 330.909 238.877 330.547C238.017 330.185 237.093 329.999 236.16 330C235.193 329.999 234.236 330.199 233.349 330.587C232.463 330.976 231.668 331.544 231.013 332.256V332.256ZM229.616 330.82C230.456 329.928 231.471 329.218 232.596 328.733C233.722 328.248 234.934 327.998 236.16 328C237.342 327.998 238.512 328.23 239.604 328.682C240.696 329.134 241.687 329.798 242.522 330.634C243.378 329.429 243.884 328.011 243.983 326.536C244.082 325.061 243.77 323.588 243.082 322.279C242.395 320.971 241.359 319.879 240.088 319.123C238.817 318.368 237.362 317.98 235.885 318.001C234.407 318.023 232.964 318.453 231.716 319.245C230.467 320.036 229.463 321.158 228.814 322.486C228.164 323.814 227.896 325.296 228.037 326.767C228.179 328.238 228.725 329.641 229.616 330.821V330.82ZM236 327C234.939 327 233.922 326.579 233.172 325.828C232.421 325.078 232 324.061 232 323C232 321.939 232.421 320.922 233.172 320.172C233.922 319.421 234.939 319 236 319C237.061 319 238.078 319.421 238.828 320.172C239.579 320.922 240 321.939 240 323C240 324.061 239.579 325.078 238.828 325.828C238.078 326.579 237.061 327 236 327ZM236 325C236.53 325 237.039 324.789 237.414 324.414C237.789 324.039 238 323.53 238 323C238 322.47 237.789 321.961 237.414 321.586C237.039 321.211 236.53 321 236 321C235.47 321 234.961 321.211 234.586 321.586C234.211 321.961 234 322.47 234 323C234 323.53 234.211 324.039 234.586 324.414C234.961 324.789 235.47 325 236 325Z" fill="#E2E8F0"/>
<path d="M280 336C274.477 336 270 331.523 270 326C270 320.477 274.477 316 280 316C285.523 316 290 320.477 290 326C290 331.523 285.523 336 280 336ZM275.013 332.256C276.429 333.388 278.188 334.003 280 334C281.97 334 283.773 333.288 285.167 332.108C284.516 331.44 283.737 330.909 282.877 330.547C282.017 330.185 281.093 329.999 280.16 330C279.193 329.999 278.236 330.199 277.349 330.587C276.463 330.976 275.668 331.544 275.013 332.256V332.256ZM273.616 330.82C274.456 329.928 275.471 329.218 276.596 328.733C277.722 328.248 278.934 327.998 280.16 328C281.342 327.998 282.512 328.23 283.604 328.682C284.696 329.134 285.687 329.798 286.522 330.634C287.378 329.429 287.884 328.011 287.983 326.536C288.082 325.061 287.77 323.588 287.082 322.279C286.395 320.971 285.359 319.879 284.088 319.123C282.817 318.368 281.362 317.98 279.885 318.001C278.407 318.023 276.964 318.453 275.716 319.245C274.467 320.036 273.463 321.158 272.814 322.486C272.164 323.814 271.896 325.296 272.037 326.767C272.179 328.238 272.725 329.641 273.616 330.821V330.82ZM280 327C278.939 327 277.922 326.579 277.172 325.828C276.421 325.078 276 324.061 276 323C276 321.939 276.421 320.922 277.172 320.172C277.922 319.421 278.939 319 280 319C281.061 319 282.078 319.421 282.828 320.172C283.579 320.922 284 321.939 284 323C284 324.061 283.579 325.078 282.828 325.828C282.078 326.579 281.061 327 280 327ZM280 325C280.53 325 281.039 324.789 281.414 324.414C281.789 324.039 282 323.53 282 323C282 322.47 281.789 321.961 281.414 321.586C281.039 321.211 280.53 321 280 321C279.47 321 278.961 321.211 278.586 321.586C278.211 321.961 278 322.47 278 323C278 323.53 278.211 324.039 278.586 324.414C278.961 324.789 279.47 325 280 325Z" fill="#E2E8F0"/>
<rect x="78" y="85" width="160" height="20" rx="4" fill="#C5EDF0"/>
<rect x="78" y="121" width="114" height="20" rx="4" fill="#C5EDF0"/>
<rect x="78" y="165" width="84" height="30" rx="4" fill="#33C0CB"/>
<path d="M98.354 185.196C97.6166 185.196 96.9633 185.065 96.394 184.804C95.8246 184.543 95.3766 184.16 95.05 183.656C94.7326 183.143 94.574 182.522 94.574 181.794V181.444H96.072V181.794C96.072 182.485 96.2773 183.003 96.688 183.348C97.108 183.693 97.6633 183.866 98.354 183.866C99.054 183.866 99.5813 183.721 99.936 183.432C100.291 183.133 100.468 182.751 100.468 182.284C100.468 181.976 100.384 181.724 100.216 181.528C100.048 181.332 99.81 181.178 99.502 181.066C99.194 180.945 98.8253 180.833 98.396 180.73L97.878 180.604C97.2526 180.455 96.7066 180.273 96.24 180.058C95.7826 179.834 95.428 179.54 95.176 179.176C94.924 178.812 94.798 178.345 94.798 177.776C94.798 177.197 94.938 176.703 95.218 176.292C95.5073 175.881 95.904 175.564 96.408 175.34C96.912 175.116 97.5046 175.004 98.186 175.004C98.8673 175.004 99.474 175.121 100.006 175.354C100.547 175.587 100.972 175.933 101.28 176.39C101.588 176.847 101.742 177.421 101.742 178.112V178.616H100.244V178.112C100.244 177.692 100.155 177.351 99.978 177.09C99.81 176.829 99.572 176.637 99.264 176.516C98.956 176.395 98.5966 176.334 98.186 176.334C97.5886 176.334 97.122 176.46 96.786 176.712C96.4593 176.955 96.296 177.295 96.296 177.734C96.296 178.033 96.366 178.28 96.506 178.476C96.6553 178.663 96.87 178.817 97.15 178.938C97.43 179.059 97.78 179.167 98.2 179.26L98.718 179.386C99.3526 179.526 99.9126 179.708 100.398 179.932C100.883 180.147 101.266 180.441 101.546 180.814C101.826 181.187 101.966 181.668 101.966 182.256C101.966 182.844 101.817 183.357 101.518 183.796C101.229 184.235 100.813 184.58 100.272 184.832C99.7306 185.075 99.0913 185.196 98.354 185.196Z" fill="white"/>
<path d="M103.595 185V178.098H105.037V185H103.595ZM104.323 177.16C104.043 177.16 103.805 177.071 103.609 176.894C103.423 176.707 103.329 176.469 103.329 176.18C103.329 175.891 103.423 175.657 103.609 175.48C103.805 175.293 104.043 175.2 104.323 175.2C104.613 175.2 104.851 175.293 105.037 175.48C105.224 175.657 105.317 175.891 105.317 176.18C105.317 176.469 105.224 176.707 105.037 176.894C104.851 177.071 104.613 177.16 104.323 177.16Z" fill="white"/>
<path d="M106.841 181.584V181.374C106.841 180.646 106.986 180.025 107.275 179.512C107.574 178.999 107.966 178.602 108.451 178.322C108.937 178.042 109.469 177.902 110.047 177.902C110.719 177.902 111.233 178.028 111.587 178.28C111.951 178.532 112.217 178.803 112.385 179.092H112.609V178.098H114.009V186.414C114.009 186.834 113.883 187.17 113.631 187.422C113.389 187.674 113.053 187.8 112.623 187.8H107.975V186.54H112.175C112.446 186.54 112.581 186.4 112.581 186.12V183.922H112.357C112.255 184.09 112.11 184.263 111.923 184.44C111.737 184.617 111.489 184.762 111.181 184.874C110.883 184.986 110.505 185.042 110.047 185.042C109.469 185.042 108.932 184.907 108.437 184.636C107.952 184.356 107.565 183.959 107.275 183.446C106.986 182.923 106.841 182.303 106.841 181.584ZM110.439 183.782C111.065 183.782 111.578 183.586 111.979 183.194C112.39 182.793 112.595 182.242 112.595 181.542V181.416C112.595 180.697 112.395 180.147 111.993 179.764C111.592 179.372 111.074 179.176 110.439 179.176C109.823 179.176 109.31 179.372 108.899 179.764C108.498 180.147 108.297 180.697 108.297 181.416V181.542C108.297 182.242 108.498 182.793 108.899 183.194C109.31 183.586 109.823 183.782 110.439 183.782Z" fill="white"/>
<path d="M116.132 185V178.098H117.546V179.134H117.77C117.901 178.854 118.134 178.593 118.47 178.35C118.806 178.107 119.306 177.986 119.968 177.986C120.491 177.986 120.953 178.103 121.354 178.336C121.765 178.569 122.087 178.901 122.32 179.33C122.554 179.75 122.67 180.259 122.67 180.856V185H121.228V180.968C121.228 180.371 121.079 179.932 120.78 179.652C120.482 179.363 120.071 179.218 119.548 179.218C118.951 179.218 118.47 179.414 118.106 179.806C117.752 180.198 117.574 180.767 117.574 181.514V185H116.132Z" fill="white"/>
<path d="M130.96 185.126C130.437 185.126 129.971 185.009 129.56 184.776C129.149 184.543 128.827 184.211 128.594 183.782C128.361 183.353 128.244 182.839 128.244 182.242V178.098H129.686V182.144C129.686 182.741 129.835 183.185 130.134 183.474C130.433 183.754 130.848 183.894 131.38 183.894C131.968 183.894 132.439 183.698 132.794 183.306C133.158 182.905 133.34 182.331 133.34 181.584V178.098H134.782V185H133.368V183.964H133.144C133.013 184.244 132.78 184.51 132.444 184.762C132.108 185.005 131.613 185.126 130.96 185.126Z" fill="white"/>
<path d="M136.914 187.8V178.098H138.328V179.092H138.552C138.729 178.784 138.995 178.509 139.35 178.266C139.714 178.023 140.232 177.902 140.904 177.902C141.482 177.902 142.01 178.042 142.486 178.322C142.971 178.602 143.358 179.008 143.648 179.54C143.946 180.063 144.096 180.697 144.096 181.444V181.654C144.096 182.401 143.951 183.04 143.662 183.572C143.372 184.095 142.985 184.496 142.5 184.776C142.014 185.056 141.482 185.196 140.904 185.196C140.456 185.196 140.078 185.14 139.77 185.028C139.462 184.916 139.214 184.776 139.028 184.608C138.841 184.431 138.692 184.249 138.58 184.062H138.356V187.8H136.914ZM140.484 183.936C141.118 183.936 141.636 183.735 142.038 183.334C142.439 182.933 142.64 182.359 142.64 181.612V181.486C142.64 180.749 142.434 180.179 142.024 179.778C141.622 179.377 141.109 179.176 140.484 179.176C139.868 179.176 139.354 179.377 138.944 179.778C138.542 180.179 138.342 180.749 138.342 181.486V181.612C138.342 182.359 138.542 182.933 138.944 183.334C139.354 183.735 139.868 183.936 140.484 183.936Z" fill="white"/>
<path d="M286 78C286 73.5817 289.582 70 294 70H456V210H294C289.582 210 286 206.418 286 202V78Z" fill="#33C0CB" fill-opacity="0.1"/>
<rect x="55" y="47" width="400" height="298" rx="11" stroke="#33C0CB" stroke-width="2"/>
<path d="M283 367.334C278.397 367.334 274.667 363.603 274.667 359C274.667 354.398 278.397 350.667 283 350.667C287.602 350.667 291.333 354.398 291.333 359C291.333 363.603 287.602 367.334 283 367.334ZM283 365.667C284.768 365.667 286.464 364.965 287.714 363.714C288.964 362.464 289.667 360.768 289.667 359C289.667 357.232 288.964 355.537 287.714 354.286C286.464 353.036 284.768 352.334 283 352.334C281.232 352.334 279.536 353.036 278.286 354.286C277.036 355.537 276.333 357.232 276.333 359C276.333 360.768 277.036 362.464 278.286 363.714C279.536 364.965 281.232 365.667 283 365.667V365.667ZM280.083 360.667H284.667C284.777 360.667 284.883 360.623 284.961 360.545C285.039 360.467 285.083 360.361 285.083 360.25C285.083 360.14 285.039 360.034 284.961 359.956C284.883 359.878 284.777 359.834 284.667 359.834H281.333C280.781 359.834 280.251 359.614 279.86 359.223C279.469 358.833 279.25 358.303 279.25 357.75C279.25 357.198 279.469 356.668 279.86 356.277C280.251 355.886 280.781 355.667 281.333 355.667H282.167V354H283.833V355.667H285.917V357.334H281.333C281.223 357.334 281.117 357.378 281.039 357.456C280.961 357.534 280.917 357.64 280.917 357.75C280.917 357.861 280.961 357.967 281.039 358.045C281.117 358.123 281.223 358.167 281.333 358.167H284.667C285.219 358.167 285.749 358.386 286.14 358.777C286.53 359.168 286.75 359.698 286.75 360.25C286.75 360.803 286.53 361.333 286.14 361.723C285.749 362.114 285.219 362.334 284.667 362.334H283.833V364H282.167V362.334H280.083V360.667Z" fill="white"/>
<path d="M261 378.334C256.397 378.334 252.667 374.603 252.667 370C252.667 365.398 256.397 361.667 261 361.667C265.602 361.667 269.333 365.398 269.333 370C269.333 374.603 265.602 378.334 261 378.334ZM261 376.667C262.768 376.667 264.464 375.965 265.714 374.714C266.964 373.464 267.667 371.768 267.667 370C267.667 368.232 266.964 366.537 265.714 365.286C264.464 364.036 262.768 363.334 261 363.334C259.232 363.334 257.536 364.036 256.286 365.286C255.036 366.537 254.333 368.232 254.333 370C254.333 371.768 255.036 373.464 256.286 374.714C257.536 375.965 259.232 376.667 261 376.667V376.667ZM258.083 371.667H262.667C262.777 371.667 262.883 371.623 262.961 371.545C263.039 371.467 263.083 371.361 263.083 371.25C263.083 371.14 263.039 371.034 262.961 370.956C262.883 370.878 262.777 370.834 262.667 370.834H259.333C258.781 370.834 258.251 370.614 257.86 370.223C257.469 369.833 257.25 369.303 257.25 368.75C257.25 368.198 257.469 367.668 257.86 367.277C258.251 366.886 258.781 366.667 259.333 366.667H260.167V365H261.833V366.667H263.917V368.334H259.333C259.223 368.334 259.117 368.378 259.039 368.456C258.961 368.534 258.917 368.64 258.917 368.75C258.917 368.861 258.961 368.967 259.039 369.045C259.117 369.123 259.223 369.167 259.333 369.167H262.667C263.219 369.167 263.749 369.386 264.14 369.777C264.53 370.168 264.75 370.698 264.75 371.25C264.75 371.803 264.53 372.333 264.14 372.723C263.749 373.114 263.219 373.334 262.667 373.334H261.833V375H260.167V373.334H258.083V371.667Z" fill="white"/>
<path d="M239 367.334C234.397 367.334 230.667 363.603 230.667 359C230.667 354.398 234.397 350.667 239 350.667C243.602 350.667 247.333 354.398 247.333 359C247.333 363.603 243.602 367.334 239 367.334ZM239 365.667C240.768 365.667 242.464 364.965 243.714 363.714C244.964 362.464 245.667 360.768 245.667 359C245.667 357.232 244.964 355.537 243.714 354.286C242.464 353.036 240.768 352.334 239 352.334C237.232 352.334 235.536 353.036 234.286 354.286C233.036 355.537 232.333 357.232 232.333 359C232.333 360.768 233.036 362.464 234.286 363.714C235.536 364.965 237.232 365.667 239 365.667V365.667ZM236.083 360.667H240.667C240.777 360.667 240.883 360.623 240.961 360.545C241.039 360.467 241.083 360.361 241.083 360.25C241.083 360.14 241.039 360.034 240.961 359.956C240.883 359.878 240.777 359.834 240.667 359.834H237.333C236.781 359.834 236.251 359.614 235.86 359.223C235.469 358.833 235.25 358.303 235.25 357.75C235.25 357.198 235.469 356.668 235.86 356.277C236.251 355.886 236.781 355.667 237.333 355.667H238.167V354H239.833V355.667H241.917V357.334H237.333C237.223 357.334 237.117 357.378 237.039 357.456C236.961 357.534 236.917 357.64 236.917 357.75C236.917 357.861 236.961 357.967 237.039 358.045C237.117 358.123 237.223 358.167 237.333 358.167H240.667C241.219 358.167 241.749 358.386 242.14 358.777C242.53 359.168 242.75 359.698 242.75 360.25C242.75 360.803 242.53 361.333 242.14 361.723C241.749 362.114 241.219 362.334 240.667 362.334H239.833V364H238.167V362.334H236.083V360.667Z" fill="white"/>
</g>
<defs>
<linearGradient id="paint0_linear_589_14173" x1="58.6786" y1="160.922" x2="7.18672" y2="194.091" gradientUnits="userSpaceOnUse">
<stop stop-color="#F1F5F9"/>
<stop offset="1" stop-color="#F1F5F9" stop-opacity="0"/>
</linearGradient>
<linearGradient id="paint1_linear_589_14173" x1="182.679" y1="385.922" x2="131.187" y2="419.091" gradientUnits="userSpaceOnUse">
<stop stop-color="#F1F5F9"/>
<stop offset="1" stop-color="#F1F5F9" stop-opacity="0"/>
</linearGradient>
<linearGradient id="paint2_linear_589_14173" x1="349.679" y1="318.922" x2="298.187" y2="352.091" gradientUnits="userSpaceOnUse">
<stop stop-color="#F1F5F9"/>
<stop offset="1" stop-color="#F1F5F9" stop-opacity="0"/>
</linearGradient>
<linearGradient id="paint3_linear_589_14173" x1="486.679" y1="76.9217" x2="435.187" y2="110.091" gradientUnits="userSpaceOnUse">
<stop stop-color="#F1F5F9"/>
<stop offset="1" stop-color="#F1F5F9" stop-opacity="0"/>
</linearGradient>
<linearGradient id="paint4_linear_589_14173" x1="58.6786" y1="24.9217" x2="7.18672" y2="58.0911" gradientUnits="userSpaceOnUse">
<stop stop-color="#F1F5F9"/>
<stop offset="1" stop-color="#F1F5F9" stop-opacity="0"/>
</linearGradient>
<linearGradient id="paint5_linear_589_14173" x1="46.6786" y1="353.922" x2="-4.81328" y2="387.091" gradientUnits="userSpaceOnUse">
<stop stop-color="#F1F5F9"/>
<stop offset="1" stop-color="#F1F5F9" stop-opacity="0"/>
</linearGradient>
<linearGradient id="paint6_linear_589_14173" x1="132.131" y1="230.985" x2="35.9875" y2="292.817" gradientUnits="userSpaceOnUse">
<stop stop-color="#C0FBFF"/>
<stop offset="1" stop-color="#F9FFFF" stop-opacity="0"/>
</linearGradient>
<linearGradient id="paint7_linear_589_14173" x1="478.42" y1="18.092" x2="434.973" y2="46.2138" gradientUnits="userSpaceOnUse">
<stop stop-color="#C0FBFF"/>
<stop offset="1" stop-color="#F9FFFF" stop-opacity="0"/>
</linearGradient>
<linearGradient id="paint8_linear_589_14173" x1="200.42" y1="144.092" x2="156.973" y2="172.214" gradientUnits="userSpaceOnUse">
<stop stop-color="#C0FBFF"/>
<stop offset="1" stop-color="#F9FFFF" stop-opacity="0"/>
</linearGradient>
<linearGradient id="paint9_linear_589_14173" x1="244.42" y1="280.092" x2="200.973" y2="308.214" gradientUnits="userSpaceOnUse">
<stop stop-color="#C0FBFF"/>
<stop offset="1" stop-color="#F9FFFF" stop-opacity="0"/>
</linearGradient>
<linearGradient id="paint10_linear_589_14173" x1="297.42" y1="386.092" x2="253.973" y2="414.214" gradientUnits="userSpaceOnUse">
<stop stop-color="#C0FBFF"/>
<stop offset="1" stop-color="#F9FFFF" stop-opacity="0"/>
</linearGradient>
<linearGradient id="paint11_linear_589_14173" x1="504.42" y1="236.092" x2="460.973" y2="264.214" gradientUnits="userSpaceOnUse">
<stop stop-color="#C0FBFF"/>
<stop offset="1" stop-color="#F9FFFF" stop-opacity="0"/>
</linearGradient>
<linearGradient id="paint12_linear_589_14173" x1="138.131" y1="48.9853" x2="41.9875" y2="110.817" gradientUnits="userSpaceOnUse">
<stop stop-color="#C0FBFF"/>
<stop offset="0.760417" stop-color="#E2FDFF" stop-opacity="0.53"/>
<stop offset="1" stop-color="#F9FFFF" stop-opacity="0"/>
</linearGradient>
<linearGradient id="paint13_linear_589_14173" x1="484.131" y1="336.985" x2="387.988" y2="398.817" gradientUnits="userSpaceOnUse">
<stop stop-color="#C0FBFF"/>
<stop offset="0.760417" stop-color="#E2FDFF" stop-opacity="0.53"/>
<stop offset="1" stop-color="#F9FFFF" stop-opacity="0"/>
</linearGradient>
<linearGradient id="paint14_linear_589_14173" x1="387.131" y1="96.9853" x2="290.988" y2="158.817" gradientUnits="userSpaceOnUse">
<stop stop-color="#C0FBFF"/>
<stop offset="0.760417" stop-color="#E2FDFF" stop-opacity="0.53"/>
<stop offset="1" stop-color="#F9FFFF" stop-opacity="0"/>
</linearGradient>
<linearGradient id="paint15_linear_589_14173" x1="315.131" y1="12.9853" x2="218.988" y2="74.8173" gradientUnits="userSpaceOnUse">
<stop stop-color="#EFF5FB" stop-opacity="0.92"/>
<stop offset="1" stop-color="#F1F5F9" stop-opacity="0"/>
</linearGradient>
<linearGradient id="paint16_linear_589_14173" x1="483.292" y1="159.524" x2="412.894" y2="204.772" gradientUnits="userSpaceOnUse">
<stop stop-color="#EFF5FB" stop-opacity="0.92"/>
<stop offset="1" stop-color="#F1F5F9" stop-opacity="0"/>
</linearGradient>
<linearGradient id="paint17_linear_589_14173" x1="461.182" y1="346" x2="141.211" y2="-67.4568" gradientUnits="userSpaceOnUse">
<stop offset="0.489583" stop-color="#061618"/>
<stop offset="0.967248" stop-color="#1C6B71"/>
</linearGradient>
<linearGradient id="paint18_linear_589_14173" x1="192.576" y1="240.955" x2="165.555" y2="363.04" gradientUnits="userSpaceOnUse">
<stop stop-color="#061618"/>
<stop offset="1" stop-color="#33C0CB" stop-opacity="0.55"/>
</linearGradient>
<linearGradient id="paint19_linear_589_14173" x1="161" y1="235" x2="176.674" y2="311.801" gradientUnits="userSpaceOnUse">
<stop stop-color="#061618"/>
<stop offset="1" stop-color="#33C0CB"/>
</linearGradient>
<clipPath id="clip0_589_14173">
<rect width="510" height="425" fill="white"/>
</clipPath>
</defs>
</svg>
