<svg width="510" height="425" viewBox="0 0 510 425" fill="none" xmlns="http://www.w3.org/2000/svg">
<g clip-path="url(#clip0_589_14408)">
<path d="M28.4343 178.56L29.068 177.787L28.3982 177.238L27.7593 177.823L28.4343 178.56ZM35.3838 184.253L34.7502 185.027L35.4609 185.609L36.1011 184.95L35.3838 184.253ZM57.9999 161.985C57.9919 161.433 57.5377 160.992 56.9855 161L47.9864 161.131C47.4342 161.139 46.993 161.593 47.0011 162.145C47.0091 162.697 47.4632 163.139 48.0155 163.131L56.0146 163.014L56.1307 171.014C56.1387 171.566 56.5929 172.007 57.1451 171.999C57.6974 171.991 58.1385 171.537 58.1305 170.985L57.9999 161.985ZM5.67501 200.738L29.1094 179.298L27.7593 177.823L4.32499 199.262L5.67501 200.738ZM27.8007 179.334L34.7502 185.027L36.0175 183.479L29.068 177.787L27.8007 179.334ZM36.1011 184.95L57.7173 162.697L56.2827 161.303L34.6665 183.556L36.1011 184.95Z" fill="url(#paint0_linear_589_14408)"/>
<path d="M152.434 403.56L153.068 402.787L152.398 402.238L151.759 402.823L152.434 403.56ZM159.384 409.253L158.75 410.027L159.461 410.609L160.101 409.95L159.384 409.253ZM182 386.985C181.992 386.433 181.538 385.992 180.985 386L171.986 386.131C171.434 386.139 170.993 386.593 171.001 387.145C171.009 387.697 171.463 388.139 172.015 388.131L180.015 388.014L180.131 396.014C180.139 396.566 180.593 397.007 181.145 396.999C181.697 396.991 182.139 396.537 182.131 395.985L182 386.985ZM129.675 425.738L153.109 404.298L151.759 402.823L128.325 424.262L129.675 425.738ZM151.801 404.334L158.75 410.027L160.018 408.479L153.068 402.787L151.801 404.334ZM160.101 409.95L181.717 387.697L180.283 386.303L158.667 408.556L160.101 409.95Z" fill="url(#paint1_linear_589_14408)"/>
<path d="M430.434 61.5603L431.068 60.7867L430.398 60.238L429.759 60.8225L430.434 61.5603ZM437.384 67.2529L436.75 68.0265L437.461 68.6087L438.101 67.9497L437.384 67.2529ZM460 44.9855C459.992 44.4333 459.538 43.9921 458.985 44.0001L449.986 44.1307C449.434 44.1387 448.993 44.5929 449.001 45.1451C449.009 45.6974 449.463 46.1385 450.015 46.1305L458.015 46.0144L458.131 54.0136C458.139 54.5658 458.593 55.007 459.145 54.9989C459.697 54.9909 460.139 54.5368 460.131 53.9845L460 44.9855ZM407.675 83.7378L431.109 62.2981L429.759 60.8225L406.325 82.2622L407.675 83.7378ZM429.801 62.3339L436.75 68.0265L438.018 66.4793L431.068 60.7867L429.801 62.3339ZM438.101 67.9497L459.717 45.6968L458.283 44.3032L436.667 66.5561L438.101 67.9497Z" fill="url(#paint2_linear_589_14408)"/>
<path d="M28.4343 42.5603L29.068 41.7867L28.3982 41.238L27.7593 41.8225L28.4343 42.5603ZM35.3838 48.2529L34.7502 49.0265L35.4609 49.6087L36.1011 48.9497L35.3838 48.2529ZM57.9999 25.9855C57.9919 25.4333 57.5377 24.9921 56.9855 25.0001L47.9864 25.1307C47.4342 25.1387 46.993 25.5929 47.0011 26.1451C47.0091 26.6974 47.4632 27.1385 48.0155 27.1305L56.0146 27.0144L56.1307 35.0136C56.1387 35.5658 56.5929 36.007 57.1451 35.9989C57.6974 35.9909 58.1385 35.5368 58.1305 34.9845L57.9999 25.9855ZM5.67501 64.7378L29.1094 43.2981L27.7593 41.8225L4.32499 63.2622L5.67501 64.7378ZM27.8007 43.3339L34.7502 49.0265L36.0175 47.4793L29.068 41.7867L27.8007 43.3339ZM36.1011 48.9497L57.7173 26.6968L56.2827 25.3032L34.6665 47.5561L36.1011 48.9497Z" fill="url(#paint3_linear_589_14408)"/>
<path d="M16.4343 371.56L17.068 370.787L16.3982 370.238L15.7593 370.823L16.4343 371.56ZM23.3838 377.253L22.7502 378.027L23.4609 378.609L24.1011 377.95L23.3838 377.253ZM45.9999 354.985C45.9919 354.433 45.5377 353.992 44.9855 354L35.9864 354.131C35.4342 354.139 34.993 354.593 35.0011 355.145C35.0091 355.697 35.4632 356.139 36.0155 356.131L44.0146 356.014L44.1307 364.014C44.1387 364.566 44.5929 365.007 45.1451 364.999C45.6974 364.991 46.1385 364.537 46.1305 363.985L45.9999 354.985ZM-6.32499 393.738L17.1094 372.298L15.7593 370.823L-7.67501 392.262L-6.32499 393.738ZM15.8007 372.334L22.7502 378.027L24.0175 376.479L17.068 370.787L15.8007 372.334ZM24.1011 377.95L45.7173 355.697L44.2827 354.303L22.6665 376.556L24.1011 377.95Z" fill="url(#paint4_linear_589_14408)"/>
<path d="M33.7141 286.942L34.9827 285.395L33.6417 284.295L32.3628 285.467L33.7141 286.942ZM46.6775 297.578L45.4089 299.124L46.8319 300.291L48.1133 298.97L46.6775 297.578ZM88.9998 255.969C88.9828 254.865 88.0738 253.983 86.9693 254L68.9715 254.276C67.867 254.293 66.9854 255.202 67.0023 256.307C67.0193 257.411 67.9283 258.293 69.0328 258.276L85.0309 258.03L85.2761 274.029C85.293 275.133 86.2021 276.015 87.3065 275.998C88.411 275.981 89.2926 275.072 89.2756 273.967L88.9998 255.969ZM-8.64879 328.475L35.0653 288.416L32.3628 285.467L-11.3512 325.525L-8.64879 328.475ZM32.4455 288.488L45.4089 299.124L47.9461 296.032L34.9827 285.395L32.4455 288.488ZM48.1133 298.97L88.4357 257.392L85.5643 254.608L45.2418 296.185L48.1133 298.97Z" fill="url(#paint5_linear_589_14408)"/>
<path d="M271.829 26.9455L272.461 26.1704L271.793 25.6259L271.156 26.2061L271.829 26.9455ZM277.709 31.7393L277.078 32.5144L277.786 33.0922L278.425 32.4378L277.709 31.7393ZM297 12.9879C296.993 12.4356 296.54 11.9934 295.988 12.0001L286.989 12.1091C286.436 12.1158 285.994 12.5689 286.001 13.1212C286.007 13.6734 286.461 14.1157 287.013 14.109L295.012 14.012L295.109 22.0115C295.116 22.5637 295.569 23.006 296.121 22.9993C296.673 22.9926 297.116 22.5395 297.109 21.9872L297 12.9879ZM252.673 45.7394L272.502 27.6849L271.156 26.2061L251.327 44.2606L252.673 45.7394ZM271.197 27.7206L277.078 32.5144L278.341 30.9642L272.461 26.1704L271.197 27.7206ZM278.425 32.4378L296.716 13.6985L295.284 12.3015L276.994 31.0408L278.425 32.4378Z" fill="url(#paint6_linear_589_14408)"/>
<path d="M271.829 400.946L272.461 400.17L271.793 399.626L271.156 400.206L271.829 400.946ZM277.709 405.739L277.078 406.514L277.786 407.092L278.425 406.438L277.709 405.739ZM297 386.988C296.993 386.436 296.54 385.993 295.988 386L286.989 386.109C286.436 386.116 285.994 386.569 286.001 387.121C286.007 387.673 286.461 388.116 287.013 388.109L295.012 388.012L295.109 396.011C295.116 396.564 295.569 397.006 296.121 396.999C296.673 396.993 297.116 396.539 297.109 395.987L297 386.988ZM252.673 419.739L272.502 401.685L271.156 400.206L251.327 418.261L252.673 419.739ZM271.197 401.721L277.078 406.514L278.341 404.964L272.461 400.17L271.197 401.721ZM278.425 406.438L296.716 387.698L295.284 386.302L276.994 405.041L278.425 406.438Z" fill="url(#paint7_linear_589_14408)"/>
<path d="M478.829 250.946L479.461 250.17L478.793 249.626L478.156 250.206L478.829 250.946ZM484.709 255.739L484.078 256.514L484.786 257.092L485.425 256.438L484.709 255.739ZM504 236.988C503.993 236.436 503.54 235.993 502.988 236L493.989 236.109C493.436 236.116 492.994 236.569 493.001 237.121C493.007 237.673 493.461 238.116 494.013 238.109L502.012 238.012L502.109 246.011C502.116 246.564 502.569 247.006 503.121 246.999C503.673 246.993 504.116 246.539 504.109 245.987L504 236.988ZM459.673 269.739L479.502 251.685L478.156 250.206L458.327 268.261L459.673 269.739ZM478.197 251.721L484.078 256.514L485.341 254.964L479.461 250.17L478.197 251.721ZM485.425 256.438L503.716 237.698L502.284 236.302L483.994 255.041L485.425 256.438Z" fill="url(#paint8_linear_589_14408)"/>
<path d="M427.714 369.942L428.983 368.395L427.642 367.295L426.363 368.467L427.714 369.942ZM440.678 380.578L439.409 382.124L440.832 383.291L442.113 381.97L440.678 380.578ZM483 338.969C482.983 337.865 482.074 336.983 480.969 337L462.971 337.276C461.867 337.293 460.985 338.202 461.002 339.307C461.019 340.411 461.928 341.293 463.033 341.276L479.031 341.03L479.276 357.029C479.293 358.133 480.202 359.015 481.307 358.998C482.411 358.981 483.293 358.072 483.276 356.967L483 338.969ZM385.351 411.475L429.065 371.416L426.363 368.467L382.649 408.525L385.351 411.475ZM426.445 371.488L439.409 382.124L441.946 379.032L428.983 368.395L426.445 371.488ZM442.113 381.97L482.436 340.392L479.564 337.608L439.242 379.185L442.113 381.97Z" fill="url(#paint9_linear_589_14408)"/>
<path d="M441.997 183.661L443.266 182.116L441.924 181.014L440.645 182.187L441.997 183.661ZM451.486 191.451L450.217 192.997L451.64 194.166L452.922 192.843L451.486 191.451ZM483 160.969C482.983 159.864 482.073 158.983 480.969 159L462.971 159.281C461.867 159.299 460.985 160.208 461.002 161.312C461.02 162.417 461.929 163.298 463.033 163.281L479.031 163.031L479.281 179.029C479.299 180.133 480.208 181.015 481.312 180.998C482.417 180.98 483.298 180.071 483.281 178.967L483 160.969ZM411.352 214.474L443.349 185.136L440.645 182.187L408.648 211.526L411.352 214.474ZM440.728 185.207L450.217 192.997L452.755 189.906L443.266 182.116L440.728 185.207ZM452.922 192.843L482.436 162.392L479.564 159.608L450.049 190.059L452.922 192.843Z" fill="url(#paint10_linear_589_14408)"/>
<g clip-path="url(#clip1_589_14408)">
<g opacity="0.5">
<path d="M206 140.27H313C314.663 140.27 316 141.607 316 143.243V274.345C316 275.98 314.663 277.318 313 277.318H206C204.337 277.318 203 275.98 203 274.345V143.243C203 141.607 204.337 140.27 206 140.27Z" fill="url(#paint11_linear_589_14408)" stroke="#33C0CB" stroke-width="2"/>
<path d="M216.5 153.678H238.5V175.515H216.5V153.678Z" fill="url(#paint12_linear_589_14408)" stroke="#33C0CB" stroke-width="2"/>
</g>
<path d="M306 146.719H199C197.067 146.719 195.5 148.275 195.5 150.195V281.297C195.5 283.217 197.067 284.773 199 284.773H306C307.933 284.773 309.5 283.217 309.5 281.297V150.195C309.5 148.275 307.933 146.719 306 146.719Z" fill="url(#paint13_linear_589_14408)"/>
<path d="M296 158.141H209C207.895 158.141 207 159.03 207 160.127V193.896C207 194.993 207.895 195.882 209 195.882H296C297.105 195.882 298 194.993 298 193.896V160.127C298 159.03 297.105 158.141 296 158.141Z" fill="#C5EDF0" fill-opacity="0.5"/>
<path d="M271 201.842H208C207.448 201.842 207 202.286 207 202.835V206.808C207 207.356 207.448 207.801 208 207.801H271C271.552 207.801 272 207.356 272 206.808V202.835C272 202.286 271.552 201.842 271 201.842Z" fill="#28969E"/>
<path d="M297 211.773H208C207.448 211.773 207 212.218 207 212.767V213.76C207 214.308 207.448 214.753 208 214.753H297C297.552 214.753 298 214.308 298 213.76V212.767C298 212.218 297.552 211.773 297 211.773Z" fill="#C5EDF0"/>
<path d="M284.5 217.733H208C207.448 217.733 207 218.177 207 218.726V219.719C207 220.268 207.448 220.712 208 220.712H284.5C285.052 220.712 285.5 220.268 285.5 219.719V218.726C285.5 218.177 285.052 217.733 284.5 217.733Z" fill="#C5EDF0"/>
<path d="M291 223.692H208C207.448 223.692 207 224.137 207 224.685V225.678C207 226.227 207.448 226.671 208 226.671H291C291.552 226.671 292 226.227 292 225.678V224.685C292 224.137 291.552 223.692 291 223.692Z" fill="#C5EDF0"/>
<path d="M256 229.651H208C207.448 229.651 207 230.096 207 230.644V231.637C207 232.186 207.448 232.63 208 232.63H256C256.552 232.63 257 232.186 257 231.637V230.644C257 230.096 256.552 229.651 256 229.651Z" fill="#C5EDF0"/>
<path d="M268.5 235.61H208C207.448 235.61 207 236.055 207 236.603V237.597C207 238.145 207.448 238.59 208 238.59H268.5C269.052 238.59 269.5 238.145 269.5 237.597V236.603C269.5 236.055 269.052 235.61 268.5 235.61Z" fill="#C5EDF0"/>
<path d="M287 250.508H208C207.448 250.508 207 250.953 207 251.501V255.474C207 256.023 207.448 256.467 208 256.467H287C287.552 256.467 288 256.023 288 255.474V251.501C288 250.953 287.552 250.508 287 250.508Z" fill="#28969E"/>
<path d="M277 260.44H208C207.448 260.44 207 260.885 207 261.433V262.427C207 262.975 207.448 263.42 208 263.42H277C277.552 263.42 278 262.975 278 262.427V261.433C278 260.885 277.552 260.44 277 260.44Z" fill="#C5EDF0"/>
<path d="M297 266.399H208C207.448 266.399 207 266.844 207 267.392V268.386C207 268.934 207.448 269.379 208 269.379H297C297.552 269.379 298 268.934 298 268.386V267.392C298 266.844 297.552 266.399 297 266.399Z" fill="#C5EDF0"/>
<path d="M265 272.358H208C207.448 272.358 207 272.803 207 273.352V274.345C207 274.893 207.448 275.338 208 275.338H265C265.552 275.338 266 274.893 266 274.345V273.352C266 272.803 265.552 272.358 265 272.358Z" fill="#C5EDF0"/>
<path d="M260.536 180.994C259.416 180.555 259.769 180.124 260.932 180.513C261.569 180.724 261.621 180.775 261.475 181.003C261.337 181.223 261.121 181.223 260.536 180.994Z" fill="#061618"/>
<path d="M260.846 181.392C261.319 181.561 261.406 181.662 261.19 181.822C260.966 181.991 260.51 181.932 260.088 181.687C259.494 181.332 260.071 181.113 260.846 181.392Z" fill="#061618"/>
<path d="M243.821 176.728C244.268 176.407 244.355 176.255 244.174 176.145C244.062 176.077 243.33 174.591 242.822 173.408C242.176 171.904 242.124 171.946 244.578 171.904L246.327 171.87L246.163 171.558C244.751 168.837 245.268 167.595 247.326 168.77C247.842 169.065 248.471 169.42 248.721 169.547C249.255 169.834 249.238 169.91 249.022 168.482C248.824 167.156 249.22 166.75 250.125 167.35C250.288 167.46 250.865 167.899 251.399 168.322C252.536 169.226 252.441 169.192 252.682 168.736C253.173 167.832 253.905 167.511 254.207 168.077C254.594 168.803 255.102 171.448 254.87 171.524C254.594 171.617 253.965 170.637 253.612 169.564C253.552 169.395 253.199 169.767 253.087 170.113C252.949 170.544 252.734 170.451 251.382 169.395C250.874 168.989 250.435 168.668 250.426 168.668C250.409 168.668 250.452 168.947 250.521 169.277C250.969 171.524 250.452 171.262 248.437 170.273C246.62 169.378 246.792 169.353 247.162 170.485L247.627 171.921C247.929 172.85 247.627 173.247 246.861 172.935C246.516 172.791 244.001 172.842 244.001 172.985C244.001 173.019 244.243 173.484 244.527 174.008C245.276 175.368 245.397 175.773 245.629 176.077C245.853 176.356 245.681 176.931 245.328 176.998C244.957 177.066 244.466 177.573 243.536 178.443C246.292 179.508 246.353 179.355 244.906 181.299C244.501 181.848 244.174 182.304 244.191 182.321C244.208 182.329 244.785 182.304 245.483 182.253C247.248 182.126 247.403 182.219 246.973 183.081C246.706 183.613 246.714 183.613 247.36 183.242C248.704 182.456 249.737 182.887 248.445 183.698C245.328 185.666 244.932 185.717 245.328 184.129C245.621 182.98 245.612 182.963 245.268 183.005C244.794 183.064 243.467 183.098 243.097 183.225C241.96 183.622 242.176 182.794 243.709 180.927C244.148 180.386 244.51 179.913 244.51 179.871C244.51 179.769 242.641 178.941 242.253 178.874C241.952 178.823 241.926 178.604 242.141 178.274C242.4 177.877 242.977 177.328 243.821 176.728Z" fill="#061618"/>
<path d="M254.052 182.76C252.209 182.845 250.633 183.487 248.816 182.414C246.568 181.096 248.342 174.954 249.772 172.985C250.719 171.684 252.037 170.983 253.716 171.853C254.732 172.377 254.939 172.546 256.205 173.923C256.808 174.574 257.496 175.241 257.738 175.393C257.979 175.554 258.272 175.748 258.392 175.824C261.277 177.776 261.923 178.274 262.155 178.747C262.793 180.04 262.526 181.704 261.527 182.617C261.26 182.861 259.09 184.289 258.986 184.289C258.952 184.289 258.78 184.484 258.607 184.72C257.324 186.477 255.86 186.908 254.491 185.945C253.509 185.261 253.552 184.712 254.663 183.664L255.008 183.343L254.655 182.718L254.052 182.76ZM261.759 179.964C261.441 178.899 259.847 177.37 259.985 178.257C260.157 179.364 259.167 181.375 258.082 182.143L257.634 182.464L257.953 182.676C259.572 183.791 262.31 181.831 261.759 179.964ZM254.956 184.923C255.206 185.109 255.43 184.754 255.43 184.754C255.8 184.391 256.144 184.534 255.886 184.906C255.705 185.159 255.61 185.151 255.869 185.421C256.239 185.802 256.403 185.734 257.29 184.906C258.685 183.596 258.771 183.402 258.091 183.132C257.755 182.997 257.746 182.929 257.54 183.292C257.169 183.943 256.721 183.833 255.826 183.732C255.705 183.715 255.593 183.765 255.516 183.85L255.275 184.137C255.085 184.315 254.767 184.779 254.956 184.923ZM255.834 182.608C255.524 182.836 256.136 183.292 256.403 183.292C256.584 183.292 257.014 182.988 257.014 182.862C257.014 182.693 256.05 182.448 255.834 182.608ZM257.875 181.324C259.822 179.6 259.856 177.64 257.961 176.508C256.807 175.816 255.8 174.996 255.077 174.16C254.81 173.856 254.491 173.374 254.31 173.23C254.026 172.994 253.983 173.205 254.129 173.442C255.92 176.238 254.939 179.575 253.656 180.952C251.976 182.752 249.195 182.084 249.195 180.065C249.195 179.609 249.393 179.516 249.539 179.921C250.486 182.633 252.2 180.876 252.209 180.876C251.994 180.15 251.89 179.55 250.848 179.06C248.997 178.198 250.59 175.444 252.571 176.077C253.38 176.339 254.284 175.925 254.362 175.841C254.362 175.832 254.181 173.661 252.7 172.783C252.278 172.529 252.596 172.191 253.087 172.428C253.414 172.588 253.552 172.394 253.423 172.25C253.07 171.862 252.476 171.752 252.088 171.912C248.687 173.315 246.499 182.464 250.633 182.388C251.184 182.38 252.347 182.211 254.052 182.017C255.645 181.848 256.687 182.38 257.875 181.324ZM254.172 177.108C254.172 176.998 254.069 176.948 253.673 176.905C253.397 176.872 253.122 176.812 253.053 176.779C252.725 176.593 252.648 176.686 252.596 177.302C252.536 177.995 252.286 178.57 251.976 178.73C251.856 178.789 251.761 178.874 251.761 178.908C251.761 178.975 253.044 179.905 253.147 179.905C253.311 179.913 254.172 177.556 254.172 177.108ZM251.391 176.644C251.261 176.838 250.986 177.826 250.986 178.097C250.986 178.333 251.175 178.113 251.425 177.59C251.787 176.855 251.752 176.103 251.391 176.644Z" fill="#061618"/>
<path d="M306 146.719H199C197.067 146.719 195.5 148.275 195.5 150.195V281.297C195.5 283.217 197.067 284.773 199 284.773H306C307.933 284.773 309.5 283.217 309.5 281.297V150.195C309.5 148.275 307.933 146.719 306 146.719Z" stroke="#33C0CB" stroke-width="2"/>
</g>
<path fill-rule="evenodd" clip-rule="evenodd" d="M298.987 71.5051C297.501 72.1509 296.339 73.3704 295.766 74.8863C295.192 76.4022 295.257 78.0854 295.944 79.553L317.24 125.023C318.645 128.024 322.217 129.317 325.218 127.912C328.219 126.506 329.513 122.934 328.107 119.933L314.039 89.8946C339.733 100.851 361.506 119.548 376.226 143.522C393.078 170.969 399.579 203.53 394.559 235.344C389.539 267.158 373.328 296.136 348.843 317.06C326.236 336.379 297.948 347.662 268.391 349.28C264.314 349.503 261 352.792 261 356.876C261 360.959 264.313 364.289 268.392 364.088C301.473 362.456 333.165 349.911 358.45 328.303C385.613 305.09 403.598 272.943 409.167 237.649C414.736 202.355 407.523 166.233 388.828 135.784C372.329 108.912 347.842 88.0165 318.95 75.9158L349.82 62.5047C352.859 61.1843 354.253 57.6501 352.932 54.6108C351.612 51.5715 348.078 50.1781 345.039 51.4985L298.987 71.5051Z" fill="#33C0CB"/>
<path fill-rule="evenodd" clip-rule="evenodd" d="M211.013 352.591C212.499 351.945 213.661 350.726 214.234 349.21C214.808 347.694 214.743 346.011 214.056 344.543L192.76 299.073C191.355 296.073 187.783 294.779 184.782 296.185C181.781 297.59 180.487 301.162 181.893 304.163L195.961 334.202C170.267 323.245 148.494 304.548 133.774 280.575C116.922 253.127 110.421 220.566 115.441 188.752C120.461 156.938 136.672 127.96 161.157 107.036C183.764 87.7167 212.052 76.434 241.609 74.8166C245.686 74.5934 249 71.3041 249 67.2204C249 63.1368 245.687 59.8073 241.608 60.0085C208.527 61.6399 176.835 74.1856 151.55 95.7937C124.387 119.007 106.402 151.153 100.833 186.447C95.2641 221.741 102.477 257.863 121.172 288.312C137.671 315.184 162.158 336.08 191.05 348.18L160.18 361.592C157.141 362.912 155.747 366.446 157.068 369.485C158.388 372.525 161.922 373.918 164.961 372.598L211.013 352.591Z" fill="#33C0CB"/>
<path d="M104.714 68.9416L105.983 67.3955L104.642 66.2952L103.363 67.4671L104.714 68.9416ZM117.678 79.5778L116.409 81.124L117.832 82.2915L119.113 80.9702L117.678 79.5778ZM160 37.9693C159.983 36.8649 159.074 35.9833 157.969 36.0002L139.971 36.2761C138.867 36.293 137.985 37.2021 138.002 38.3065C138.019 39.411 138.928 40.2926 140.033 40.2756L156.031 40.0304L156.276 56.0285C156.293 57.133 157.202 58.0146 158.307 57.9977C159.411 57.9807 160.293 57.0717 160.276 55.9672L160 37.9693ZM62.3512 110.475L106.065 70.4162L103.363 67.4671L59.6488 107.525L62.3512 110.475ZM103.445 70.4878L116.409 81.124L118.946 78.0316L105.983 67.3955L103.445 70.4878ZM119.113 80.9702L159.436 39.3924L156.564 36.6076L116.242 78.1854L119.113 80.9702Z" fill="url(#paint14_linear_589_14408)"/>
</g>
<defs>
<linearGradient id="paint0_linear_589_14408" x1="58.6786" y1="160.922" x2="7.18672" y2="194.091" gradientUnits="userSpaceOnUse">
<stop stop-color="#F1F5F9"/>
<stop offset="1" stop-color="#F1F5F9" stop-opacity="0"/>
</linearGradient>
<linearGradient id="paint1_linear_589_14408" x1="182.679" y1="385.922" x2="131.187" y2="419.091" gradientUnits="userSpaceOnUse">
<stop stop-color="#F1F5F9"/>
<stop offset="1" stop-color="#F1F5F9" stop-opacity="0"/>
</linearGradient>
<linearGradient id="paint2_linear_589_14408" x1="460.679" y1="43.9217" x2="409.187" y2="77.0911" gradientUnits="userSpaceOnUse">
<stop stop-color="#F1F5F9"/>
<stop offset="1" stop-color="#F1F5F9" stop-opacity="0"/>
</linearGradient>
<linearGradient id="paint3_linear_589_14408" x1="58.6786" y1="24.9217" x2="7.18672" y2="58.0911" gradientUnits="userSpaceOnUse">
<stop stop-color="#F1F5F9"/>
<stop offset="1" stop-color="#F1F5F9" stop-opacity="0"/>
</linearGradient>
<linearGradient id="paint4_linear_589_14408" x1="46.6786" y1="353.922" x2="-4.81328" y2="387.091" gradientUnits="userSpaceOnUse">
<stop stop-color="#F1F5F9"/>
<stop offset="1" stop-color="#F1F5F9" stop-opacity="0"/>
</linearGradient>
<linearGradient id="paint5_linear_589_14408" x1="90.1313" y1="253.985" x2="-6.01249" y2="315.817" gradientUnits="userSpaceOnUse">
<stop stop-color="#C0FBFF"/>
<stop offset="1" stop-color="#F9FFFF" stop-opacity="0"/>
</linearGradient>
<linearGradient id="paint6_linear_589_14408" x1="297.42" y1="12.092" x2="253.973" y2="40.2138" gradientUnits="userSpaceOnUse">
<stop stop-color="#C0FBFF"/>
<stop offset="1" stop-color="#F9FFFF" stop-opacity="0"/>
</linearGradient>
<linearGradient id="paint7_linear_589_14408" x1="297.42" y1="386.092" x2="253.973" y2="414.214" gradientUnits="userSpaceOnUse">
<stop stop-color="#C0FBFF"/>
<stop offset="1" stop-color="#F9FFFF" stop-opacity="0"/>
</linearGradient>
<linearGradient id="paint8_linear_589_14408" x1="504.42" y1="236.092" x2="460.973" y2="264.214" gradientUnits="userSpaceOnUse">
<stop stop-color="#C0FBFF"/>
<stop offset="1" stop-color="#F9FFFF" stop-opacity="0"/>
</linearGradient>
<linearGradient id="paint9_linear_589_14408" x1="484.131" y1="336.985" x2="387.988" y2="398.817" gradientUnits="userSpaceOnUse">
<stop stop-color="#C0FBFF"/>
<stop offset="0.760417" stop-color="#E2FDFF" stop-opacity="0.53"/>
<stop offset="1" stop-color="#F9FFFF" stop-opacity="0"/>
</linearGradient>
<linearGradient id="paint10_linear_589_14408" x1="483.292" y1="159.524" x2="412.894" y2="204.772" gradientUnits="userSpaceOnUse">
<stop stop-color="#EFF5FB" stop-opacity="0.92"/>
<stop offset="1" stop-color="#F1F5F9" stop-opacity="0"/>
</linearGradient>
<linearGradient id="paint11_linear_589_14408" x1="318.482" y1="278.318" x2="169.118" y2="159.195" gradientUnits="userSpaceOnUse">
<stop offset="0.489583" stop-color="#061618"/>
<stop offset="0.967248" stop-color="#1C6B71"/>
</linearGradient>
<linearGradient id="paint12_linear_589_14408" x1="239.809" y1="176.515" x2="213.558" y2="151.027" gradientUnits="userSpaceOnUse">
<stop offset="0.489583" stop-color="#061618"/>
<stop offset="0.967248" stop-color="#1C6B71"/>
</linearGradient>
<linearGradient id="paint13_linear_589_14408" x1="311.482" y1="285.27" x2="162.118" y2="166.147" gradientUnits="userSpaceOnUse">
<stop offset="0.489583" stop-color="#061618"/>
<stop offset="0.967248" stop-color="#1C6B71"/>
</linearGradient>
<linearGradient id="paint14_linear_589_14408" x1="161.131" y1="35.9853" x2="64.9875" y2="97.8173" gradientUnits="userSpaceOnUse">
<stop stop-color="#C0FBFF"/>
<stop offset="0.760417" stop-color="#E2FDFF" stop-opacity="0.53"/>
<stop offset="1" stop-color="#F9FFFF" stop-opacity="0"/>
</linearGradient>
<clipPath id="clip0_589_14408">
<rect width="510" height="425" fill="white"/>
</clipPath>
<clipPath id="clip1_589_14408">
<rect width="122" height="146" fill="white" transform="translate(195 139.27)"/>
</clipPath>
</defs>
</svg>
