<svg width="620" height="425" viewBox="0 0 620 425" fill="none" xmlns="http://www.w3.org/2000/svg">
<g clip-path="url(#clip0_801_10733)">
<path d="M28.4343 178.56L29.068 177.787L28.3982 177.238L27.7593 177.823L28.4343 178.56ZM35.3838 184.253L34.7502 185.027L35.4609 185.609L36.1011 184.95L35.3838 184.253ZM57.9999 161.985C57.9919 161.433 57.5377 160.992 56.9855 161L47.9864 161.131C47.4342 161.139 46.993 161.593 47.0011 162.145C47.0091 162.697 47.4632 163.139 48.0155 163.131L56.0146 163.014L56.1307 171.014C56.1387 171.566 56.5929 172.007 57.1451 171.999C57.6974 171.991 58.1385 171.537 58.1305 170.985L57.9999 161.985ZM5.67501 200.738L29.1094 179.298L27.7593 177.823L4.32499 199.262L5.67501 200.738ZM27.8007 179.334L34.7502 185.027L36.0175 183.479L29.068 177.787L27.8007 179.334ZM36.1011 184.95L57.7173 162.697L56.2827 161.303L34.6665 183.556L36.1011 184.95Z" fill="url(#paint0_linear_801_10733)"/>
<path d="M152.434 403.56L153.068 402.787L152.398 402.238L151.759 402.823L152.434 403.56ZM159.384 409.253L158.75 410.027L159.461 410.609L160.101 409.95L159.384 409.253ZM182 386.985C181.992 386.433 181.538 385.992 180.985 386L171.986 386.131C171.434 386.139 170.993 386.593 171.001 387.145C171.009 387.697 171.463 388.139 172.015 388.131L180.015 388.014L180.131 396.014C180.139 396.566 180.593 397.007 181.145 396.999C181.697 396.991 182.139 396.537 182.131 395.985L182 386.985ZM129.675 425.738L153.109 404.298L151.759 402.823L128.325 424.262L129.675 425.738ZM151.801 404.334L158.75 410.027L160.018 408.479L153.068 402.787L151.801 404.334ZM160.101 409.95L181.717 387.697L180.283 386.303L158.667 408.556L160.101 409.95Z" fill="url(#paint1_linear_801_10733)"/>
<path d="M331.434 384.56L332.068 383.787L331.398 383.238L330.759 383.823L331.434 384.56ZM338.384 390.253L337.75 391.027L338.461 391.609L339.101 390.95L338.384 390.253ZM361 367.985C360.992 367.433 360.538 366.992 359.985 367L350.986 367.131C350.434 367.139 349.993 367.593 350.001 368.145C350.009 368.697 350.463 369.139 351.015 369.131L359.015 369.014L359.131 377.014C359.139 377.566 359.593 378.007 360.145 377.999C360.697 377.991 361.139 377.537 361.131 376.985L361 367.985ZM308.675 406.738L332.109 385.298L330.759 383.823L307.325 405.262L308.675 406.738ZM330.801 385.334L337.75 391.027L339.018 389.479L332.068 383.787L330.801 385.334ZM339.101 390.95L360.717 368.697L359.283 367.303L337.667 389.556L339.101 390.95Z" fill="url(#paint2_linear_801_10733)"/>
<path d="M397.434 355.56L398.068 354.787L397.398 354.238L396.759 354.823L397.434 355.56ZM404.384 361.253L403.75 362.027L404.461 362.609L405.101 361.95L404.384 361.253ZM427 338.985C426.992 338.433 426.538 337.992 425.985 338L416.986 338.131C416.434 338.139 415.993 338.593 416.001 339.145C416.009 339.697 416.463 340.139 417.015 340.131L425.015 340.014L425.131 348.014C425.139 348.566 425.593 349.007 426.145 348.999C426.697 348.991 427.139 348.537 427.131 347.985L427 338.985ZM374.675 377.738L398.109 356.298L396.759 354.823L373.325 376.262L374.675 377.738ZM396.801 356.334L403.75 362.027L405.018 360.479L398.068 354.787L396.801 356.334ZM405.101 361.95L426.717 339.697L425.283 338.303L403.667 360.556L405.101 361.95Z" fill="url(#paint3_linear_801_10733)"/>
<path d="M568.434 77.5603L569.068 76.7867L568.398 76.238L567.759 76.8225L568.434 77.5603ZM575.384 83.2529L574.75 84.0265L575.461 84.6087L576.101 83.9497L575.384 83.2529ZM598 60.9855C597.992 60.4333 597.538 59.9921 596.985 60.0001L587.986 60.1307C587.434 60.1387 586.993 60.5929 587.001 61.1451C587.009 61.6974 587.463 62.1385 588.015 62.1305L596.015 62.0144L596.131 70.0136C596.139 70.5658 596.593 71.007 597.145 70.9989C597.697 70.9909 598.139 70.5368 598.131 69.9845L598 60.9855ZM545.675 99.7378L569.109 78.2981L567.759 76.8225L544.325 98.2622L545.675 99.7378ZM567.801 78.3339L574.75 84.0265L576.018 82.4793L569.068 76.7867L567.801 78.3339ZM576.101 83.9497L597.717 61.6968L596.283 60.3032L574.667 82.5561L576.101 83.9497Z" fill="url(#paint4_linear_801_10733)"/>
<path d="M28.4343 42.5603L29.068 41.7867L28.3982 41.238L27.7593 41.8225L28.4343 42.5603ZM35.3838 48.2529L34.7502 49.0265L35.4609 49.6087L36.1011 48.9497L35.3838 48.2529ZM57.9999 25.9855C57.9919 25.4333 57.5377 24.9921 56.9855 25.0001L47.9864 25.1307C47.4342 25.1387 46.993 25.5929 47.0011 26.1451C47.0091 26.6974 47.4632 27.1385 48.0155 27.1305L56.0146 27.0144L56.1307 35.0136C56.1387 35.5658 56.5929 36.007 57.1451 35.9989C57.6974 35.9909 58.1385 35.5368 58.1305 34.9845L57.9999 25.9855ZM5.67501 64.7378L29.1094 43.2981L27.7593 41.8225L4.32499 63.2622L5.67501 64.7378ZM27.8007 43.3339L34.7502 49.0265L36.0175 47.4793L29.068 41.7867L27.8007 43.3339ZM36.1011 48.9497L57.7173 26.6968L56.2827 25.3032L34.6665 47.5561L36.1011 48.9497Z" fill="url(#paint5_linear_801_10733)"/>
<path d="M356.434 45.5603L357.068 44.7867L356.398 44.238L355.759 44.8225L356.434 45.5603ZM363.384 51.2529L362.75 52.0265L363.461 52.6087L364.101 51.9497L363.384 51.2529ZM386 28.9855C385.992 28.4333 385.538 27.9921 384.985 28.0001L375.986 28.1307C375.434 28.1387 374.993 28.5929 375.001 29.1451C375.009 29.6974 375.463 30.1385 376.015 30.1305L384.015 30.0144L384.131 38.0136C384.139 38.5658 384.593 39.007 385.145 38.9989C385.697 38.9909 386.139 38.5368 386.131 37.9845L386 28.9855ZM333.675 67.7378L357.109 46.2981L355.759 44.8225L332.325 66.2622L333.675 67.7378ZM355.801 46.3339L362.75 52.0265L364.018 50.4793L357.068 44.7867L355.801 46.3339ZM364.101 51.9497L385.717 29.6968L384.283 28.3032L362.667 50.5561L364.101 51.9497Z" fill="url(#paint6_linear_801_10733)"/>
<path d="M16.4343 371.56L17.068 370.787L16.3982 370.238L15.7593 370.823L16.4343 371.56ZM23.3838 377.253L22.7502 378.027L23.4609 378.609L24.1011 377.95L23.3838 377.253ZM45.9999 354.985C45.9919 354.433 45.5377 353.992 44.9855 354L35.9864 354.131C35.4342 354.139 34.993 354.593 35.0011 355.145C35.0091 355.697 35.4632 356.139 36.0155 356.131L44.0146 356.014L44.1307 364.014C44.1387 364.566 44.5929 365.007 45.1451 364.999C45.6974 364.991 46.1385 364.537 46.1305 363.985L45.9999 354.985ZM-6.32499 393.738L17.1094 372.298L15.7593 370.823L-7.67501 392.262L-6.32499 393.738ZM15.8007 372.334L22.7502 378.027L24.0175 376.479L17.068 370.787L15.8007 372.334ZM24.1011 377.95L45.7173 355.697L44.2827 354.303L22.6665 376.556L24.1011 377.95Z" fill="url(#paint7_linear_801_10733)"/>
<path d="M423.434 407.56L424.068 406.787L423.398 406.238L422.759 406.823L423.434 407.56ZM430.384 413.253L429.75 414.027L430.461 414.609L431.101 413.95L430.384 413.253ZM453 390.985C452.992 390.433 452.538 389.992 451.985 390L442.986 390.131C442.434 390.139 441.993 390.593 442.001 391.145C442.009 391.697 442.463 392.139 443.015 392.131L451.015 392.014L451.131 400.014C451.139 400.566 451.593 401.007 452.145 400.999C452.697 400.991 453.139 400.537 453.131 399.985L453 390.985ZM400.675 429.738L424.109 408.298L422.759 406.823L399.325 428.262L400.675 429.738ZM422.801 408.334L429.75 414.027L431.018 412.479L424.068 406.787L422.801 408.334ZM431.101 413.95L452.717 391.697L451.283 390.303L429.667 412.556L431.101 413.95Z" fill="url(#paint8_linear_801_10733)"/>
<path d="M75.7141 263.942L76.9827 262.395L75.6417 261.295L74.3628 262.467L75.7141 263.942ZM88.6775 274.578L87.4089 276.124L88.8319 277.291L90.1133 275.97L88.6775 274.578ZM131 232.969C130.983 231.865 130.074 230.983 128.969 231L110.971 231.276C109.867 231.293 108.985 232.202 109.002 233.307C109.019 234.411 109.928 235.293 111.033 235.276L127.031 235.03L127.276 251.029C127.293 252.133 128.202 253.015 129.307 252.998C130.411 252.981 131.293 252.072 131.276 250.967L131 232.969ZM33.3512 305.475L77.0653 265.416L74.3628 262.467L30.6488 302.525L33.3512 305.475ZM74.4455 265.488L87.4089 276.124L89.9461 273.032L76.9827 262.395L74.4455 265.488ZM90.1133 275.97L130.436 234.392L127.564 231.608L87.2418 273.185L90.1133 275.97Z" fill="url(#paint9_linear_801_10733)"/>
<path d="M437.829 162.946L438.461 162.17L437.793 161.626L437.156 162.206L437.829 162.946ZM443.709 167.739L443.078 168.514L443.786 169.092L444.425 168.438L443.709 167.739ZM463 148.988C462.993 148.436 462.54 147.993 461.988 148L452.989 148.109C452.436 148.116 451.994 148.569 452.001 149.121C452.007 149.673 452.461 150.116 453.013 150.109L461.012 150.012L461.109 158.011C461.116 158.564 461.569 159.006 462.121 158.999C462.673 158.993 463.116 158.539 463.109 157.987L463 148.988ZM418.673 181.739L438.502 163.685L437.156 162.206L417.327 180.261L418.673 181.739ZM437.197 163.721L443.078 168.514L444.341 166.964L438.461 162.17L437.197 163.721ZM444.425 168.438L462.716 149.698L461.284 148.302L442.994 167.041L444.425 168.438Z" fill="url(#paint10_linear_801_10733)"/>
<path d="M459.829 266.946L460.461 266.17L459.793 265.626L459.156 266.206L459.829 266.946ZM465.709 271.739L465.078 272.514L465.786 273.092L466.425 272.438L465.709 271.739ZM485 252.988C484.993 252.436 484.54 251.993 483.988 252L474.989 252.109C474.436 252.116 473.994 252.569 474.001 253.121C474.007 253.673 474.461 254.116 475.013 254.109L483.012 254.012L483.109 262.011C483.116 262.564 483.569 263.006 484.121 262.999C484.673 262.993 485.116 262.539 485.109 261.987L485 252.988ZM440.673 285.739L460.502 267.685L459.156 266.206L439.327 284.261L440.673 285.739ZM459.197 267.721L465.078 272.514L466.341 270.964L460.461 266.17L459.197 267.721ZM466.425 272.438L484.716 253.698L483.284 252.302L464.994 271.041L466.425 272.438Z" fill="url(#paint11_linear_801_10733)"/>
<path d="M261.829 358.946L262.461 358.17L261.793 357.626L261.156 358.206L261.829 358.946ZM267.709 363.739L267.078 364.514L267.786 365.092L268.425 364.438L267.709 363.739ZM287 344.988C286.993 344.436 286.54 343.993 285.988 344L276.989 344.109C276.436 344.116 275.994 344.569 276.001 345.121C276.007 345.673 276.461 346.116 277.013 346.109L285.012 346.012L285.109 354.011C285.116 354.564 285.569 355.006 286.121 354.999C286.673 354.993 287.116 354.539 287.109 353.987L287 344.988ZM242.673 377.739L262.502 359.685L261.156 358.206L241.327 376.261L242.673 377.739ZM261.197 359.721L267.078 364.514L268.341 362.964L262.461 358.17L261.197 359.721ZM268.425 364.438L286.716 345.698L285.284 344.302L266.994 363.041L268.425 364.438Z" fill="url(#paint12_linear_801_10733)"/>
<path d="M578.829 250.946L579.461 250.17L578.793 249.626L578.156 250.206L578.829 250.946ZM584.709 255.739L584.078 256.514L584.786 257.092L585.425 256.438L584.709 255.739ZM604 236.988C603.993 236.436 603.54 235.993 602.988 236L593.989 236.109C593.436 236.116 592.994 236.569 593.001 237.121C593.007 237.673 593.461 238.116 594.013 238.109L602.012 238.012L602.109 246.011C602.116 246.564 602.569 247.006 603.121 246.999C603.673 246.993 604.116 246.539 604.109 245.987L604 236.988ZM559.673 269.739L579.502 251.685L578.156 250.206L558.327 268.261L559.673 269.739ZM578.197 251.721L584.078 256.514L585.341 254.964L579.461 250.17L578.197 251.721ZM585.425 256.438L603.716 237.698L602.284 236.302L583.994 255.041L585.425 256.438Z" fill="url(#paint13_linear_801_10733)"/>
<path d="M151.714 66.9416L152.983 65.3955L151.642 64.2952L150.363 65.4671L151.714 66.9416ZM164.678 77.5778L163.409 79.124L164.832 80.2915L166.113 78.9702L164.678 77.5778ZM207 35.9693C206.983 34.8649 206.074 33.9833 204.969 34.0002L186.971 34.2761C185.867 34.293 184.985 35.2021 185.002 36.3065C185.019 37.411 185.928 38.2926 187.033 38.2756L203.031 38.0304L203.276 54.0285C203.293 55.133 204.202 56.0146 205.307 55.9977C206.411 55.9807 207.293 55.0717 207.276 53.9672L207 35.9693ZM109.351 108.475L153.065 68.4162L150.363 65.4671L106.649 105.525L109.351 108.475ZM150.445 68.4878L163.409 79.124L165.946 76.0316L152.983 65.3955L150.445 68.4878ZM166.113 78.9702L206.436 37.3924L203.564 34.6076L163.242 76.1854L166.113 78.9702Z" fill="url(#paint14_linear_801_10733)"/>
<path d="M527.714 369.942L528.983 368.395L527.642 367.295L526.363 368.467L527.714 369.942ZM540.678 380.578L539.409 382.124L540.832 383.291L542.113 381.97L540.678 380.578ZM583 338.969C582.983 337.865 582.074 336.983 580.969 337L562.971 337.276C561.867 337.293 560.985 338.202 561.002 339.307C561.019 340.411 561.928 341.293 563.033 341.276L579.031 341.03L579.276 357.029C579.293 358.133 580.202 359.015 581.307 358.998C582.411 358.981 583.293 358.072 583.276 356.967L583 338.969ZM485.351 411.475L529.065 371.416L526.363 368.467L482.649 408.525L485.351 411.475ZM526.445 371.488L539.409 382.124L541.946 379.032L528.983 368.395L526.445 371.488ZM542.113 381.97L582.436 340.392L579.564 337.608L539.242 379.185L542.113 381.97Z" fill="url(#paint15_linear_801_10733)"/>
<path d="M487.714 42.9416L488.983 41.3955L487.642 40.2952L486.363 41.4671L487.714 42.9416ZM500.678 53.5778L499.409 55.124L500.832 56.2915L502.113 54.9702L500.678 53.5778ZM543 11.9693C542.983 10.8649 542.074 9.98331 540.969 10.0002L522.971 10.2761C521.867 10.293 520.985 11.2021 521.002 12.3065C521.019 13.411 521.928 14.2926 523.033 14.2756L539.031 14.0304L539.276 30.0285C539.293 31.133 540.202 32.0146 541.307 31.9977C542.411 31.9807 543.293 31.0717 543.276 29.9672L543 11.9693ZM445.351 84.4745L489.065 44.4162L486.363 41.4671L442.649 81.5255L445.351 84.4745ZM486.445 44.4878L499.409 55.124L501.946 52.0316L488.983 41.3955L486.445 44.4878ZM502.113 54.9702L542.436 13.3924L539.564 10.6076L499.242 52.1854L502.113 54.9702Z" fill="url(#paint16_linear_801_10733)"/>
<path d="M541.997 183.661L543.266 182.116L541.924 181.014L540.645 182.187L541.997 183.661ZM551.486 191.451L550.217 192.997L551.64 194.166L552.922 192.843L551.486 191.451ZM583 160.969C582.983 159.864 582.073 158.983 580.969 159L562.971 159.281C561.867 159.299 560.985 160.208 561.002 161.312C561.02 162.417 561.929 163.298 563.033 163.281L579.031 163.031L579.281 179.029C579.299 180.133 580.208 181.015 581.312 180.998C582.417 180.98 583.298 180.071 583.281 178.967L583 160.969ZM511.352 214.474L543.349 185.136L540.645 182.187L508.648 211.526L511.352 214.474ZM540.728 185.207L550.217 192.997L552.755 189.906L543.266 182.116L540.728 185.207ZM552.922 192.843L582.436 162.392L579.564 159.608L550.049 190.059L552.922 192.843Z" fill="url(#paint17_linear_801_10733)"/>
<g filter="url(#filter0_dd_801_10733)">
<g clip-path="url(#clip1_801_10733)">
<rect x="60" y="53" width="500" height="320" rx="12" fill="url(#paint18_linear_801_10733)"/>
<path d="M76.5014 290.237L49 264.175V401H568V159L539.701 161.5H519.41L490.043 175.5L471.355 197L461.21 210.5L429.788 230.784H402.992L372.67 241.371L331.77 278.835L316.962 264.175L283.114 278.835H271.832L256.318 296.753L235.868 290.237L221.765 278.835L211.893 290.237L196.379 296.753L184.391 278.835H174.519L164.647 290.237L149.133 296.753L136.44 290.237L127.978 278.835L107.529 290.237L93.4253 296.753L87.784 290.237H76.5014Z" fill="url(#paint19_linear_801_10733)" stroke="white" stroke-width="2"/>
<g filter="url(#filter1_dd_801_10733)">
<circle cx="520" cy="161" r="8" fill="white"/>
<circle cx="520" cy="161" r="6" fill="#EF4444"/>
</g>
<path d="M94.07 113V92H100.82L104.9 110.57H105.41L109.52 92H116.24V113H112.76V94.61H112.25L108.17 113H102.17L98.09 94.61H97.58V113H94.07ZM127.548 113.42C126.068 113.42 124.738 113.12 123.558 112.52C122.398 111.9 121.478 111.03 120.798 109.91C120.138 108.77 119.808 107.41 119.808 105.83V105.35C119.808 103.77 120.138 102.41 120.798 101.27C121.478 100.13 122.398 99.26 123.558 98.66C124.738 98.06 126.068 97.76 127.548 97.76C129.028 97.76 130.348 98.06 131.508 98.66C132.668 99.26 133.578 100.13 134.238 101.27C134.918 102.41 135.258 103.77 135.258 105.35V105.83C135.258 107.41 134.918 108.77 134.238 109.91C133.578 111.03 132.668 111.9 131.508 112.52C130.348 113.12 129.028 113.42 127.548 113.42ZM127.548 110.36C128.808 110.36 129.838 109.96 130.638 109.16C131.438 108.34 131.838 107.2 131.838 105.74V105.44C131.838 103.98 131.438 102.85 130.638 102.05C129.838 101.23 128.808 100.82 127.548 100.82C126.288 100.82 125.258 101.23 124.458 102.05C123.658 102.85 123.258 103.98 123.258 105.44V105.74C123.258 107.2 123.658 108.34 124.458 109.16C125.258 109.96 126.288 110.36 127.548 110.36ZM138.926 113V98.18H142.316V100.25H142.826C143.086 99.69 143.556 99.16 144.236 98.66C144.916 98.16 145.946 97.91 147.326 97.91C148.466 97.91 149.476 98.17 150.356 98.69C151.236 99.21 151.916 99.93 152.396 100.85C152.896 101.77 153.146 102.86 153.146 104.12V113H149.696V104.39C149.696 103.19 149.396 102.3 148.796 101.72C148.216 101.12 147.386 100.82 146.306 100.82C145.086 100.82 144.126 101.23 143.426 102.05C142.726 102.85 142.376 104 142.376 105.5V113H138.926ZM162.613 113C161.653 113 160.883 112.72 160.303 112.16C159.743 111.58 159.463 110.8 159.463 109.82V101.03H155.593V98.18H159.463V93.41H162.913V98.18H167.173V101.03H162.913V109.25C162.913 109.85 163.193 110.15 163.753 110.15H166.723V113H162.613ZM170.684 113V92H174.134V100.13H174.644C174.804 99.79 175.064 99.45 175.424 99.11C175.784 98.77 176.254 98.49 176.834 98.27C177.434 98.05 178.184 97.94 179.084 97.94C180.224 97.94 181.234 98.2 182.114 98.72C182.994 99.22 183.674 99.93 184.154 100.85C184.654 101.77 184.904 102.86 184.904 104.12V113H181.454V104.39C181.454 103.19 181.154 102.3 180.554 101.72C179.974 101.12 179.144 100.82 178.064 100.82C176.844 100.82 175.884 101.23 175.184 102.05C174.484 102.85 174.134 104 174.134 105.5V113H170.684ZM189.141 113V92H192.591V113H189.141ZM198.613 119V116H206.803C207.363 116 207.643 115.7 207.643 115.1V110.96H207.133C206.973 111.32 206.713 111.68 206.353 112.04C205.993 112.38 205.513 112.67 204.913 112.91C204.313 113.13 203.553 113.24 202.633 113.24C201.493 113.24 200.483 112.99 199.603 112.49C198.723 111.97 198.043 111.25 197.563 110.33C197.083 109.39 196.843 108.3 196.843 107.06V98.18H200.263V106.79C200.263 107.99 200.553 108.88 201.133 109.46C201.733 110.04 202.573 110.33 203.653 110.33C204.873 110.33 205.833 109.93 206.533 109.13C207.253 108.33 207.613 107.18 207.613 105.68V98.18H211.033V115.82C211.033 116.8 210.753 117.57 210.193 118.13C209.633 118.71 208.873 119 207.913 119H198.613ZM230.927 113.42C229.247 113.42 227.797 113.12 226.577 112.52C225.377 111.9 224.447 111.01 223.787 109.85C223.147 108.69 222.827 107.31 222.827 105.71V92H226.427V105.8C226.427 107.2 226.817 108.28 227.597 109.04C228.377 109.8 229.487 110.18 230.927 110.18C232.387 110.18 233.497 109.8 234.257 109.04C235.037 108.28 235.427 107.2 235.427 105.8V92H239.027V105.71C239.027 107.31 238.707 108.69 238.067 109.85C237.427 111.01 236.497 111.9 235.277 112.52C234.057 113.12 232.607 113.42 230.927 113.42ZM249.314 113.42C247.394 113.42 245.814 113 244.574 112.16C243.334 111.32 242.584 110.09 242.324 108.47L245.504 107.66C245.644 108.42 245.894 109.02 246.254 109.46C246.614 109.9 247.054 110.21 247.574 110.39C248.114 110.57 248.694 110.66 249.314 110.66C250.254 110.66 250.954 110.49 251.414 110.15C251.894 109.81 252.134 109.38 252.134 108.86C252.134 108.32 251.904 107.92 251.444 107.66C251.004 107.4 250.324 107.18 249.404 107L248.474 106.85C247.454 106.65 246.524 106.38 245.684 106.04C244.844 105.68 244.164 105.2 243.644 104.6C243.144 103.98 242.894 103.2 242.894 102.26C242.894 100.82 243.424 99.71 244.484 98.93C245.564 98.15 246.974 97.76 248.714 97.76C250.374 97.76 251.744 98.13 252.824 98.87C253.904 99.61 254.604 100.6 254.924 101.84L251.744 102.8C251.584 101.96 251.234 101.37 250.694 101.03C250.154 100.67 249.494 100.49 248.714 100.49C247.914 100.49 247.294 100.63 246.854 100.91C246.434 101.19 246.224 101.59 246.224 102.11C246.224 102.63 246.444 103.02 246.884 103.28C247.324 103.54 247.914 103.73 248.654 103.85L249.584 104.03C250.684 104.23 251.674 104.49 252.554 104.81C253.454 105.13 254.164 105.59 254.684 106.19C255.204 106.79 255.464 107.6 255.464 108.62C255.464 110.16 254.904 111.35 253.784 112.19C252.684 113.01 251.194 113.42 249.314 113.42ZM265.736 113.42C264.256 113.42 262.946 113.11 261.806 112.49C260.686 111.85 259.806 110.96 259.166 109.82C258.546 108.66 258.236 107.31 258.236 105.77V105.41C258.236 103.85 258.546 102.5 259.166 101.36C259.786 100.22 260.656 99.34 261.776 98.72C262.896 98.08 264.186 97.76 265.646 97.76C267.086 97.76 268.346 98.08 269.426 98.72C270.506 99.34 271.346 100.22 271.946 101.36C272.546 102.5 272.846 103.83 272.846 105.35V106.58H261.716C261.756 107.74 262.166 108.67 262.946 109.37C263.726 110.07 264.686 110.42 265.826 110.42C266.946 110.42 267.776 110.18 268.316 109.7C268.856 109.2 269.266 108.64 269.546 108.02L272.396 109.49C272.116 110.03 271.706 110.61 271.166 111.23C270.646 111.83 269.946 112.35 269.066 112.79C268.186 113.21 267.076 113.42 265.736 113.42ZM261.746 103.97H269.336C269.256 102.99 268.876 102.21 268.196 101.63C267.536 101.05 266.676 100.76 265.616 100.76C264.516 100.76 263.636 101.05 262.976 101.63C262.316 102.21 261.906 102.99 261.746 103.97ZM276.387 113V98.18H279.777V99.89H280.287C280.507 99.27 280.877 98.82 281.397 98.54C281.917 98.26 282.537 98.12 283.257 98.12H285.057V101.18H283.197C282.197 101.18 281.387 101.45 280.767 101.99C280.147 102.51 279.837 103.32 279.837 104.42V113H276.387ZM293.874 113.42C291.954 113.42 290.374 113 289.134 112.16C287.894 111.32 287.144 110.09 286.884 108.47L290.064 107.66C290.204 108.42 290.454 109.02 290.814 109.46C291.174 109.9 291.614 110.21 292.134 110.39C292.674 110.57 293.254 110.66 293.874 110.66C294.814 110.66 295.514 110.49 295.974 110.15C296.454 109.81 296.694 109.38 296.694 108.86C296.694 108.32 296.464 107.92 296.004 107.66C295.564 107.4 294.884 107.18 293.964 107L293.034 106.85C292.014 106.65 291.084 106.38 290.244 106.04C289.404 105.68 288.724 105.2 288.204 104.6C287.704 103.98 287.454 103.2 287.454 102.26C287.454 100.82 287.984 99.71 289.044 98.93C290.124 98.15 291.534 97.76 293.274 97.76C294.934 97.76 296.304 98.13 297.384 98.87C298.464 99.61 299.164 100.6 299.484 101.84L296.304 102.8C296.144 101.96 295.794 101.37 295.254 101.03C294.714 100.67 294.054 100.49 293.274 100.49C292.474 100.49 291.854 100.63 291.414 100.91C290.994 101.19 290.784 101.59 290.784 102.11C290.784 102.63 291.004 103.02 291.444 103.28C291.884 103.54 292.474 103.73 293.214 103.85L294.144 104.03C295.244 104.23 296.234 104.49 297.114 104.81C298.014 105.13 298.724 105.59 299.244 106.19C299.764 106.79 300.024 107.6 300.024 108.62C300.024 110.16 299.464 111.35 298.344 112.19C297.244 113.01 295.754 113.42 293.874 113.42ZM318.183 113.42C316.703 113.42 315.373 113.12 314.193 112.52C313.033 111.9 312.113 111.03 311.433 109.91C310.773 108.77 310.443 107.41 310.443 105.83V105.35C310.443 103.77 310.773 102.41 311.433 101.27C312.113 100.13 313.033 99.26 314.193 98.66C315.373 98.06 316.703 97.76 318.183 97.76C319.663 97.76 320.983 98.06 322.143 98.66C323.303 99.26 324.213 100.13 324.873 101.27C325.553 102.41 325.893 103.77 325.893 105.35V105.83C325.893 107.41 325.553 108.77 324.873 109.91C324.213 111.03 323.303 111.9 322.143 112.52C320.983 113.12 319.663 113.42 318.183 113.42ZM318.183 110.36C319.443 110.36 320.473 109.96 321.273 109.16C322.073 108.34 322.473 107.2 322.473 105.74V105.44C322.473 103.98 322.073 102.85 321.273 102.05C320.473 101.23 319.443 100.82 318.183 100.82C316.923 100.82 315.893 101.23 315.093 102.05C314.293 102.85 313.893 103.98 313.893 105.44V105.74C313.893 107.2 314.293 108.34 315.093 109.16C315.893 109.96 316.923 110.36 318.183 110.36ZM331.614 113V101.03H327.654V98.18H331.614V95.18C331.614 94.2 331.894 93.43 332.454 92.87C333.034 92.29 333.794 92 334.734 92H338.574V94.85H335.874C335.314 94.85 335.034 95.15 335.034 95.75V98.18H339.114V101.03H335.034V113H331.614ZM356.886 113.42C355.286 113.42 353.866 113.14 352.626 112.58C351.406 112 350.446 111.17 349.746 110.09C349.046 109.01 348.696 107.69 348.696 106.13V105.35H352.266V106.13C352.266 107.51 352.686 108.54 353.526 109.22C354.366 109.9 355.486 110.24 356.886 110.24C358.306 110.24 359.376 109.95 360.096 109.37C360.816 108.79 361.176 108.04 361.176 107.12C361.176 106.5 361.006 106 360.666 105.62C360.326 105.22 359.826 104.9 359.166 104.66C358.526 104.42 357.746 104.19 356.826 103.97L355.926 103.79C354.546 103.47 353.346 103.07 352.326 102.59C351.326 102.09 350.556 101.45 350.016 100.67C349.476 99.89 349.206 98.87 349.206 97.61C349.206 96.35 349.506 95.27 350.106 94.37C350.706 93.47 351.556 92.78 352.656 92.3C353.756 91.82 355.046 91.58 356.526 91.58C358.006 91.58 359.326 91.83 360.486 92.33C361.646 92.83 362.556 93.58 363.216 94.58C363.896 95.58 364.236 96.83 364.236 98.33V99.32H360.666V98.33C360.666 97.47 360.496 96.78 360.156 96.26C359.816 95.74 359.336 95.36 358.716 95.12C358.096 94.88 357.366 94.76 356.526 94.76C355.286 94.76 354.346 95 353.706 95.48C353.066 95.96 352.746 96.64 352.746 97.52C352.746 98.08 352.886 98.56 353.166 98.96C353.466 99.34 353.896 99.66 354.456 99.92C355.036 100.16 355.756 100.37 356.616 100.55L357.516 100.76C358.956 101.08 360.216 101.49 361.296 101.99C362.376 102.47 363.216 103.11 363.816 103.91C364.436 104.71 364.746 105.75 364.746 107.03C364.746 108.29 364.416 109.4 363.756 110.36C363.116 111.32 362.206 112.07 361.026 112.61C359.866 113.15 358.486 113.42 356.886 113.42ZM368.028 113V98.18H371.418V99.83H371.928C372.188 99.33 372.618 98.89 373.218 98.51C373.838 98.11 374.658 97.91 375.678 97.91C376.758 97.91 377.628 98.13 378.288 98.57C378.948 99.01 379.448 99.57 379.788 100.25H380.268C380.608 99.57 381.098 99.01 381.738 98.57C382.378 98.13 383.288 97.91 384.468 97.91C385.388 97.91 386.218 98.11 386.958 98.51C387.718 98.91 388.318 99.5 388.758 100.28C389.218 101.06 389.448 102.03 389.448 103.19V113H385.998V103.43C385.998 102.57 385.768 101.92 385.308 101.48C384.848 101.02 384.208 100.79 383.388 100.79C382.488 100.79 381.768 101.09 381.228 101.69C380.708 102.27 380.448 103.11 380.448 104.21V113H377.028V103.43C377.028 102.57 376.798 101.92 376.338 101.48C375.878 101.02 375.238 100.79 374.418 100.79C373.498 100.79 372.778 101.09 372.258 101.69C371.738 102.27 371.478 103.11 371.478 104.21V113H368.028ZM398.282 113.42C397.242 113.42 396.302 113.24 395.462 112.88C394.622 112.5 393.952 111.96 393.452 111.26C392.972 110.56 392.732 109.7 392.732 108.68C392.732 107.68 392.972 106.84 393.452 106.16C393.952 105.48 394.632 104.97 395.492 104.63C396.352 104.27 397.332 104.09 398.432 104.09H402.722V103.19C402.722 102.41 402.482 101.78 402.002 101.3C401.522 100.8 400.772 100.55 399.752 100.55C398.752 100.55 397.992 100.79 397.472 101.27C396.972 101.73 396.642 102.33 396.482 103.07L393.302 102.02C393.542 101.24 393.922 100.53 394.442 99.89C394.982 99.25 395.692 98.74 396.572 98.36C397.452 97.96 398.532 97.76 399.812 97.76C401.752 97.76 403.272 98.25 404.372 99.23C405.492 100.19 406.052 101.59 406.052 103.43V109.25C406.052 109.85 406.332 110.15 406.892 110.15H408.152V113H405.722C405.002 113 404.412 112.82 403.952 112.46C403.492 112.1 403.262 111.61 403.262 110.99V110.93H402.752C402.632 111.21 402.422 111.55 402.122 111.95C401.822 112.35 401.362 112.7 400.742 113C400.142 113.28 399.322 113.42 398.282 113.42ZM398.852 110.6C399.992 110.6 400.922 110.28 401.642 109.64C402.362 108.98 402.722 108.1 402.722 107V106.7H398.642C397.902 106.7 397.302 106.86 396.842 107.18C396.382 107.5 396.152 107.97 396.152 108.59C396.152 109.19 396.392 109.68 396.872 110.06C397.352 110.42 398.012 110.6 398.852 110.6ZM411.006 113V98.18H414.396V99.89H414.906C415.126 99.27 415.496 98.82 416.016 98.54C416.536 98.26 417.156 98.12 417.876 98.12H419.676V101.18H417.816C416.816 101.18 416.006 101.45 415.386 101.99C414.766 102.51 414.456 103.32 414.456 104.42V113H411.006ZM428.365 113C427.405 113 426.635 112.72 426.055 112.16C425.495 111.58 425.215 110.8 425.215 109.82V101.03H421.345V98.18H425.215V93.41H428.665V98.18H432.925V101.03H428.665V109.25C428.665 109.85 428.945 110.15 429.505 110.15H432.475V113H428.365ZM442.689 113.42C441.209 113.42 439.899 113.11 438.759 112.49C437.639 111.85 436.759 110.96 436.119 109.82C435.499 108.66 435.189 107.31 435.189 105.77V105.41C435.189 103.85 435.499 102.5 436.119 101.36C436.739 100.22 437.609 99.34 438.729 98.72C439.849 98.08 441.139 97.76 442.599 97.76C444.039 97.76 445.299 98.08 446.379 98.72C447.459 99.34 448.299 100.22 448.899 101.36C449.499 102.5 449.799 103.83 449.799 105.35V106.58H438.669C438.709 107.74 439.119 108.67 439.899 109.37C440.679 110.07 441.639 110.42 442.779 110.42C443.899 110.42 444.729 110.18 445.269 109.7C445.809 109.2 446.219 108.64 446.499 108.02L449.349 109.49C449.069 110.03 448.659 110.61 448.119 111.23C447.599 111.83 446.899 112.35 446.019 112.79C445.139 113.21 444.029 113.42 442.689 113.42ZM438.699 103.97H446.289C446.209 102.99 445.829 102.21 445.149 101.63C444.489 101.05 443.629 100.76 442.569 100.76C441.469 100.76 440.589 101.05 439.929 101.63C439.269 102.21 438.859 102.99 438.699 103.97ZM460.12 113.42C458.64 113.42 457.33 113.11 456.19 112.49C455.07 111.85 454.19 110.96 453.55 109.82C452.93 108.66 452.62 107.31 452.62 105.77V105.41C452.62 103.85 452.93 102.5 453.55 101.36C454.17 100.22 455.04 99.34 456.16 98.72C457.28 98.08 458.57 97.76 460.03 97.76C461.47 97.76 462.73 98.08 463.81 98.72C464.89 99.34 465.73 100.22 466.33 101.36C466.93 102.5 467.23 103.83 467.23 105.35V106.58H456.1C456.14 107.74 456.55 108.67 457.33 109.37C458.11 110.07 459.07 110.42 460.21 110.42C461.33 110.42 462.16 110.18 462.7 109.7C463.24 109.2 463.65 108.64 463.93 108.02L466.78 109.49C466.5 110.03 466.09 110.61 465.55 111.23C465.03 111.83 464.33 112.35 463.45 112.79C462.57 113.21 461.46 113.42 460.12 113.42ZM456.13 103.97H463.72C463.64 102.99 463.26 102.21 462.58 101.63C461.92 101.05 461.06 100.76 460 100.76C458.9 100.76 458.02 101.05 457.36 101.63C456.7 102.21 456.29 102.99 456.13 103.97Z" fill="white"/>
<path d="M93.35 173V170.57C93.35 169.09 93.59 167.88 94.07 166.94C94.57 165.98 95.28 165.2 96.2 164.6C97.12 163.98 98.24 163.47 99.56 163.07L101.48 162.47C102.26 162.21 102.92 161.9 103.46 161.54C104 161.18 104.42 160.74 104.72 160.22C105.02 159.68 105.17 159.05 105.17 158.33V158.21C105.17 157.13 104.8 156.28 104.06 155.66C103.32 155.02 102.33 154.7 101.09 154.7C99.85 154.7 98.84 155.04 98.06 155.72C97.28 156.38 96.89 157.36 96.89 158.66V159.17H93.41V158.72C93.41 157.2 93.75 155.91 94.43 154.85C95.11 153.79 96.03 152.98 97.19 152.42C98.35 151.86 99.65 151.58 101.09 151.58C102.53 151.58 103.82 151.86 104.96 152.42C106.12 152.96 107.02 153.72 107.66 154.7C108.32 155.68 108.65 156.83 108.65 158.15V158.45C108.65 159.79 108.38 160.92 107.84 161.84C107.3 162.76 106.55 163.52 105.59 164.12C104.65 164.7 103.58 165.18 102.38 165.56L100.52 166.13C99.62 166.41 98.9 166.71 98.36 167.03C97.84 167.35 97.47 167.72 97.25 168.14C97.03 168.54 96.92 169.05 96.92 169.67V169.88H108.47V173H93.35ZM112.211 177.26V175.34H113.321C114.181 175.34 114.611 174.91 114.611 174.05V173.09H114.131C113.391 173.09 112.771 172.87 112.271 172.43C111.771 171.97 111.521 171.39 111.521 170.69C111.521 169.95 111.771 169.35 112.271 168.89C112.771 168.41 113.391 168.17 114.131 168.17C114.891 168.17 115.511 168.41 115.991 168.89C116.471 169.37 116.711 170 116.711 170.78V174.08C116.711 176.2 115.661 177.26 113.561 177.26H112.211ZM127.338 173.42C125.778 173.42 124.428 173.16 123.288 172.64C122.168 172.1 121.298 171.35 120.678 170.39C120.058 169.41 119.748 168.26 119.748 166.94H123.288C123.288 167.86 123.608 168.65 124.248 169.31C124.908 169.97 125.938 170.3 127.338 170.3C128.758 170.3 129.848 169.93 130.608 169.19C131.388 168.43 131.778 167.39 131.778 166.07V163.73H131.268C130.908 164.19 130.368 164.62 129.648 165.02C128.928 165.4 127.868 165.59 126.468 165.59C125.248 165.59 124.118 165.33 123.078 164.81C122.038 164.29 121.198 163.53 120.558 162.53C119.938 161.53 119.628 160.33 119.628 158.93V158.57C119.628 157.15 119.958 155.92 120.618 154.88C121.278 153.84 122.198 153.03 123.378 152.45C124.558 151.87 125.928 151.58 127.488 151.58C129.048 151.58 130.408 151.88 131.568 152.48C132.748 153.06 133.658 153.88 134.298 154.94C134.938 156 135.258 157.23 135.258 158.63V165.86C135.258 167.52 134.918 168.91 134.238 170.03C133.578 171.15 132.648 172 131.448 172.58C130.268 173.14 128.898 173.42 127.338 173.42ZM127.428 162.8C128.328 162.8 129.098 162.64 129.738 162.32C130.378 161.98 130.878 161.52 131.238 160.94C131.598 160.34 131.778 159.64 131.778 158.84V158.6C131.778 157.4 131.388 156.45 130.608 155.75C129.828 155.05 128.768 154.7 127.428 154.7C126.108 154.7 125.058 155.05 124.278 155.75C123.498 156.45 123.108 157.4 123.108 158.6V158.84C123.108 159.64 123.288 160.34 123.648 160.94C124.008 161.52 124.508 161.98 125.148 162.32C125.808 162.64 126.568 162.8 127.428 162.8ZM140.348 173V172.22C140.348 171.46 140.408 170.82 140.528 170.3C140.648 169.76 140.908 169.14 141.308 168.44L148.568 155.57V155.12H137.108V152H152.198V156.14L144.518 169.85C144.258 170.31 144.078 170.72 143.978 171.08C143.898 171.42 143.858 171.85 143.858 172.37V173H140.348ZM162.753 173V168.74H152.253V164.69L159.903 152H166.233V165.62H169.743V168.74H166.233V173H162.753ZM155.613 165.62H162.753V154.22H162.243L155.613 165.17V165.62Z" fill="white"/>
<path d="M94.538 209.234L93.386 208.298L103.232 196.166L104.384 197.102L94.538 209.234ZM102.332 209.198C101.444 209.198 100.742 208.952 100.226 208.46C99.71 207.956 99.452 207.278 99.452 206.426V206.318C99.452 205.454 99.71 204.776 100.226 204.284C100.742 203.78 101.444 203.528 102.332 203.528C103.208 203.528 103.91 203.78 104.438 204.284C104.966 204.776 105.23 205.454 105.23 206.318V206.426C105.23 207.278 104.966 207.956 104.438 208.46C103.922 208.952 103.22 209.198 102.332 209.198ZM102.332 207.938C102.764 207.938 103.1 207.806 103.34 207.542C103.592 207.278 103.718 206.93 103.718 206.498V206.246C103.718 205.802 103.592 205.448 103.34 205.184C103.1 204.92 102.764 204.788 102.332 204.788C101.912 204.788 101.576 204.92 101.324 205.184C101.084 205.448 100.964 205.802 100.964 206.246V206.498C100.964 206.93 101.084 207.278 101.324 207.542C101.576 207.806 101.912 207.938 102.332 207.938ZM95.438 201.872C94.55 201.872 93.842 201.626 93.314 201.134C92.798 200.63 92.54 199.952 92.54 199.1V198.974C92.54 198.11 92.798 197.432 93.314 196.94C93.842 196.448 94.55 196.202 95.438 196.202C96.314 196.202 97.01 196.448 97.526 196.94C98.054 197.432 98.318 198.11 98.318 198.974V199.1C98.318 199.952 98.06 200.63 97.544 201.134C97.028 201.626 96.326 201.872 95.438 201.872ZM95.438 200.612C95.858 200.612 96.188 200.48 96.428 200.216C96.68 199.94 96.806 199.586 96.806 199.154V198.902C96.806 198.47 96.68 198.122 96.428 197.858C96.188 197.594 95.858 197.462 95.438 197.462C95.006 197.462 94.664 197.594 94.412 197.858C94.172 198.122 94.052 198.47 94.052 198.902V199.154C94.052 199.586 94.172 199.94 94.412 200.216C94.664 200.48 95.006 200.612 95.438 200.612ZM111.216 209V207.578C111.216 206.702 111.366 205.982 111.666 205.418C111.966 204.854 112.392 204.398 112.944 204.05C113.508 203.69 114.186 203.39 114.978 203.15L116.076 202.808C116.568 202.652 116.988 202.46 117.336 202.232C117.696 202.004 117.972 201.722 118.164 201.386C118.356 201.038 118.452 200.636 118.452 200.18V200.108C118.452 199.4 118.212 198.848 117.732 198.452C117.252 198.044 116.622 197.84 115.842 197.84C115.038 197.84 114.384 198.056 113.88 198.488C113.388 198.92 113.142 199.556 113.142 200.396V200.684H111.27V200.414C111.27 199.502 111.468 198.734 111.864 198.11C112.26 197.474 112.806 196.988 113.502 196.652C114.198 196.316 114.978 196.148 115.842 196.148C116.706 196.148 117.474 196.31 118.146 196.634C118.83 196.958 119.364 197.414 119.748 198.002C120.144 198.59 120.342 199.28 120.342 200.072V200.234C120.342 201.05 120.18 201.728 119.856 202.268C119.532 202.808 119.082 203.252 118.506 203.6C117.942 203.948 117.288 204.242 116.544 204.482L115.482 204.806C114.918 204.974 114.462 205.16 114.114 205.364C113.778 205.556 113.526 205.79 113.358 206.066C113.202 206.342 113.124 206.696 113.124 207.128V207.308H120.234V209H111.216ZM127.599 209V206.426H121.227V204.23L126.051 196.4H129.489V204.752H131.613V206.426H129.489V209H127.599ZM123.063 204.752H127.599V197.588H127.311L123.063 204.5V204.752Z" fill="white"/>
<path d="M163 196.5L153.5 206L148.5 201L141 208.5" stroke="#22C55E" stroke-width="2" stroke-linecap="round" stroke-linejoin="round"/>
<path d="M157 196.5H163V202.5" stroke="#22C55E" stroke-width="2" stroke-linecap="round" stroke-linejoin="round"/>
</g>
</g>
</g>
<defs>
<filter id="filter0_dd_801_10733" x="40" y="53" width="540" height="360" filterUnits="userSpaceOnUse" color-interpolation-filters="sRGB">
<feFlood flood-opacity="0" result="BackgroundImageFix"/>
<feColorMatrix in="SourceAlpha" type="matrix" values="0 0 0 0 0 0 0 0 0 0 0 0 0 0 0 0 0 0 127 0" result="hardAlpha"/>
<feMorphology radius="5" operator="erode" in="SourceAlpha" result="effect1_dropShadow_801_10733"/>
<feOffset dy="10"/>
<feGaussianBlur stdDeviation="5"/>
<feColorMatrix type="matrix" values="0 0 0 0 0 0 0 0 0 0 0 0 0 0 0 0 0 0 0.04 0"/>
<feBlend mode="normal" in2="BackgroundImageFix" result="effect1_dropShadow_801_10733"/>
<feColorMatrix in="SourceAlpha" type="matrix" values="0 0 0 0 0 0 0 0 0 0 0 0 0 0 0 0 0 0 127 0" result="hardAlpha"/>
<feMorphology radius="5" operator="erode" in="SourceAlpha" result="effect2_dropShadow_801_10733"/>
<feOffset dy="20"/>
<feGaussianBlur stdDeviation="12.5"/>
<feColorMatrix type="matrix" values="0 0 0 0 0 0 0 0 0 0 0 0 0 0 0 0 0 0 0.1 0"/>
<feBlend mode="normal" in2="effect1_dropShadow_801_10733" result="effect2_dropShadow_801_10733"/>
<feBlend mode="normal" in="SourceGraphic" in2="effect2_dropShadow_801_10733" result="shape"/>
</filter>
<filter id="filter1_dd_801_10733" x="500" y="151" width="40" height="40" filterUnits="userSpaceOnUse" color-interpolation-filters="sRGB">
<feFlood flood-opacity="0" result="BackgroundImageFix"/>
<feColorMatrix in="SourceAlpha" type="matrix" values="0 0 0 0 0 0 0 0 0 0 0 0 0 0 0 0 0 0 127 0" result="hardAlpha"/>
<feMorphology radius="2" operator="erode" in="SourceAlpha" result="effect1_dropShadow_801_10733"/>
<feOffset dy="4"/>
<feGaussianBlur stdDeviation="3"/>
<feColorMatrix type="matrix" values="0 0 0 0 0 0 0 0 0 0 0 0 0 0 0 0 0 0 0.05 0"/>
<feBlend mode="normal" in2="BackgroundImageFix" result="effect1_dropShadow_801_10733"/>
<feColorMatrix in="SourceAlpha" type="matrix" values="0 0 0 0 0 0 0 0 0 0 0 0 0 0 0 0 0 0 127 0" result="hardAlpha"/>
<feMorphology radius="3" operator="erode" in="SourceAlpha" result="effect2_dropShadow_801_10733"/>
<feOffset dy="10"/>
<feGaussianBlur stdDeviation="7.5"/>
<feColorMatrix type="matrix" values="0 0 0 0 0 0 0 0 0 0 0 0 0 0 0 0 0 0 0.1 0"/>
<feBlend mode="normal" in2="effect1_dropShadow_801_10733" result="effect2_dropShadow_801_10733"/>
<feBlend mode="normal" in="SourceGraphic" in2="effect2_dropShadow_801_10733" result="shape"/>
</filter>
<linearGradient id="paint0_linear_801_10733" x1="58.6786" y1="160.922" x2="7.18672" y2="194.091" gradientUnits="userSpaceOnUse">
<stop stop-color="#F1F5F9"/>
<stop offset="1" stop-color="#F1F5F9" stop-opacity="0"/>
</linearGradient>
<linearGradient id="paint1_linear_801_10733" x1="182.679" y1="385.922" x2="131.187" y2="419.091" gradientUnits="userSpaceOnUse">
<stop stop-color="#F1F5F9"/>
<stop offset="1" stop-color="#F1F5F9" stop-opacity="0"/>
</linearGradient>
<linearGradient id="paint2_linear_801_10733" x1="361.679" y1="366.922" x2="310.187" y2="400.091" gradientUnits="userSpaceOnUse">
<stop stop-color="#F1F5F9"/>
<stop offset="1" stop-color="#F1F5F9" stop-opacity="0"/>
</linearGradient>
<linearGradient id="paint3_linear_801_10733" x1="427.679" y1="337.922" x2="376.187" y2="371.091" gradientUnits="userSpaceOnUse">
<stop stop-color="#F1F5F9"/>
<stop offset="1" stop-color="#F1F5F9" stop-opacity="0"/>
</linearGradient>
<linearGradient id="paint4_linear_801_10733" x1="598.679" y1="59.9217" x2="547.187" y2="93.0911" gradientUnits="userSpaceOnUse">
<stop stop-color="#F1F5F9"/>
<stop offset="1" stop-color="#F1F5F9" stop-opacity="0"/>
</linearGradient>
<linearGradient id="paint5_linear_801_10733" x1="58.6786" y1="24.9217" x2="7.18672" y2="58.0911" gradientUnits="userSpaceOnUse">
<stop stop-color="#F1F5F9"/>
<stop offset="1" stop-color="#F1F5F9" stop-opacity="0"/>
</linearGradient>
<linearGradient id="paint6_linear_801_10733" x1="386.679" y1="27.9217" x2="335.187" y2="61.0911" gradientUnits="userSpaceOnUse">
<stop stop-color="#F1F5F9"/>
<stop offset="1" stop-color="#F1F5F9" stop-opacity="0"/>
</linearGradient>
<linearGradient id="paint7_linear_801_10733" x1="46.6786" y1="353.922" x2="-4.81328" y2="387.091" gradientUnits="userSpaceOnUse">
<stop stop-color="#F1F5F9"/>
<stop offset="1" stop-color="#F1F5F9" stop-opacity="0"/>
</linearGradient>
<linearGradient id="paint8_linear_801_10733" x1="453.679" y1="389.922" x2="402.187" y2="423.091" gradientUnits="userSpaceOnUse">
<stop stop-color="#F1F5F9"/>
<stop offset="1" stop-color="#F1F5F9" stop-opacity="0"/>
</linearGradient>
<linearGradient id="paint9_linear_801_10733" x1="132.131" y1="230.985" x2="35.9875" y2="292.817" gradientUnits="userSpaceOnUse">
<stop stop-color="#C0FBFF"/>
<stop offset="1" stop-color="#F9FFFF" stop-opacity="0"/>
</linearGradient>
<linearGradient id="paint10_linear_801_10733" x1="463.42" y1="148.092" x2="419.973" y2="176.214" gradientUnits="userSpaceOnUse">
<stop stop-color="#C0FBFF"/>
<stop offset="1" stop-color="#F9FFFF" stop-opacity="0"/>
</linearGradient>
<linearGradient id="paint11_linear_801_10733" x1="485.42" y1="252.092" x2="441.973" y2="280.214" gradientUnits="userSpaceOnUse">
<stop stop-color="#C0FBFF"/>
<stop offset="1" stop-color="#F9FFFF" stop-opacity="0"/>
</linearGradient>
<linearGradient id="paint12_linear_801_10733" x1="287.42" y1="344.092" x2="243.973" y2="372.214" gradientUnits="userSpaceOnUse">
<stop stop-color="#C0FBFF"/>
<stop offset="1" stop-color="#F9FFFF" stop-opacity="0"/>
</linearGradient>
<linearGradient id="paint13_linear_801_10733" x1="604.42" y1="236.092" x2="560.973" y2="264.214" gradientUnits="userSpaceOnUse">
<stop stop-color="#C0FBFF"/>
<stop offset="1" stop-color="#F9FFFF" stop-opacity="0"/>
</linearGradient>
<linearGradient id="paint14_linear_801_10733" x1="208.131" y1="33.9853" x2="111.988" y2="95.8173" gradientUnits="userSpaceOnUse">
<stop stop-color="#C0FBFF"/>
<stop offset="0.760417" stop-color="#E2FDFF" stop-opacity="0.53"/>
<stop offset="1" stop-color="#F9FFFF" stop-opacity="0"/>
</linearGradient>
<linearGradient id="paint15_linear_801_10733" x1="584.131" y1="336.985" x2="487.988" y2="398.817" gradientUnits="userSpaceOnUse">
<stop stop-color="#C0FBFF"/>
<stop offset="0.760417" stop-color="#E2FDFF" stop-opacity="0.53"/>
<stop offset="1" stop-color="#F9FFFF" stop-opacity="0"/>
</linearGradient>
<linearGradient id="paint16_linear_801_10733" x1="544.131" y1="9.98532" x2="447.988" y2="71.8173" gradientUnits="userSpaceOnUse">
<stop stop-color="#C0FBFF"/>
<stop offset="0.760417" stop-color="#E2FDFF" stop-opacity="0.53"/>
<stop offset="1" stop-color="#F9FFFF" stop-opacity="0"/>
</linearGradient>
<linearGradient id="paint17_linear_801_10733" x1="583.292" y1="159.524" x2="512.894" y2="204.772" gradientUnits="userSpaceOnUse">
<stop stop-color="#EFF5FB" stop-opacity="0.92"/>
<stop offset="1" stop-color="#F1F5F9" stop-opacity="0"/>
</linearGradient>
<linearGradient id="paint18_linear_801_10733" x1="566.445" y1="373" x2="241.554" y2="-116.524" gradientUnits="userSpaceOnUse">
<stop offset="0.489583" stop-color="#061618"/>
<stop offset="0.967248" stop-color="#1C6B71"/>
</linearGradient>
<linearGradient id="paint19_linear_801_10733" x1="308.5" y1="164" x2="308.5" y2="401" gradientUnits="userSpaceOnUse">
<stop stop-color="#33C0CB"/>
<stop offset="1" stop-color="#33C0CB" stop-opacity="0.29"/>
</linearGradient>
<clipPath id="clip0_801_10733">
<rect width="620" height="425" fill="white"/>
</clipPath>
<clipPath id="clip1_801_10733">
<rect x="60" y="53" width="500" height="320" rx="12" fill="white"/>
</clipPath>
</defs>
</svg>
