<svg width="40" height="38" viewBox="0 0 40 38" fill="none" xmlns="http://www.w3.org/2000/svg">
<path d="M38.9471 22.2098C39.2532 22.0743 39.5102 21.8523 39.6125 21.5336C39.7829 21.0024 40 19.9441 40 18C40 16.0559 39.7829 14.9976 39.6125 14.4664C39.5102 14.1477 39.2532 13.9257 38.9471 13.7902C37.6614 13.2215 33.931 11.6494 30.5882 11C30.5882 11 30 11.6 30 18C30 24.4 30.5882 25 30.5882 25C33.931 24.3506 37.6614 22.7785 38.9471 22.2098Z" fill="#33C0CB"/>
<path d="M16.8646 35.7745C16.4786 37.3719 14.899 38.3289 13.3637 37.8957L9.0933 36.6907C7.365 36.2031 6.5 34.2015 7.3012 32.5437L11.4301 24L19 26.937L16.8646 35.7745Z" fill="#33C0CB"/>
<path d="M3.21179 26.4803C1.87036 26.2945 0.7169 25.4482 0.46314 24.0823C0.22227 22.7857 0 20.8242 0 18C0 15.1758 0.22227 13.2143 0.46314 11.9177C0.7169 10.5518 1.87036 9.7055 3.21179 9.5197C8.2008 8.8285 20.8067 6.5886 29.7242 0.743202C31.9527 -0.717648 34.7249 -0.00130773 35.1194 2.68415C35.5832 5.8413 36 10.7074 36 18C36 25.2926 35.5832 30.1587 35.1194 33.3158C34.7249 36.0013 31.9527 36.7176 29.7241 35.2568C20.8067 29.4114 8.2008 27.1715 3.21179 26.4803Z" fill="#C5EDF0"/>
<path d="M0.46314 24.0826C0.7169 25.4485 1.87036 26.2948 3.21179 26.4806C3.97601 26.5865 4.91896 26.7287 6 26.9147V9.08594C4.91896 9.27194 3.97601 9.41414 3.21179 9.52004C1.87036 9.70584 0.7169 10.5521 0.46314 11.918C0.22227 13.2146 0 15.1761 0 18.0003C0 20.8245 0.22227 22.7861 0.46314 24.0826Z" fill="#33C0CB"/>
</svg>
