<svg width="40" height="40" viewBox="0 0 40 40" fill="none" xmlns="http://www.w3.org/2000/svg">
<path d="M20 0C31.0457 0 40 8.9543 40 20C40 31.0457 31.0457 40 20 40C8.9543 40 0 31.0457 0 20C0 8.9543 8.9543 0 20 0Z" fill="#C5EDF0"/>
<path fill-rule="evenodd" clip-rule="evenodd" d="M40 20C40 8.9543 31.0457 0 20 0C8.9543 0 0 8.9543 0 20C0 31.0457 8.9543 40 20 40C31.0457 40 40 31.0457 40 20ZM5.06294 21.6851C5.51759 27.6335 8.4184 31.8513 13.2215 33.7945C11.7591 30.6325 10.7609 26.485 10.5442 21.885C8.2585 21.8257 6.4315 21.7521 5.06294 21.6851ZM5.06294 18.315C6.4315 18.248 8.2585 18.1743 10.5442 18.115C10.7609 13.515 11.7591 9.3675 13.2215 6.2055C8.4184 8.1487 5.51759 12.3665 5.06294 18.315ZM15.5465 21.976C15.7371 26.4681 16.6161 35 20 35C23.3839 35 24.2629 26.4681 24.4534 21.976C23.0743 21.9912 21.5898 22 20 22C18.4102 22 16.9257 21.9912 15.5465 21.976ZM24.4534 18.024C23.0743 18.0088 21.5898 18 20 18C18.4102 18 16.9257 18.0088 15.5465 18.024C15.7371 13.5319 16.6161 5 20 5C23.3839 5 24.2629 13.5319 24.4534 18.024ZM29.4558 21.885C29.2391 26.485 28.2409 30.6325 26.7785 33.7945C31.5816 31.8513 34.4824 27.6335 34.9371 21.6851C33.5685 21.7521 31.7414 21.8257 29.4558 21.885ZM34.9371 18.315C33.5685 18.248 31.7415 18.1743 29.4558 18.115C29.2391 13.515 28.2409 9.3675 26.7785 6.2055C31.5816 8.1487 34.4824 12.3665 34.9371 18.315Z" fill="#33C0CB"/>
</svg>
