<svg width="103" height="18" viewBox="0 0 103 18" fill="none" xmlns="http://www.w3.org/2000/svg">
<path d="M4.8 14V1.96H0.5V-9.53674e-07H11.26V1.96H6.96V14H4.8ZM11.8325 14V4.14H13.8525V5.3H14.1725C14.3325 4.88667 14.5858 4.58667 14.9325 4.4C15.2925 4.2 15.7325 4.1 16.2525 4.1H17.4325V5.96H16.1725C15.5058 5.96 14.9592 6.14667 14.5325 6.52C14.1058 6.88 13.8925 7.44 13.8925 8.2V14H11.8325ZM23.3469 14.18C22.6002 14.18 21.9335 14.0133 21.3469 13.68C20.7602 13.3467 20.3002 12.8733 19.9669 12.26C19.6335 11.6467 19.4669 10.9133 19.4669 10.06V4.14H21.5269V9.92C21.5269 10.7733 21.7402 11.4067 22.1669 11.82C22.5935 12.22 23.1869 12.42 23.9469 12.42C24.7869 12.42 25.4602 12.14 25.9669 11.58C26.4869 11.0067 26.7469 10.1867 26.7469 9.12V4.14H28.8069V14H26.7869V12.52H26.4669C26.2802 12.92 25.9469 13.3 25.4669 13.66C24.9869 14.0067 24.2802 14.18 23.3469 14.18ZM35.892 14.28C34.6387 14.28 33.5987 14 32.772 13.44C31.9454 12.88 31.4387 12.0333 31.252 10.9L33.172 10.44C33.2787 10.9867 33.4587 11.42 33.712 11.74C33.9654 12.06 34.2787 12.2867 34.652 12.42C35.0387 12.5533 35.452 12.62 35.892 12.62C36.5454 12.62 37.0454 12.4933 37.392 12.24C37.752 11.9867 37.932 11.66 37.932 11.26C37.932 10.86 37.7654 10.5667 37.432 10.38C37.0987 10.1933 36.6054 10.04 35.952 9.92L35.272 9.8C34.6054 9.68 33.9987 9.50667 33.452 9.28C32.9054 9.05333 32.472 8.74 32.152 8.34C31.832 7.94 31.672 7.42667 31.672 6.8C31.672 5.86667 32.0187 5.14667 32.712 4.64C33.4054 4.12 34.3254 3.86 35.472 3.86C36.5787 3.86 37.4854 4.11333 38.192 4.62C38.912 5.11333 39.3787 5.78667 39.592 6.64L37.672 7.18C37.552 6.58 37.2987 6.16 36.912 5.92C36.5254 5.66667 36.0454 5.54 35.472 5.54C34.912 5.54 34.472 5.64667 34.152 5.86C33.832 6.06 33.672 6.34667 33.672 6.72C33.672 7.12 33.8254 7.41333 34.132 7.6C34.452 7.78667 34.8787 7.92667 35.412 8.02L36.112 8.14C36.8187 8.26 37.4654 8.42667 38.052 8.64C38.6387 8.85333 39.0987 9.16 39.432 9.56C39.7787 9.96 39.952 10.4933 39.952 11.16C39.952 12.1467 39.5854 12.9133 38.852 13.46C38.1187 14.0067 37.132 14.28 35.892 14.28ZM45.845 14C45.245 14 44.765 13.82 44.405 13.46C44.0583 13.1 43.885 12.62 43.885 12.02V5.88H41.165V4.14H43.885V0.88H45.945V4.14H48.885V5.88H45.945V11.66C45.945 12.06 46.1317 12.26 46.505 12.26H48.565V14H45.845ZM55.4736 14.28C54.4736 14.28 53.6003 14.0733 52.8536 13.66C52.1069 13.2333 51.5203 12.64 51.0936 11.88C50.6803 11.1067 50.4736 10.2133 50.4736 9.2V8.96C50.4736 7.93333 50.6803 7.04 51.0936 6.28C51.5069 5.50667 52.0803 4.91333 52.8136 4.5C53.5603 4.07333 54.4203 3.86 55.3936 3.86C56.3403 3.86 57.1669 4.07333 57.8736 4.5C58.5936 4.91333 59.1536 5.49333 59.5536 6.24C59.9536 6.98667 60.1536 7.86 60.1536 8.86V9.64H52.5736C52.6003 10.5067 52.8869 11.2 53.4336 11.72C53.9936 12.2267 54.6869 12.48 55.5136 12.48C56.2869 12.48 56.8669 12.3067 57.2536 11.96C57.6536 11.6133 57.9603 11.2133 58.1736 10.76L59.8736 11.64C59.6869 12.0133 59.4136 12.4067 59.0536 12.82C58.7069 13.2333 58.2469 13.58 57.6736 13.86C57.1003 14.14 56.3669 14.28 55.4736 14.28ZM52.5936 8.06H58.0536C58.0003 7.31333 57.7336 6.73333 57.2536 6.32C56.7736 5.89333 56.1469 5.68 55.3736 5.68C54.6003 5.68 53.9669 5.89333 53.4736 6.32C52.9936 6.73333 52.7003 7.31333 52.5936 8.06ZM66.7133 14.28C65.8999 14.28 65.1466 14.08 64.4533 13.68C63.7599 13.28 63.1999 12.7067 62.7733 11.96C62.3599 11.2 62.1533 10.2867 62.1533 9.22V8.92C62.1533 7.86667 62.3599 6.96 62.7733 6.2C63.1866 5.44 63.7399 4.86 64.4333 4.46C65.1266 4.06 65.8866 3.86 66.7133 3.86C67.3533 3.86 67.8866 3.94 68.3133 4.1C68.7533 4.26 69.1133 4.46667 69.3933 4.72C69.6733 4.96 69.8866 5.21333 70.0333 5.48H70.3533V-9.53674e-07H72.4133V14H70.3933V12.6H70.0733C69.8199 13.0267 69.4333 13.4133 68.9133 13.76C68.4066 14.1067 67.6733 14.28 66.7133 14.28ZM67.2933 12.48C68.1866 12.48 68.9199 12.1933 69.4933 11.62C70.0799 11.0467 70.3733 10.2267 70.3733 9.16V8.98C70.3733 7.92667 70.0866 7.11333 69.5133 6.54C68.9399 5.96667 68.1999 5.68 67.2933 5.68C66.4133 5.68 65.6799 5.96667 65.0933 6.54C64.5199 7.11333 64.2333 7.92667 64.2333 8.98V9.16C64.2333 10.2267 64.5199 11.0467 65.0933 11.62C65.6799 12.1933 66.4133 12.48 67.2933 12.48ZM86.2434 14.28C85.2834 14.28 84.5434 14.1067 84.0234 13.76C83.5168 13.4133 83.1368 13.0267 82.8834 12.6H82.5634V14H80.5434V-9.53674e-07H82.6034V5.48H82.9234C83.0834 5.21333 83.2968 4.96 83.5634 4.72C83.8301 4.46667 84.1834 4.26 84.6234 4.1C85.0634 3.94 85.6034 3.86 86.2434 3.86C87.0701 3.86 87.8301 4.06 88.5234 4.46C89.2168 4.86 89.7701 5.44 90.1834 6.2C90.5968 6.96 90.8034 7.86667 90.8034 8.92V9.22C90.8034 10.2867 90.5901 11.2 90.1634 11.96C89.7501 12.7067 89.1968 13.28 88.5034 13.68C87.8234 14.08 87.0701 14.28 86.2434 14.28ZM85.6434 12.48C86.5368 12.48 87.2701 12.1933 87.8434 11.62C88.4301 11.0467 88.7234 10.2267 88.7234 9.16V8.98C88.7234 7.92667 88.4368 7.11333 87.8634 6.54C87.2901 5.96667 86.5501 5.68 85.6434 5.68C84.7634 5.68 84.0301 5.96667 83.4434 6.54C82.8701 7.11333 82.5834 7.92667 82.5834 8.98V9.16C82.5834 10.2267 82.8701 11.0467 83.4434 11.62C84.0301 12.1933 84.7634 12.48 85.6434 12.48ZM94.4959 18V16.2H99.9959C100.369 16.2 100.556 16 100.556 15.6V12.56H100.236C100.116 12.8267 99.9293 13.0867 99.6759 13.34C99.4359 13.58 99.1093 13.78 98.6959 13.94C98.2826 14.1 97.7626 14.18 97.1359 14.18C96.3893 14.18 95.7226 14.0133 95.1359 13.68C94.5493 13.3467 94.0893 12.8733 93.7559 12.26C93.4226 11.6467 93.2559 10.92 93.2559 10.08V4.14H95.3159V9.92C95.3159 10.7733 95.5293 11.4067 95.9559 11.82C96.3826 12.22 96.9759 12.42 97.7359 12.42C98.5759 12.42 99.2493 12.14 99.7559 11.58C100.276 11.02 100.536 10.2067 100.536 9.14V4.14H102.596V16.02C102.596 16.62 102.416 17.1 102.056 17.46C101.709 17.82 101.229 18 100.616 18H94.4959Z" fill="#64748B"/>
</svg>
